<?xml version="1.0" encoding="UTF-8"?>
<svg width="18px" height="14px" viewBox="0 0 18 14" version="1.1" xmlns="http://www.w3.org/2000/svg" xmlns:xlink="http://www.w3.org/1999/xlink">
    <!-- Generator: Sketch 42 (36781) - http://www.bohemiancoding.com/sketch -->
    <title>Fill 819</title>
    <desc>Created with Sketch.</desc>
    <defs></defs>
    <g id="Homepage" stroke="none" stroke-width="1" fill="" fill-rule="evenodd">
        <g id="BWI-HUD-Design-f1" transform="translate(-1305.000000, -149.000000)" fill="">
            <g id="hud-sidebar" transform="translate(1189.000000, 0.000000)">
                <g id="Group-6" transform="translate(25.000000, 141.000000)">
                    <g id="Group-38" transform="translate(86.000000, 0.000000)">
                        <polygon id="Fill-819" points="18.5013158 9.48078947 15.5397368 12.0939474 13.275 12.3552632 11.0102632 12.6165789 8.65842105 12.8778947 6.39368421 13.1392105 6.13236842 13.2263158 5.95815789 13.4005263 5.69684211 13.5747368 5.52263158 13.8360526 5.26131579 14.0102632 5 14.2715789 5 14.3586842 5 14.4457895 5 14.5328947 5.08710526 14.5328947 5.17421053 14.62 13.4492105 14.7071053 11.7942105 16.3621053 11.7071053 16.4492105 11.5328947 16.6234211 11.4457895 16.7976316 11.2715789 16.8847368 10.4005263 17.7557895 9.00684211 17.1460526 8.83263158 17.0589474 8.74552632 16.9718421 8.57131579 16.9718421 8.39710526 16.8847368 8.22289474 16.7976316 8.04868421 16.7976316 7.87447368 16.7105263 7.70026316 16.7976316 7.52605263 16.8847368 7.35184211 16.9718421 7.17763158 17.0589474 7.09052632 17.2331579 7.00342105 17.3202632 7.00342105 17.4944737 7.09052632 17.5815789 7.09052632 17.6686842 7.35184211 17.7557895 7.52605263 17.93 7.70026316 18.1042105 7.87447368 18.2784211 7.87447368 18.3655263 7.87447368 18.4526316 7.78736842 18.4526316 7.78736842 18.5397368 7.17763158 18.7139474 6.48078947 18.9752632 5.87105263 19.2365789 5.26131579 19.4978947 5.17421053 19.4978947 5.17421053 19.585 5.08710526 19.585 5 19.6721053 5 19.7592105 5 19.8463158 5 19.9334211 5.08710526 19.9334211 5.08710526 20.0205263 5.08710526 20.1076316 5.17421053 20.1076316 5.26131579 20.1947368 5.43552632 20.2818421 5.60973684 20.2818421 5.69684211 20.1947368 6.48078947 20.1076316 7.35184211 19.9334211 8.13578947 19.8463158 8.91973684 19.7592105 9.35526316 20.1076316 9.70368421 20.3689474 10.0521053 20.7173684 10.4876316 20.9786842 10.5747368 21.0657895 10.6618421 21.1528947 10.7489474 21.1528947 10.8360526 21.24 10.9231579 21.24 11.0102632 21.24 11.0973684 21.24 11.1844737 21.1528947 11.2715789 20.9786842 11.2715789 20.8915789 11.2715789 20.7173684 11.2715789 20.5431579 11.2715789 20.4560526 11.2715789 20.2818421 11.2715789 20.1947368 11.1844737 20.0205263 11.0973684 19.7592105 11.5328947 19.4107895 11.7942105 19.2365789 11.9684211 19.0623684 12.1426316 18.8881579 12.3168421 18.7139474 16.6721053 14.7942105 17.1947368 15.4910526 17.8915789 16.275 18.5013158 16.9718421 19.1981579 17.6686842 19.3723684 17.8428947 19.4594737 18.0171053 19.6336842 18.1913158 19.8078947 18.2784211 19.9821053 18.2784211 20.1563158 18.2784211 20.2434211 18.2784211 20.3305263 18.1913158 20.5047368 18.1042105 20.5918421 17.93 20.6789474 17.7557895 20.5918421 17.5815789 18.8497368 12.8778947 19.4594737 12.1810526 19.895 11.7455263 20.4176316 11.2228947 20.9402632 10.7873684 21.3757895 10.3518421 21.6371053 10.0034211 21.8984211 9.655 22.0726316 9.21947368 22.1597368 8.78394737 22.1597368 8.60973684 22.1597368 8.43552632 22.0726316 8.26131579 21.8984211 8.17421053 21.8113158 8.08710526 21.7242105 8.08710526 21.6371053 8.08710526 21.4628947 8.08710526 21.1144737 8 20.6789474 8.08710526 20.2434211 8.08710526 19.8078947 8.26131579 19.4594737 8.52263158 19.1110526 8.78394737 18.7626316 9.13236842"></polygon>
                    </g>
                </g>
            </g>
        </g>
    </g>
</svg>
