<?xml version="1.0" encoding="UTF-8"?>
<svg width="21px" height="21px" viewBox="0 0 21 21" version="1.1" xmlns="http://www.w3.org/2000/svg" xmlns:xlink="http://www.w3.org/1999/xlink">
    <!-- Generator: Sketch 42 (36781) - http://www.bohemiancoding.com/sketch -->
    <title>alert</title>
    <desc>Created with Sketch.</desc>
    <defs></defs>
    <g id="Homepage" stroke="none" stroke-width="1" fill="" fill-rule="evenodd">
        <g id="BWI-HUD-Design-Site-Alert" transform="translate(-107.000000, -177.000000)" fill="">
            <g id="Big-Alert" transform="translate(90.000000, 142.000000)">
                <path d="M37.7539062,52.8417969 C38.0922852,53.5185547 38.0717773,54.3183594 37.6821289,54.9541016 C37.2719727,55.6103516 36.5644531,56 35.815918,56 L19.184082,56 C18.4355469,56 17.7280273,55.6103516 17.3178711,54.9541016 C16.9282227,54.3183594 16.9077148,53.5185547 17.215332,52.8417969 L25.53125,36.2202148 C25.9208984,35.4614258 26.6694336,35 27.5,35 C28.3305664,35 29.0791016,35.4614258 29.4482422,36.2202148 L37.7539062,52.8417969 Z M26.1875,40.690918 L26.1875,48.125 L28.8125,48.125 L28.8125,40.690918 L26.1875,40.690918 Z M27.5,53.815918 C28.4741211,53.815918 29.253418,53.0366211 29.253418,52.0625 C29.253418,51.0883789 28.4741211,50.309082 27.5,50.309082 C26.5258789,50.309082 25.746582,51.0883789 25.746582,52.0625 C25.746582,53.0366211 26.5258789,53.815918 27.5,53.815918 Z" id="alert"></path>
            </g>
        </g>
    </g>
</svg>
