<?xml version="1.0" encoding="UTF-8"?>
<svg width="29px" height="25px" viewBox="0 0 29 25" version="1.1" xmlns="http://www.w3.org/2000/svg" xmlns:xlink="http://www.w3.org/1999/xlink">
    <!-- Generator: Sketch 47 (45396) - http://www.bohemiancoding.com/sketch -->
    <title>flaticon1507923791-svg</title>
    <desc>Created with Sketch.</desc>
    <defs></defs>
    <g id="Parking/Wayfinding-091417" stroke="none" stroke-width="1" fill="" fill-rule="evenodd">
        <g id="Flying-With-Us-f1-Copy-6" transform="translate(-33.000000, -347.000000)" fill-rule="nonzero" fill="">
            <g id="flaticon1507923791-svg" transform="translate(33.000000, 347.000000)">
                <path d="M21.0075472,14 L16.9924528,14 C15.8935849,14 15,14.8854701 15,15.974359 L15,19.025641 C15,20.1145299 15.8935849,21 16.9924528,21 L21.0075472,21 C22.1064151,21 23,20.1145299 23,19.025641 L23,15.974359 C23,14.8854701 22.1064151,14 21.0075472,14 Z M21.5509434,19.025641 C21.5509434,19.3247863 21.3033962,19.5641026 21.0075472,19.5641026 L16.9924528,19.5641026 C16.690566,19.5641026 16.4490566,19.3188034 16.4490566,19.025641 L16.4490566,15.974359 C16.4490566,15.6752137 16.6966038,15.4358974 16.9924528,15.4358974 L21.0075472,15.4358974 C21.309434,15.4358974 21.5509434,15.6811966 21.5509434,15.974359 L21.5509434,19.025641 Z" id="Shape"></path>
                <path d="M29,8.19096653 C29,8.06810204 28.9703719,7.95108823 28.90519,7.8457758 L24.5913363,0.356892113 C24.4668982,0.140416569 24.2298733,0 23.9750715,0 L5.01900286,0 C4.76420106,0 4.52717613,0.134565879 4.40273805,0.356892113 L0.0948099714,7.8457758 C0.0355537393,7.95108823 0,8.06810204 0,8.19096653 C0,9.87011467 1.02513282,11.3093845 2.48876175,11.9471098 L2.48876175,24.2979172 C2.48876175,24.6840627 2.8087454,25 3.19983653,25 L7.12852472,25 C7.13445035,25 7.14037597,25 7.14630159,25 L12.6571312,25 C12.6630568,25 12.6689824,25 12.6749081,25 L25.7942378,25 C26.185329,25 26.5053126,24.6840627 26.5053126,24.2979172 L26.5053126,12.0348701 C26.5053126,12.0056167 26.5053126,11.9822139 26.499387,11.9588111 C27.9689416,11.3210859 29,9.87596536 29,8.19096653 Z M5.43379649,1.41001638 L23.5602779,1.41001638 L26.9319575,7.26655745 L2.0680425,7.26655745 L5.43379649,1.41001638 Z M20.6389456,8.66487245 C20.413772,9.92862158 19.2938292,10.8881348 17.9487127,10.8881348 C16.6035962,10.8881348 15.4836535,9.92862158 15.2584798,8.66487245 L20.6389456,8.66487245 Z M13.7474459,8.66487245 C13.5222722,9.92862158 12.4023294,10.8881348 11.0572129,10.8881348 C9.71209644,10.8881348 8.59215366,9.92862158 8.36105435,8.66487245 L13.7474459,8.66487245 Z M1.46955456,8.66487245 L6.85594606,8.66487245 C6.63077237,9.92862158 5.50490396,10.8881348 4.15978749,10.8881348 C2.81467103,10.8939855 1.69472824,9.92862158 1.46955456,8.66487245 Z M11.9460564,23.5958343 L7.85737638,23.5958343 L7.85737638,16.0191903 C7.85737638,15.4692254 8.30772374,15.0187222 8.87065795,15.0187222 L10.9387004,15.0187222 C11.495709,15.0187222 11.951982,15.4633747 11.951982,16.0191903 L11.951982,23.5958343 L11.9460564,23.5958343 Z M25.0831631,23.5958343 L13.368206,23.5958343 L13.368206,16.0191903 C13.368206,14.6969342 12.2778913,13.6145565 10.9327748,13.6145565 L8.86473233,13.6145565 C7.52554148,13.6145565 6.42930119,14.6910835 6.42930119,16.0191903 L6.42930119,23.601685 L3.91091132,23.601685 L3.91091132,12.2923005 C3.99387004,12.2981512 4.07682877,12.2981512 4.15978749,12.2981512 C5.59378831,12.2981512 6.86187168,11.5785163 7.6085002,10.4844372 C8.35512873,11.5785163 9.6232121,12.2981512 11.0572129,12.2981512 C12.4912137,12.2981512 13.7533715,11.5785163 14.5059256,10.4844372 C15.2525541,11.5785163 16.5206375,12.2981512 17.9487127,12.2981512 C19.3827135,12.2981512 20.6448713,11.5785163 21.3914998,10.4844372 C22.1381283,11.5785163 23.4062117,12.2981512 24.8402125,12.2981512 C24.9231712,12.2981512 25.0002043,12.2923005 25.0831631,12.2923005 L25.0831631,23.5958343 L25.0831631,23.5958343 Z M24.8402125,10.8939855 C23.495096,10.8939855 22.3751532,9.93447227 22.1499796,8.67072315 L27.5363711,8.67072315 C27.3052718,9.92862158 26.185329,10.8939855 24.8402125,10.8939855 Z" id="Shape"></path>
            </g>
        </g>
    </g>
</svg>
