<?xml version="1.0" encoding="UTF-8"?>
<svg width="26px" height="27px" viewBox="0 0 26 27" version="1.1" xmlns="http://www.w3.org/2000/svg" xmlns:xlink="http://www.w3.org/1999/xlink">
    <!-- Generator: Sketch 42 (36781) - http://www.bohemiancoding.com/sketch -->
    <title>Shape</title>
    <desc>Created with Sketch.</desc>
    <defs></defs>
    <g id="7.Wayfinding:-YM" stroke="none" stroke-width="1" fill="none" fill-rule="evenodd">
        <g id="Wayfinding-f2" transform="translate(-35.000000, -661.000000)" fill-rule="nonzero" fill="">
            <g id="flaticon1487710608-svg" transform="translate(35.000000, 661.000000)">
                <g id="Capa_1">
                    <path d="M23.9267664,5.1729741 L18.5427951,5.61879681 C17.8837377,3.35171116 16.1487705,1.62328088 14.0308361,1.18703187 C13.2358115,0.583135458 12.3127049,0.181685259 11.3004098,0.049374502 L11.3004098,0 L10.6077869,0 L10.6077869,0.0398007968 C7.19795082,0.40101992 4.5160082,3.27512151 4.42367623,6.78829482 L0.00751229508,7.15381673 L2.74028279,24.4027829 L18.5256926,26.9846713 L22.2867418,25.0928426 L25.97725,7.70575697 L23.9267664,5.1729741 Z M17.7822418,5.68177888 L16.6890164,5.7722988 C16.4968934,4.53185857 16.0133361,3.40312948 15.3210328,2.4793745 C16.4552828,3.14996414 17.3424795,4.29396813 17.7822418,5.68177888 Z M13.7320492,1.89457171 C14.8655533,2.81251793 15.6797582,4.21382869 15.9434877,5.83404382 L8.01465984,6.49059562 C8.53119672,3.95173506 10.6864795,2.00913347 13.3114672,1.84406773 C13.4533484,1.85417928 13.5935246,1.87139044 13.7320492,1.89457171 Z M10.9395,0.766595618 C11.5091557,0.807095618 12.0552623,0.948603586 12.5644467,1.17530677 C9.85186885,1.64673108 7.70681557,3.81469124 7.24371721,6.55438446 L5.16797951,6.72628088 C5.29307787,3.54076494 7.80202459,0.963286853 10.9395,0.766595618 Z M18.760332,25.9895438 L18.4589877,25.9119861 L23.5513115,5.7300239 L23.8526025,5.8074741 L18.760332,25.9895438 Z" id="Shape"></path>
                </g>
            </g>
        </g>
    </g>
</svg>
