<?xml version="1.0" encoding="UTF-8"?>
<svg width="29px" height="25px" viewBox="0 0 29 25" version="1.1" xmlns="http://www.w3.org/2000/svg" xmlns:xlink="http://www.w3.org/1999/xlink">
    <!-- Generator: Sketch 42 (36781) - http://www.bohemiancoding.com/sketch -->
    <title>Combined Shape</title>
    <desc>Created with Sketch.</desc>
    <defs></defs>
    <g id="Homepage" stroke="" stroke-width="1" fill="" fill-rule="evenodd">
        <g id="BWI-HUD-Design-f1" transform="translate(-91.000000, -1565.000000)" fill="">
            <g id="Group" transform="translate(91.000000, 1565.000000)">
                <path d="M0.135891341,19.4814815 L0.135891341,11.5206972 L0.135891341,11.3311547 L0.135891341,11.1416122 L0.135891341,10.9520697 L0.135891341,10.7625272 L0.324957555,10.5729847 L0.324957555,10.3834423 L0.324957555,10.1938998 L0.514023769,10.0043573 L0.703089983,9.81481481 L0.892156197,9.62527233 L1.08122241,9.43572985 L1.27028862,9.24618736 L1.45935484,9.24618736 L1.45935484,9.05664488 L1.64842105,9.05664488 L1.83748727,8.8671024 L2.02655348,8.8671024 L2.21561969,8.8671024 L2.21561969,8.67755991 L2.40468591,8.67755991 L2.59375212,8.67755991 L5.0516129,2.23311547 L5.24067912,2.04357298 L5.24067912,1.8540305 L5.42974533,1.8540305 L5.61881154,1.66448802 L5.61881154,1.47494553 L5.80787776,1.28540305 L5.99694397,1.09586057 L6.18601019,1.09586057 L6.3750764,0.906318083 L6.56414261,0.906318083 L6.75320883,0.716775599 L6.94227504,0.716775599 L7.13134126,0.527233115 L7.32040747,0.527233115 L7.50947368,0.527233115 L7.6985399,0.527233115 L21.1222411,0.527233115 L21.3113073,0.527233115 L21.5003735,0.527233115 L21.6894397,0.527233115 L21.8785059,0.716775599 L22.0675722,0.716775599 L22.2566384,0.716775599 L22.4457046,0.906318083 L22.6347708,0.906318083 L22.6347708,1.09586057 L22.823837,1.09586057 L23.0129032,1.28540305 L23.2019694,1.47494553 L23.3910357,1.66448802 L23.5801019,1.8540305 L23.5801019,2.04357298 L23.7691681,2.04357298 L23.7691681,2.23311547 L23.7691681,2.42265795 L26.2270289,8.67755991 L26.4160951,8.67755991 L26.6051613,8.67755991 L26.7942275,8.8671024 L26.9832937,8.8671024 L27.1723599,8.8671024 L27.1723599,9.05664488 L27.3614261,9.05664488 L27.5504924,9.05664488 L27.5504924,9.24618736 L27.7395586,9.24618736 L27.9286248,9.43572985 L28.117691,9.62527233 L28.3067572,9.81481481 L28.3067572,10.0043573 L28.4958234,10.1938998 L28.4958234,10.3834423 L28.6848896,10.3834423 L28.6848896,10.5729847 L28.6848896,10.7625272 L28.8739559,10.9520697 L28.8739559,11.1416122 L28.8739559,11.3311547 L28.8739559,11.5206972 L28.8739559,19.4814815 L26.6051613,19.4814815 L26.6051613,22.7037037 L26.6051613,22.8932462 L26.6051613,23.0827887 L26.4160951,23.0827887 L26.4160951,23.2723312 L26.4160951,23.4618736 L26.2270289,23.6514161 L26.0379626,23.8409586 L26.0379626,24.0305011 L25.8488964,24.0305011 L25.8488964,24.2200436 L25.6598302,24.2200436 L25.470764,24.4095861 L25.2816978,24.4095861 L25.0926316,24.4095861 L25.0926316,24.5991285 L24.9035654,24.5991285 L24.7144992,24.5991285 L24.5254329,24.5991285 L24.3363667,24.5991285 L24.1473005,24.5991285 L23.9582343,24.5991285 L23.7691681,24.5991285 L23.5801019,24.4095861 L23.3910357,24.4095861 L23.2019694,24.2200436 L23.0129032,24.2200436 L23.0129032,24.0305011 L22.823837,24.0305011 L22.823837,23.8409586 L22.6347708,23.8409586 L22.6347708,23.6514161 L22.4457046,23.4618736 L22.4457046,23.2723312 L22.4457046,23.0827887 L22.2566384,23.0827887 L22.2566384,22.8932462 L22.2566384,22.7037037 L22.2566384,19.4814815 L6.56414261,19.4814815 L6.56414261,22.5141612 L6.56414261,22.7037037 L6.56414261,22.8932462 L6.56414261,23.0827887 L6.56414261,23.2723312 L6.3750764,23.2723312 L6.3750764,23.4618736 L6.18601019,23.6514161 L6.18601019,23.8409586 L5.99694397,24.0305011 L5.80787776,24.2200436 L5.61881154,24.2200436 L5.42974533,24.4095861 L5.24067912,24.4095861 L5.24067912,24.5991285 L5.0516129,24.5991285 L4.86254669,24.5991285 L4.67348048,24.5991285 L4.48441426,24.5991285 L4.29534805,24.5991285 L4.10628183,24.5991285 L3.91721562,24.5991285 L3.72814941,24.4095861 L3.53908319,24.4095861 L3.35001698,24.2200436 L3.16095076,24.2200436 L3.16095076,24.0305011 L2.97188455,24.0305011 L2.78281834,23.8409586 L2.59375212,23.6514161 L2.59375212,23.4618736 L2.59375212,23.2723312 L2.40468591,23.2723312 L2.40468591,23.0827887 L2.40468591,22.8932462 L2.40468591,22.7037037 L2.40468591,19.4814815 L0.135891341,19.4814815 Z M4.67348048,8.67755991 L24.3363667,8.67755991 L22.2566384,3.55991285 L22.0675722,3.37037037 L22.0675722,3.18082789 L21.8785059,3.18082789 L21.8785059,2.9912854 L21.6894397,2.80174292 L21.5003735,2.80174292 L21.3113073,2.61220044 L21.1222411,2.61220044 L20.9331749,2.61220044 L7.88760611,2.61220044 L7.6985399,2.61220044 L7.50947368,2.61220044 L7.50947368,2.80174292 L7.32040747,2.80174292 L7.13134126,2.80174292 L7.13134126,2.9912854 L6.94227504,2.9912854 L6.94227504,3.18082789 L6.75320883,3.37037037 L6.75320883,3.55991285 L4.67348048,8.67755991 Z M6.3750764,12.8474946 L6.18601019,12.2788671 L5.80787776,11.5206972 L5.24067912,11.1416122 L4.48441426,10.9520697 L3.72814941,11.1416122 L3.16095076,11.5206972 L2.78281834,12.2788671 L2.59375212,13.037037 L2.78281834,13.6056645 L3.16095076,14.3638344 L3.72814941,14.7429194 L4.48441426,14.9324619 L5.24067912,14.7429194 L5.80787776,14.3638344 L6.18601019,13.6056645 L6.3750764,12.8474946 Z M26.4160951,13.037037 L26.2270289,12.2788671 L25.8488964,11.7102397 L25.0926316,11.1416122 L24.3363667,11.1416122 L23.7691681,11.1416122 L23.0129032,11.5206972 L22.6347708,12.2788671 L22.4457046,13.037037 L22.6347708,13.6056645 L23.0129032,14.3638344 L23.5801019,14.7429194 L24.3363667,14.9324619 L25.0926316,14.7429194 L25.8488964,14.3638344 L26.2270289,13.795207 L26.4160951,13.037037 Z" id="Combined-Shape"></path>
            </g>
        </g>
    </g>
</svg>
