<?xml version="1.0" encoding="UTF-8"?>
<svg width="15px" height="9px" viewBox="0 0 15 9" version="1.1" xmlns="http://www.w3.org/2000/svg" xmlns:xlink="http://www.w3.org/1999/xlink">
    <!-- Generator: Sketch 42 (36781) - http://www.bohemiancoding.com/sketch -->
    <title>Shape</title>
    <desc>Created with Sketch.</desc>
    <defs></defs>
    <g id="7.Wayfinding:-YM" stroke="none" stroke-width="1" fill="none" fill-rule="evenodd">
        <g id="Wayfinding-Mofile-f4" transform="translate(-325.000000, -493.000000)" fill-rule="nonzero" fill="">
            <g id="Group-8" transform="translate(333.000000, 499.000000) scale(1, -1) translate(-333.000000, -499.000000) translate(312.000000, 478.000000)">
                <g id="flaticon1488483750-svg" transform="translate(13.000000, 18.000000)">
                    <g id="Capa_1">
                        <path d="M14.8464211,0.943706587 L14.0951579,0.174502994 C13.9950526,0.0717844311 13.8797368,0.0205868263 13.7493684,0.0205868263 C13.6193158,0.0205868263 13.5040526,0.0717844311 13.4039474,0.174502994 L7.49821053,6.22137126 L1.59273684,0.174664671 C1.49257895,0.0719461078 1.37731579,0.020748503 1.24710526,0.020748503 C1.11684211,0.020748503 1.00157895,0.0719461078 0.901473684,0.174664671 L0.150315789,0.943922156 C0.05,1.04642515 0,1.1644491 0,1.29783234 C0,1.43110778 0.0501578947,1.54913174 0.150315789,1.65163473 L7.15257895,8.82177844 C7.25268421,8.92433533 7.368,8.97558683 7.49821053,8.97558683 C7.62842105,8.97558683 7.74352632,8.92433533 7.84357895,8.82177844 L14.8464211,1.65163473 C14.9465263,1.54907784 14.9962632,1.43105389 14.9962632,1.29783234 C14.9962632,1.1644491 14.9465263,1.04642515 14.8464211,0.943706587 Z" id="Shape"></path>
                    </g>
                </g>
            </g>
        </g>
    </g>
</svg>
