<?xml version="1.0" encoding="UTF-8"?>
<svg width="35px" height="35px" viewBox="0 0 35 35" version="1.1" xmlns="http://www.w3.org/2000/svg" xmlns:xlink="http://www.w3.org/1999/xlink">
    <!-- Generator: Sketch 42 (36781) - http://www.bohemiancoding.com/sketch -->
    <title>Group</title>
    <desc>Created with Sketch.</desc>
    <defs></defs>
    <g id="2.Parking---Anne-working" stroke="none" stroke-width="1" fill="none" fill-rule="evenodd">
        <g id="Parking-f1" transform="translate(-822.000000, -2699.000000)" fill="">
            <g id="DRIVING-TIMES-(Google-Maps-estimate-panel)" transform="translate(821.000000, 2699.000000)">
                <g id="Group-21">
                    <g id="Group" transform="translate(1.000000, 0.000000)">
                        <path d="M17.4559259,0.0012962963 C7.83092593,0.0012962963 0,7.83222222 0,17.4572222 C0,27.0822222 7.83092593,34.9131481 17.4559259,34.9131481 C27.0835185,34.9131481 34.9144444,27.0822222 34.9144444,17.4572222 C34.9144444,7.83222222 27.0835185,0.0012962963 17.4559259,0.0012962963 Z M17.4559259,33.3355556 C8.69944444,33.3355556 1.57888889,26.2124074 1.57888889,17.4572222 C1.57888889,8.70074074 8.69944444,1.57759259 17.4559259,1.57759259 C26.2124074,1.57759259 33.3342593,8.70074074 33.3342593,17.4572222 C33.3342593,26.2137037 26.2124074,33.3355556 17.4559259,33.3355556 Z" id="Shape"></path>
                        <path d="M12.0737037,5.96944444 L11.4281481,4.6887037 L10.7216667,5.04648148 L11.3711111,6.33111111 C11.6005556,6.20148148 11.8377778,6.08351852 12.0737037,5.96944444 Z" id="Shape"></path>
                        <path d="M4.70296296,17.7203704 C4.70296296,17.4533333 4.72759259,17.1927778 4.74185185,16.9296296 L2.92962963,16.9296296 L2.92962963,18.5124074 L4.74185185,18.5124074 C4.7262963,18.2492593 4.70296296,17.9887037 4.70296296,17.7203704 Z" id="Shape"></path>
                        <path d="M18.5668519,4.68740741 L18.5668519,2.87518519 L16.9840741,2.87518519 L16.9840741,4.68740741 C17.2472222,4.67185185 17.5077778,4.64851852 17.7761111,4.64851852 C18.0431481,4.64722222 18.305,4.67185185 18.5668519,4.68740741 Z" id="Shape"></path>
                        <path d="M31.1914815,11.7418519 L30.8337037,11.0366667 L29.4038889,11.7638889 C29.5257407,11.9972222 29.6437037,12.2331481 29.7487037,12.4768519 L31.1914815,11.7418519 Z" id="Shape"></path>
                        <path d="M24.6983333,6.64481481 C24.9238889,6.78481481 25.1442593,6.93 25.3568519,7.08296296 L26.1501852,5.85148148 L25.4851852,5.42240741 L24.6983333,6.64481481 Z" id="Shape"></path>
                        <path d="M5.33166667,10.01 L6.63314815,10.907037 C6.77185185,10.6814815 6.91055556,10.4572222 7.06222222,10.2407407 L5.78277778,9.35666667 L5.33166667,10.01 Z" id="Shape"></path>
                        <path d="M23.1557407,29.6281481 L24.1227778,31.5440741 L24.8292593,31.1862963 L23.8687037,29.2859259 C23.6366667,29.4090741 23.3968519,29.5192593 23.1557407,29.6281481 Z" id="Shape"></path>
                        <path d="M28.1037037,25.7237037 L29.772037,26.8748148 L30.2205556,26.2240741 L28.5755556,25.0898148 C28.4277778,25.3062963 28.2631481,25.515 28.1037037,25.7237037 Z" id="Shape"></path>
                        <path d="M30.812963,16.9296296 C30.8298148,17.1940741 30.8531481,17.4546296 30.8531481,17.7203704 C30.8531481,17.9887037 30.8272222,18.2492593 30.812963,18.5124074 L32.6238889,18.5124074 L32.6238889,16.9296296 L30.812963,16.9296296 Z" id="Shape"></path>
                        <path d="M16.9853704,30.7559259 L16.9853704,32.5694444 L18.5681481,32.5694444 L18.5681481,30.7559259 C18.3062963,30.7740741 18.0444444,30.7974074 17.7787037,30.7974074 C17.5090741,30.7961111 17.2485185,30.7701852 16.9853704,30.7559259 Z" id="Shape"></path>
                        <path d="M9.40203704,30.3825926 L10.0683333,30.812963 L11.222037,29.0227778 C10.9925926,28.8892593 10.7644444,28.757037 10.5466667,28.6105556 L9.40203704,30.3825926 Z" id="Shape"></path>
                        <path d="M4.36203704,24.4948148 L4.72111111,25.1987037 L6.48925926,24.3003704 C6.35574074,24.0722222 6.22740741,23.8414815 6.10944444,23.6055556 L4.36203704,24.4948148 Z" id="Shape"></path>
                        <polygon id="Shape" points="18.3335185 6.06277778 17.22 6.06277778 17.22 16.9412963 17.22 17.4572222 17.22 18.1559259 10.6348148 25.3827778 10.8098148 25.5422222 17.2264815 18.5007407 25.7133333 18.5007407 25.7133333 16.9412963 18.3335185 16.9412963"></polygon>
                    </g>
                </g>
            </g>
        </g>
    </g>
</svg>
