<?xml version="1.0" encoding="UTF-8"?>
<svg width="11px" height="11px" viewBox="0 0 11 11" version="1.1" xmlns="http://www.w3.org/2000/svg" xmlns:xlink="http://www.w3.org/1999/xlink">
    <!-- Generator: Sketch 42 (36781) - http://www.bohemiancoding.com/sketch -->
    <title>close</title>
    <desc>Created with Sketch.</desc>
    <defs></defs>
    <g id="Homepage" stroke="none" stroke-width="1" fill="" fill-rule="evenodd">
        <g id="BWI-HUD-Design-Site-Alert" transform="translate(-1061.000000, -151.000000)" fill="">
            <g id="Big-Alert" transform="translate(90.000000, 142.000000)">
                <path d="M981.26416,17.3144531 L978.449707,14.5 L981.26416,11.6855469 C981.301758,11.637207 981.323242,11.5834961 981.323242,11.519043 C981.323242,11.4545898 981.301758,11.40625 981.26416,11.3579102 L979.64209,9.73583984 C979.59375,9.69824219 979.54541,9.67675781 979.480957,9.67675781 C979.416504,9.67675781 979.362793,9.69824219 979.314453,9.73583984 L976.5,12.550293 L973.685547,9.73583984 C973.637207,9.69824219 973.583496,9.67675781 973.519043,9.67675781 C973.45459,9.67675781 973.40625,9.69824219 973.35791,9.73583984 L971.73584,11.3579102 C971.698242,11.40625 971.676758,11.4545898 971.676758,11.519043 C971.676758,11.5834961 971.698242,11.637207 971.73584,11.6855469 L974.550293,14.5 L971.73584,17.3144531 C971.698242,17.362793 971.676758,17.4165039 971.676758,17.480957 C971.676758,17.5454102 971.698242,17.59375 971.73584,17.6420898 L973.35791,19.2641602 C973.40625,19.3017578 973.45459,19.3232422 973.519043,19.3232422 C973.583496,19.3232422 973.637207,19.3017578 973.685547,19.2641602 L976.5,16.449707 L979.314453,19.2641602 C979.362793,19.3017578 979.416504,19.3232422 979.480957,19.3232422 C979.54541,19.3232422 979.59375,19.3017578 979.64209,19.2641602 L981.26416,17.6420898 C981.301758,17.59375 981.323242,17.5454102 981.323242,17.480957 C981.323242,17.4165039 981.301758,17.362793 981.26416,17.3144531 Z" id="close"></path>
            </g>
        </g>
    </g>
</svg>
