<?xml version="1.0" encoding="UTF-8"?>
<svg width="34px" height="25px" viewBox="0 0 34 25" version="1.1" xmlns="http://www.w3.org/2000/svg" xmlns:xlink="http://www.w3.org/1999/xlink">
    <!-- Generator: Sketch 47.1 (45422) - http://www.bohemiancoding.com/sketch -->
    <title>Group 3</title>
    <desc>Created with Sketch.</desc>
    <defs></defs>
    <g id="Parking/Wayfinding-091417" stroke="none" stroke-width="1" fill="" fill-rule="evenodd">
        <g id="Flying-With-Us-f1-Copy-6" transform="translate(-34.000000, -409.000000)" fill-rule="nonzero">
            <g id="Group-3" transform="translate(34.000000, 409.000000)">
                <g id="flaticon1487711316-svg" transform="translate(4.000000, 4.000000)" fill="">
                    <g id="Layer_1">
                        <path d="M5.25859805,3.26107143 L1.62399938,3.26107143 C0.746663906,3.26107143 0.0294046875,3.97192857 0.0249939844,4.84560714 L1.07514478e-13,9.78960714 C-0.0018646875,10.1612857 0.299138906,10.4640714 0.672255703,10.4659643 L0.675769922,10.4659643 C1.04738063,10.4659643 1.34946,10.1668571 1.35139641,9.79642857 L1.37635453,4.85242857 L1.37635453,4.85075 C1.37721516,4.77735714 1.43745891,4.71839286 1.51114992,4.71882143 C1.58484094,4.71925 1.6443675,4.77892857 1.6443675,4.85232143 L1.64465438,16.1650714 C1.64465438,16.6110714 2.00769469,16.9726429 2.45550656,16.9726429 C2.90331844,16.9726429 3.26635875,16.6110714 3.26635875,16.1650714 L3.26635875,9.71028571 L3.61645383,9.71028571 L3.61645383,16.1650714 C3.61645383,16.6110714 3.97945828,16.9726071 4.42727016,16.9726071 C4.87508203,16.9726071 5.23808648,16.6110714 5.23808648,16.1650714 C5.23808648,5.49028571 5.22374273,11.5948571 5.22338414,4.86217857 C5.22338414,4.78642857 5.28341273,4.72421429 5.35943461,4.72125 C5.43545648,4.71828571 5.50029023,4.77557143 5.50617117,4.85107143 L5.50617117,4.85114286 L5.50158117,9.79235714 C5.50122258,10.164 5.80348125,10.4656071 6.17663391,10.4659643 L6.17727938,10.4659643 C6.5501093,10.4659643 6.85261898,10.1650357 6.85294172,9.79364286 L6.85753172,4.84967857 C6.85760344,4.84828571 6.85760344,4.847 6.85756758,4.84560714 C6.85315688,3.97192857 6.1358618,3.26107143 5.25859805,3.26107143 Z" id="Shape"></path>
                        <ellipse id="Oval" cx="3.44128078" cy="1.42189286" rx="1.40020102" ry="1.39453571"></ellipse>
                        <path d="M16.2820249,8.74460714 C16.2696176,8.70939286 15.0408961,5.219 14.8475782,4.65867857 C14.5363547,3.75678571 14.0145649,3.2995 13.2966961,3.2995 L10.9603502,3.2995 C10.2424455,3.2995 9.72065578,3.75682143 9.40946813,4.65867857 C9.21615023,5.21896429 7.98742875,8.70942857 7.97502141,8.74460714 C7.85245406,9.09275 8.03648438,9.474 8.38611328,9.59607143 C8.73602906,9.71821429 9.11854102,9.53446429 9.24100078,9.18671429 C9.28066125,9.07407143 10.0199023,7.02839286 10.4323209,5.85139286 C10.3891463,6.20275 10.5135066,5.47360714 9.47354883,10.8211786 C9.42886805,11.0508571 9.60662297,11.2632857 9.83935031,11.2632857 L10.3511712,11.2632857 L10.3511712,16.1089286 C10.3511712,16.5516429 10.711522,16.9105714 11.1560707,16.9105714 C11.6006194,16.9105714 11.9609702,16.5516786 11.9609702,16.1089286 L11.9609702,11.2632143 L12.3085193,11.2632143 L12.3085193,16.1089286 C12.3085193,16.5516429 12.6688702,16.9105714 13.1134188,16.9105714 C13.5579675,16.9105714 13.9183184,16.5516786 13.9183184,16.1089286 L13.9183184,11.2632143 L14.4301392,11.2632143 C14.6640141,11.2632143 14.8405856,11.0506429 14.7959407,10.8211071 C13.7654498,5.52221429 13.8790165,6.13760714 13.8438743,5.85132143 C14.259592,7.03742857 14.9771023,9.07575 15.0161531,9.18664286 C15.138828,9.53507143 15.5218062,9.718 15.8710406,9.596 C16.220562,9.47392857 16.4045923,9.09275 16.2820249,8.74460714 Z" id="Shape"></path>
                        <ellipse id="Oval" cx="12.1346013" cy="1.47375" rx="1.39016039" ry="1.38453571"></ellipse>
                    </g>
                </g>
                <g id="flaticon1509989570-svg" fill="">
                    <path d="M24.0500378,0.320703586 C24.2812882,0.534505976 24.3969134,0.804903117 24.3969134,1.13189501 L24.3969134,23.6188142 C24.3969134,23.9458677 24.2812882,24.2162649 24.0500378,24.4300056 C23.8187875,24.6438696 23.5361481,24.7507708 23.2021198,24.7507708 L1.19479355,24.7507708 C0.860765243,24.7507708 0.578125909,24.6438696 0.346875546,24.4300056 C0.115625182,24.2163265 0,23.9458677 0,23.6188142 L0,1.13189501 C0,0.804903117 0.115625182,0.534505976 0.346875546,0.320703586 C0.578125909,0.106901195 0.860765243,0 1.19479355,0 L23.2021198,0 C23.5361481,-4.38049987e-16 23.8187875,0.106901195 24.0500378,0.320703586 Z M1.92708636,1.88655333 L1.92708636,22.8642175 L22.469827,22.8642175 L22.469827,1.88655333 L1.92708636,1.88655333 Z M32.9888216,20.3441482 C32.3219616,20.3441482 31.2612454,20.3441482 31.2612454,20.3441482 C31.2612454,20.3441482 31.2612454,20.0624075 31.2612454,19.629994 C31.2612454,18.2963183 31.2612454,15.6986933 31.2612454,14.7042779 C31.2612454,14.7042779 31.2699992,14.4715489 30.9615394,14.4715489 C30.6540243,14.4715489 28.7630235,14.4715489 28.332263,14.4715489 C27.9004949,14.4715489 27.9761299,14.7495907 27.9761299,14.7495907 C27.9761299,15.7729816 27.9761299,18.2830019 27.9761299,19.6654428 C27.9761299,20.1476695 27.9761299,20.4618382 27.9761299,20.4618382 C27.9761299,20.4618382 26.6534937,20.4618382 26.1059745,20.4618382 C25.5611632,20.4618382 26.0631503,20.9264946 26.0631503,20.9264946 L29.3808877,24.8516303 C29.3808877,24.8516303 29.6523172,25.1633947 29.9379164,24.8830719 C30.3301982,24.4980056 33.1519942,20.8308754 33.1519942,20.8308754 C33.1519942,20.8308754 33.6532886,20.3441482 32.9888216,20.3441482 Z M26.1967239,5.00937521 C26.8635839,5.00937521 27.9243001,5.00937521 27.9243001,5.00937521 C27.9243001,5.00937521 27.9243001,5.29117761 27.9243001,5.7235911 C27.9243001,7.05720508 27.9243001,9.6548918 27.9243001,10.6493688 C27.9243001,10.6493688 27.9155464,10.8820361 28.2240061,10.8820361 C28.5315213,10.8820361 30.422522,10.8820361 30.8532825,10.8820361 C31.2850506,10.8820361 31.2094156,10.6039944 31.2094156,10.6039944 C31.2094156,9.58066513 31.2094156,7.07058315 31.2094156,5.68820397 C31.2094156,5.20591559 31.2094156,4.89180856 31.2094156,4.89180856 C31.2094156,4.89180856 32.5320518,4.89180856 33.079571,4.89180856 C33.6243823,4.89180856 33.1223952,4.42715209 33.1223952,4.42715209 L29.8046578,0.502016397 C29.8046578,0.502016397 29.5332283,0.190190419 29.2476291,0.470513219 C28.8553473,0.855641112 26.0335513,4.52277133 26.0335513,4.52277133 C26.0335513,4.52277133 25.5322569,5.00937521 26.1967239,5.00937521 Z" id="Shape"></path>
                </g>
            </g>
        </g>
    </g>
</svg>
