<?xml version="1.0" encoding="UTF-8"?>
<svg width="31px" height="28px" viewBox="0 0 31 28" version="1.1" xmlns="http://www.w3.org/2000/svg" xmlns:xlink="http://www.w3.org/1999/xlink">
    <!-- Generator: Sketch 42 (36781) - http://www.bohemiancoding.com/sketch -->
    <title>Shape</title>
    <desc>Created with Sketch.</desc>
    <defs></defs>
    <g id="7.Wayfinding:-YM" stroke="none" stroke-width="1" fill="none" fill-rule="evenodd">
        <g id="Wayfinding-f2" transform="translate(-33.000000, -767.000000)" fill-rule="nonzero" fill="">
            <g id="flaticon1487711298-svg" transform="translate(33.000000, 767.000000)">
                <g id="Layer_1">
                    <path d="M30.3534805,19.094949 L28.416041,19.094949 L28.416041,18.4374467 C28.416041,17.3529923 27.5466484,16.4685083 26.478541,16.4685083 C26.2525195,16.4685083 26.0349141,16.5088715 25.8324453,16.5819683 L25.8324453,16.4685083 C25.8324453,15.3840539 24.9630527,14.5000621 23.8949453,14.5000621 C22.8268379,14.5000621 21.9574453,15.3840539 21.9574453,16.4685083 L21.9574453,19.094949 L18.569666,19.094949 C19.0947285,17.8721767 19.3747578,16.5368058 19.3747578,15.1571953 C19.3747578,12.5268167 18.3662891,10.0545684 16.5366836,8.19533684 C16.2093672,7.86264778 15.8630996,7.5574008 15.4998184,7.27910367 L15.4998184,2.03040618 C15.4998184,0.944536659 14.6304258,0.0614677951 13.5623789,0.0614677951 L5.81243945,0.0614677951 C4.74342383,0.0614677951 3.87493945,0.944536659 3.87493945,2.03040618 L3.87493945,7.27910367 C3.51068945,7.5574008 3.16448242,7.86264778 2.83716602,8.19533684 C1.00756055,10.0545684 0,12.5268167 0,15.1571953 C0,18.1913294 1.34619922,21.0100492 3.69426758,22.8914929 C3.80779297,22.9828024 3.94874609,23.0328258 4.09442188,23.0328258 L7.1037832,23.0328258 L9.04122266,23.0328258 L9.04122266,23.6884823 C9.04122266,24.7739211 9.91061523,25.6574206 10.9787227,25.6574206 C11.2048047,25.6574206 11.4224102,25.6170574 11.6248789,25.5439606 L11.6248789,25.6574206 C11.6248789,26.7437824 12.4933633,27.626359 13.5623789,27.626359 C14.6304258,27.626359 15.4998184,26.7437824 15.4998184,25.6574206 L15.4998184,23.0328258 L21.9574453,23.0328258 L21.9574453,25.6574206 C21.9574453,26.7437824 22.8268379,27.626359 23.8949453,27.626359 C24.9630527,27.626359 25.8324453,26.7437824 25.8324453,25.6574206 L25.8324453,25.5439606 C26.0349141,25.6170574 26.2525195,25.6574206 26.478541,25.6574206 C27.5466484,25.6574206 28.416041,24.7739211 28.416041,23.6884823 L28.416041,23.0328258 L30.3534805,23.0328258 C30.7101621,23.0328258 30.9996367,22.7386541 30.9996367,22.3752004 L30.9996367,19.7506055 C30.9996367,19.3881362 30.7101621,19.094949 30.3534805,19.094949 Z M5.1662832,2.03040618 C5.1662832,1.66842916 5.45575781,1.37425746 5.81243945,1.37425746 L13.5623789,1.37425746 C13.9180918,1.37425746 14.2075664,1.66842916 14.2075664,2.03040618 L14.2075664,6.44458144 C13.9966211,6.33112137 13.7808926,6.22584469 13.5623789,6.12875142 L13.5623789,3.34319584 C13.5623789,2.61924181 12.9824609,2.03040618 12.2700664,2.03040618 L7.1037832,2.03040618 C6.39138867,2.03040618 5.81243945,2.61924181 5.81243945,3.34319584 L5.81243945,6.12875142 C5.59295703,6.22584469 5.37722852,6.33112137 5.1662832,6.44458144 L5.1662832,2.03040618 Z M12.2700664,3.34319584 L12.2700664,5.6639589 L12.2700664,5.6639589 C11.4394238,5.43180876 10.5719082,5.31207269 9.68737891,5.31207269 C8.80188086,5.31207269 7.93442578,5.43174723 7.1037832,5.6639589 L7.1037832,3.34319584 L12.2700664,3.34319584 Z M9.04122266,21.7195439 L7.74993945,21.7195439 C7.91456641,21.7195439 8.08010156,21.6561071 8.20591797,21.5272647 C8.45851953,21.2715489 8.45851953,20.8552415 8.20591797,20.5985411 C8.08010156,20.4716676 7.91547461,20.4072464 7.75084766,20.406262 L9.04122266,20.406262 L9.04122266,21.7195439 L9.04122266,21.7195439 Z M11.6248789,23.6884823 C11.6248789,24.049967 11.3344355,24.3441387 10.9787227,24.3441387 C10.622041,24.3441387 10.3325664,24.049967 10.3325664,23.6884823 L10.3325664,18.4374467 C10.3325664,18.0759619 10.622041,17.7817902 10.9787227,17.7817902 C11.3344355,17.7817902 11.6248789,18.0759619 11.6248789,18.4374467 L11.6248789,23.6884823 Z M14.2075664,25.6574206 C14.2075664,26.0189054 13.9180918,26.3130771 13.5623789,26.3130771 C13.2056973,26.3130771 12.9162227,26.0189054 12.9162227,25.6574206 L12.9162227,23.6884823 L12.9162227,18.4374467 L12.9162227,16.4685083 C12.9162227,16.1070235 13.2056973,15.8128518 13.5623789,15.8128518 C13.9180918,15.8128518 14.2075664,16.1070235 14.2075664,16.4685083 L14.2075664,25.6574206 Z M13.5623789,14.5000621 C12.4933633,14.5000621 11.6248789,15.3840539 11.6248789,16.4685083 L11.6248789,16.5819683 C11.4224102,16.5088715 11.2048047,16.4685083 10.9787227,16.4685083 C9.91061523,16.4685083 9.04122266,17.3529923 9.04122266,18.4374467 L9.04122266,19.094949 L7.1037832,19.094949 C6.74710156,19.094949 6.45762695,19.3881978 6.45762695,19.7506055 L6.45762695,21.7195439 L4.32244141,21.7195439 C2.39347852,20.0909242 1.29134375,17.7125697 1.29134375,15.1571953 C1.29134375,10.4521094 5.05748047,6.62437013 9.68737891,6.62437013 C14.3163691,6.62437013 18.0824453,10.4521094 18.0824453,15.1571953 C18.0824453,16.5531726 17.7531914,17.8971577 17.1393066,19.094949 L15.4998184,19.094949 L15.4998184,16.4685083 C15.4998184,15.3840539 14.6304258,14.5000621 13.5623789,14.5000621 Z M21.9574453,21.7195439 L15.4998184,21.7195439 L15.4998184,20.406262 L21.9574453,20.406262 L21.9574453,21.7195439 L21.9574453,21.7195439 Z M24.5411016,18.4374467 L24.5411016,23.6884823 L24.5411016,25.6574206 C24.5411016,26.0189054 24.251627,26.3130771 23.8949453,26.3130771 C23.5392324,26.3130771 23.2497578,26.0189054 23.2497578,25.6574206 L23.2497578,16.4685083 C23.2497578,16.1070235 23.5392324,15.8128518 23.8949453,15.8128518 C24.251627,15.8128518 24.5411016,16.1070235 24.5411016,16.4685083 L24.5411016,18.4374467 Z M27.1246973,23.6884823 C27.1246973,24.049967 26.8342539,24.3441387 26.478541,24.3441387 C26.1219199,24.3441387 25.8324453,24.049967 25.8324453,23.6884823 L25.8324453,18.4374467 C25.8324453,18.0759619 26.1219199,17.7817902 26.478541,17.7817902 C26.8342539,17.7817902 27.1246973,18.0759619 27.1246973,18.4374467 L27.1246973,23.6884823 Z M28.416041,21.7195439 L28.416041,20.406262 L29.706416,20.406262 C29.5417891,20.4072464 29.3762539,20.4716061 29.2504375,20.5985411 C28.9988652,20.8552415 28.9988652,21.2715489 29.2504375,21.5272647 C29.3772227,21.6561071 29.5417891,21.7195439 29.7073848,21.7195439 L28.416041,21.7195439 Z" id="Shape"></path>
                </g>
            </g>
        </g>
    </g>
</svg>
