<?xml version="1.0" encoding="UTF-8"?>
<svg width="22px" height="21px" viewBox="0 0 22 21" version="1.1" xmlns="http://www.w3.org/2000/svg" xmlns:xlink="http://www.w3.org/1999/xlink">
    <!-- Generator: Sketch 42 (36781) - http://www.bohemiancoding.com/sketch -->
    <title>Group</title>
    <desc>Created with Sketch.</desc>
    <defs></defs>
    <g id="Flying-With-Us" stroke="none" stroke-width="1" fill="none" fill-rule="evenodd">
        <g id="Flying-With-Us-f1" transform="translate(-458.000000, -824.000000)" fill-rule="nonzero" fill="#000000">
            <g id="flaticon1486090007-svg" transform="translate(458.000000, 824.000000)">
                <g id="Capa_1">
                    <g id="Group">
                        <path d="M18.3733791,10.290401 C18.0160588,10.290401 17.7393333,10.5697813 17.7393333,10.9339271 L17.7393333,19.7242135 L13.2431732,19.7242135 L13.2431732,16.1347813 C13.2431732,15.7980521 12.9664837,15.5036875 12.6319902,15.5036875 L9.38105882,15.5036875 C9.02345098,15.5036875 8.73543791,15.7980156 8.73543791,16.1347813 L8.73543791,19.7242135 L4.25060131,19.7242135 L4.25060131,11.225776 C4.25060131,10.8864948 3.9741634,10.6046719 3.61655556,10.6046719 C3.28231373,10.6046719 3.00562418,10.8864948 3.00562418,11.225776 L3.00562418,20.367776 C3.00562418,20.7070208 3.28231373,20.9888802 3.61655556,20.9888802 L9.38105882,20.9888802 C9.71530065,20.9888802 9.9919902,20.7070208 9.9919902,20.367776 L9.9919902,16.7783073 L11.9979085,16.7783073 L11.9979085,20.367776 C11.9979085,20.7070208 12.274598,20.9888802 12.6319902,20.9888802 L18.3733791,20.9888802 C18.7076569,20.9888802 18.9843105,20.7070208 18.9843105,20.367776 L18.9843105,10.9339635 C18.9843105,10.5698177 18.7076569,10.290401 18.3733791,10.290401 Z" id="Shape"></path>
                        <path d="M21.8203693,10.791776 L16.8170229,5.69570313 L16.8170229,2.22100521 C16.8170229,1.85930208 16.5287582,1.57995833 16.171402,1.57995833 C15.8369085,1.57995833 15.5602549,1.85933854 15.5602549,2.22100521 L15.5602549,4.42108333 L11.4330261,0.210510417 C11.3065621,0.0807916667 11.1563366,0.0109375 11.0065425,0.0109375 C10.833634,0.0109375 10.6836242,0.0832708333 10.5569444,0.210510417 L0.192715686,10.7219219 C-0.0559346405,10.973849 -0.0723986928,11.3779531 0.192715686,11.6099375 C0.423176471,11.8793281 0.820147059,11.8618646 1.06879739,11.6099375 L11.0065425,1.55498438 L20.9211732,11.7047292 C21.024451,11.8095104 21.1747484,11.869375 21.3707712,11.869375 C21.5436797,11.869375 21.6934379,11.8095104 21.8203693,11.7047292 C22.0510458,11.4702656 22.0682647,11.0462188 21.8203693,10.791776 Z" id="Shape"></path>
                    </g>
                </g>
            </g>
        </g>
    </g>
</svg>