<?xml version="1.0" encoding="UTF-8"?>
<svg width="10px" height="14px" viewBox="0 0 10 14" version="1.1" xmlns="http://www.w3.org/2000/svg" xmlns:xlink="http://www.w3.org/1999/xlink">
    <!-- Generator: Sketch 46.2 (44496) - http://www.bohemiancoding.com/sketch -->
    <title>flaticon1487780021-svg</title>
    <desc>Created with Sketch.</desc>
    <defs></defs>
    <g id="Mobile" stroke="none" stroke-width="1" fill="" fill-rule="evenodd">
        <g id="BWI-Mobile-Menu-Extended" transform="translate(-223.000000, -162.000000)" fill-rule="nonzero" fill="">
            <g id="Group-16" transform="translate(20.000000, 149.000000)">
                <g id="Group-14">
                    <g id="Group-22" transform="translate(193.000000, 0.000000)">
                        <g id="Group-10" transform="translate(10.000000, 9.000000)">
                            <g id="Group-3-Copy-7" transform="translate(0.000000, 4.000000)">
                                <g id="flaticon1487780021-svg">
                                    <g id="Capa_1">
                                        <path d="M8.38236842,1.40633962 L8.38236842,1.40633962 C6.51447368,-0.468603774 3.48578947,-0.468603774 1.61763158,1.40633962 L1.61763158,1.40633962 C-0.0655263158,3.09584906 -0.255,6.27701887 1.17342105,8.18867925 L5,13.7358491 L8.82657895,8.18867925 C10.255,6.27701887 10.0655263,3.09584906 8.38236842,1.40633962 Z M5.04657895,6.33962264 C4.17447368,6.33962264 3.46763158,5.63011321 3.46763158,4.75471698 C3.46763158,3.87932075 4.17447368,3.16981132 5.04657895,3.16981132 C5.91868421,3.16981132 6.62552632,3.87932075 6.62552632,4.75471698 C6.62552632,5.63011321 5.91868421,6.33962264 5.04657895,6.33962264 Z" id="Shape"></path>
                                    </g>
                                </g>
                            </g>
                        </g>
                    </g>
                </g>
            </g>
        </g>
    </g>
</svg>
