<?xml version="1.0" encoding="UTF-8"?>
<svg width="26px" height="28px" viewBox="0 0 26 28" version="1.1" xmlns="http://www.w3.org/2000/svg" xmlns:xlink="http://www.w3.org/1999/xlink">
    <!-- Generator: Sketch 42 (36781) - http://www.bohemiancoding.com/sketch -->
    <title>Fill 837</title>
    <desc>Created with Sketch.</desc>
    <defs></defs>
    <g id="Homepage" stroke="none" stroke-width="1" fill="" fill-rule="evenodd">
        <g id="BWI-HUD-Design-f1" transform="translate(-91.000000, -2816.000000)" fill="">
            <path d="M104.56,2837.48 L95.68,2826.2 L104.56,2826.2 L104.68,2826.2 L104.8,2826.2 L104.92,2826.2 L105.04,2826.2 L105.16,2826.2 L105.28,2826.2 L105.4,2826.32 L105.52,2826.32 L105.64,2826.32 L105.76,2826.32 L105.88,2826.44 L106,2826.44 L106.12,2826.56 L106.24,2826.68 L106.36,2826.68 L106.36,2826.8 L106.48,2826.8 L106.6,2826.92 L106.6,2827.04 L106.72,2827.04 L106.84,2827.16 L106.84,2827.28 L106.96,2827.4 L109.84,2831 L114.16,2827.76 L114.28,2827.64 L114.4,2827.64 L114.52,2827.52 L114.64,2827.52 L114.76,2827.52 L114.88,2827.4 L115,2827.4 L115.12,2827.52 L115.24,2827.52 L115.36,2827.52 L115.48,2827.52 L115.6,2827.52 L115.6,2827.64 L115.72,2827.64 L115.84,2827.64 L115.96,2827.76 L116.08,2827.88 L116.2,2828 L116.32,2828.12 L116.44,2828.24 L116.44,2828.36 L116.56,2828.36 L116.56,2828.48 L116.56,2828.6 L116.56,2828.72 L116.68,2828.84 L116.68,2828.96 L116.68,2829.08 L116.68,2829.2 L116.68,2829.32 L116.68,2829.44 L116.68,2829.56 L116.56,2829.68 L116.56,2829.8 L116.44,2829.92 L116.44,2830.04 L116.32,2830.16 L116.2,2830.28 L116.08,2830.4 L115.96,2830.52 L115.84,2830.52 L110.92,2834.48 L110.8,2834.6 L110.68,2834.6 L110.56,2834.72 L110.44,2834.84 L110.32,2834.84 L110.2,2834.84 L110.08,2834.96 L109.96,2834.96 L109.84,2834.96 L109.72,2834.96 L109.6,2834.96 L109.48,2835.08 L109.36,2834.96 L109.24,2834.96 L109.12,2834.96 L109,2834.96 L108.88,2834.96 L108.76,2834.84 L108.64,2834.72 L108.52,2834.72 L108.4,2834.6 L108.28,2834.48 L108.16,2834.36 L108.04,2834.36 L108.04,2834.24 L107.92,2834.12 L107.8,2834 L104.44,2829.56 L104.56,2837.48 Z M104.56,2843.72 L91.12,2843.72 L91,2828.48 L91,2828.36 L91,2828.24 L91,2828 L91,2827.88 L91.12,2827.76 L91.12,2827.64 L91.12,2827.52 L91.24,2827.4 L91.24,2827.28 L91.36,2827.16 L91.36,2827.04 L91.48,2827.04 L91.48,2826.92 L91.6,2826.8 L91.72,2826.8 L91.84,2826.68 L91.96,2826.56 L92.08,2826.56 L92.2,2826.44 L92.32,2826.44 L92.44,2826.32 L92.56,2826.32 L92.68,2826.32 L92.8,2826.32 L92.92,2826.2 L93.04,2826.2 L93.16,2826.2 L93.28,2826.2 L93.4,2826.2 L102.52,2837.72 L94.84,2837.72 L94.84,2839.64 L104.56,2839.64 L104.56,2843.72 Z M102.88,2818.64 L95.08,2818.64 L95.08,2816 L104.56,2816 L102.88,2818.64 Z M104.44,2821.16 L102.52,2821.16 L102.52,2821.4 L102.52,2821.52 L102.52,2821.64 L102.52,2821.76 L102.52,2822 L102.52,2822.12 L102.4,2822.24 L102.4,2822.36 L102.28,2822.6 L102.28,2822.72 L102.16,2822.96 L102.04,2823.08 L102.04,2823.2 L101.92,2823.44 L101.8,2823.56 L101.68,2823.68 L101.56,2823.8 L101.44,2823.92 L101.2,2824.04 L101.08,2824.16 L100.96,2824.28 L100.84,2824.4 L100.6,2824.52 L100.48,2824.64 L100.24,2824.76 L100.12,2824.76 L99.88,2824.88 L99.64,2824.88 L99.4,2825 L99.28,2825 L99.04,2825 L98.8,2825 L98.56,2825 L98.44,2825 L98.2,2825 L98.08,2825 L97.84,2824.88 L97.72,2824.88 L97.6,2824.76 L97.36,2824.76 L97.24,2824.64 L97.12,2824.64 L96.88,2824.52 L96.76,2824.4 L96.64,2824.28 L96.52,2824.16 L96.4,2824.04 L96.16,2823.92 L96.04,2823.8 L95.92,2823.68 L95.8,2823.56 L95.68,2823.44 L95.68,2823.2 L95.56,2823.08 L95.44,2822.96 L95.44,2822.72 L95.32,2822.6 L95.2,2822.48 L95.2,2822.24 L95.2,2822.12 L95.08,2821.88 L95.08,2821.76 L95.08,2821.64 L95.08,2821.4 L95.08,2819.36 L102.88,2819.36 L104.44,2821.16 Z" id="Fill-837"></path>
        </g>
    </g>
</svg>
