<?xml version="1.0" encoding="UTF-8"?>
<svg width="35px" height="35px" viewBox="0 0 35 35" version="1.1" xmlns="http://www.w3.org/2000/svg" xmlns:xlink="http://www.w3.org/1999/xlink">
    <!-- Generator: Sketch 42 (36781) - http://www.bohemiancoding.com/sketch -->
    <title>Capa_1</title>
    <desc>Created with Sketch.</desc>
    <defs></defs>
    <g id="Flying-With-Us" stroke="" stroke-width="1" fill="" fill-rule="evenodd">
        <g id="Flying-With-Us-f1" transform="translate(-91.000000, -3563.000000)" fill-rule="nonzero" fill="">
            <g id="flaticon1486014601-svg" transform="translate(91.000000, 3563.000000)">
                <g id="Capa_1">
                    <g id="Group">
                        <path d="M34.9539167,16.2901667 C34.363,7.61891667 27.3781667,0.6335 18.7063333,0.042 L18.0833333,0 L18.0833333,16.9131667 L34.9965,16.9131667 L34.9539167,16.2901667 Z M19.25,15.7465 L19.25,1.26058333 C20.678,1.41341667 22.0529167,1.75291667 23.3485,2.25341667 C23.345,2.27966667 23.3333333,2.303 23.3333333,2.32983333 C23.3333333,2.65183333 23.5946667,2.91316667 23.9166667,2.91316667 C24.0986667,2.91316667 24.255,2.8245 24.36175,2.69383333 C27.8506667,4.32191667 30.6745833,7.14583333 32.3026667,10.63475 C32.172,10.7420833 32.0833333,10.8978333 32.0833333,11.0798333 C32.0833333,11.4018333 32.3446667,11.6631667 32.6666667,11.6631667 C32.6935,11.6631667 32.7168333,11.6515 32.7430833,11.648 C33.2435833,12.9441667 33.5830833,14.3185 33.7359167,15.7465 L19.25,15.7465 Z" id="Shape"></path>
                        <path d="M29.9471667,29.8030833 L30.359,29.35625 C33.0528333,26.4349167 34.685,22.6514167 34.9539167,18.7028333 L34.9965,18.0798333 L18.2245,18.0798333 L29.9471667,29.8030833 Z M25.6666667,19.2465 L29.1666667,19.2465 L32.6666667,19.2465 L33.7359167,19.2465 C33.6046667,20.4668333 33.334,21.6655833 32.935,22.82 C32.8539167,22.7774167 32.76525,22.7465 32.66725,22.7465 C32.34525,22.7465 32.0839167,23.0078333 32.0839167,23.3298333 C32.0839167,23.6005 32.27175,23.8180833 32.522,23.884 C31.8721667,25.4094167 30.9930833,26.8391667 29.90575,28.1114167 L29.2010833,27.40675 C29.5061667,27.3880833 29.75,27.1401667 29.75,26.8298333 C29.75,26.5078333 29.4886667,26.2465 29.1666667,26.2465 C28.8563333,26.2465 28.6084167,26.4903333 28.5903333,26.796 L27.4510833,25.6561667 C27.7561667,25.6380833 28,25.3901667 28,25.0798333 C28,24.7578333 27.7386667,24.4965 27.4166667,24.4965 C27.1063333,24.4965 26.859,24.7403333 26.8403333,25.046 L25.7010833,23.90675 C26.0061667,23.8875 26.25,23.6401667 26.25,23.3298333 C26.25,23.0078333 25.9886667,22.7465 25.6666667,22.7465 C25.3563333,22.7465 25.109,22.9903333 25.0903333,23.296 L23.9510833,22.15675 C24.2561667,22.1375 24.5,21.8901667 24.5,21.5798333 C24.5,21.2578333 24.2386667,20.9965 23.9166667,20.9965 C23.6063333,20.9965 23.359,21.2403333 23.3403333,21.546 L22.2010833,20.40675 C22.5061667,20.3875 22.75,20.1401667 22.75,19.8298333 C22.75,19.5078333 22.4886667,19.2465 22.1666667,19.2465 C21.8563333,19.2465 21.609,19.4903333 21.5903333,19.796 L21.0414167,19.2465 L22.1666667,19.2465 L25.6666667,19.2465 Z" id="Shape"></path>
                        <path d="M16.9166667,0 L16.2936667,0.042 C7.15691667,0.665583333 0,8.33175 0,17.4965 C0,27.146 7.8505,34.9965 17.5,34.9965 C21.54075,34.9965 25.4840833,33.5819167 28.6049167,31.0146667 L29.1013333,30.6063333 L16.9166667,18.4216667 L16.9166667,0 Z M27.35775,30.513 C24.5315,32.6561667 21.056,33.8298333 17.5,33.8298333 C8.49391667,33.8298333 1.16666667,26.5025833 1.16666667,17.4965 C1.16666667,9.1525 7.52266667,2.13908333 15.75,1.26058333 L15.75,18.9046667 L27.35775,30.513 Z" id="Shape"></path>
                        <ellipse id="Oval" cx="20.4166667" cy="2.32983333" rx="0.583333333" ry="0.583333333"></ellipse>
                        <ellipse id="Oval" cx="20.4166667" cy="5.82983333" rx="0.583333333" ry="0.583333333"></ellipse>
                        <ellipse id="Oval" cx="22.1666667" cy="4.07983333" rx="0.583333333" ry="0.583333333"></ellipse>
                        <ellipse id="Oval" cx="25.6666667" cy="4.07983333" rx="0.583333333" ry="0.583333333"></ellipse>
                        <ellipse id="Oval" cx="23.9166667" cy="5.82983333" rx="0.583333333" ry="0.583333333"></ellipse>
                        <ellipse id="Oval" cx="27.4166667" cy="5.82983333" rx="0.583333333" ry="0.583333333"></ellipse>
                        <circle id="Oval" cx="29.1666667" cy="7.57983333" r="0.583333333"></circle>
                        <ellipse id="Oval" cx="22.1666667" cy="7.57983333" rx="0.583333333" ry="0.583333333"></ellipse>
                        <ellipse id="Oval" cx="25.6666667" cy="7.57983333" rx="0.583333333" ry="0.583333333"></ellipse>
                        <circle id="Oval" cx="29.1666667" cy="11.0798333" r="0.583333333"></circle>
                        <circle id="Oval" cx="30.9166667" cy="9.32983333" r="0.583333333"></circle>
                        <circle id="Oval" cx="30.9166667" cy="12.8298333" r="0.583333333"></circle>
                        <ellipse id="Oval" cx="20.4166667" cy="9.32983333" rx="0.583333333" ry="0.583333333"></ellipse>
                        <ellipse id="Oval" cx="20.4166667" cy="12.8298333" rx="0.583333333" ry="0.583333333"></ellipse>
                        <ellipse id="Oval" cx="22.1666667" cy="11.0798333" rx="0.583333333" ry="0.583333333"></ellipse>
                        <ellipse id="Oval" cx="25.6666667" cy="11.0798333" rx="0.583333333" ry="0.583333333"></ellipse>
                        <ellipse id="Oval" cx="23.9166667" cy="9.32983333" rx="0.583333333" ry="0.583333333"></ellipse>
                        <ellipse id="Oval" cx="27.4166667" cy="9.32983333" rx="0.583333333" ry="0.583333333"></ellipse>
                        <ellipse id="Oval" cx="23.9166667" cy="12.8298333" rx="0.583333333" ry="0.583333333"></ellipse>
                        <ellipse id="Oval" cx="27.4166667" cy="12.8298333" rx="0.583333333" ry="0.583333333"></ellipse>
                        <ellipse id="Oval" cx="32.6666667" cy="14.5798333" rx="0.583333333" ry="0.583333333"></ellipse>
                        <circle id="Oval" cx="29.1666667" cy="14.5798333" r="0.583333333"></circle>
                        <ellipse id="Oval" cx="22.1666667" cy="14.5798333" rx="0.583333333" ry="0.583333333"></ellipse>
                        <ellipse id="Oval" cx="25.6666667" cy="14.5798333" rx="0.583333333" ry="0.583333333"></ellipse>
                        <circle id="Oval" cx="29.1666667" cy="23.3298333" r="0.583333333"></circle>
                        <circle id="Oval" cx="30.9166667" cy="25.0798333" r="0.583333333"></circle>
                        <circle id="Oval" cx="30.9166667" cy="21.5798333" r="0.583333333"></circle>
                        <ellipse id="Oval" cx="27.4166667" cy="21.5798333" rx="0.583333333" ry="0.583333333"></ellipse>
                        <ellipse id="Oval" cx="25.6666667" cy="19.8298333" rx="0.583333333" ry="0.583333333"></ellipse>
                        <ellipse id="Oval" cx="32.6666667" cy="19.8298333" rx="0.583333333" ry="0.583333333"></ellipse>
                        <circle id="Oval" cx="29.1666667" cy="19.8298333" r="0.583333333"></circle>
                    </g>
                </g>
            </g>
        </g>
    </g>
</svg>
