<?xml version="1.0" encoding="UTF-8"?>
<svg width="27px" height="25px" viewBox="0 0 27 25" version="1.1" xmlns="http://www.w3.org/2000/svg" xmlns:xlink="http://www.w3.org/1999/xlink">
    <!-- Generator: Sketch 42 (36781) - http://www.bohemiancoding.com/sketch -->
    <title>flaticon1487711316-svg</title>
    <desc>Created with Sketch.</desc>
    <defs></defs>
    <g id="7.Wayfinding:-YM" stroke="none" stroke-width="1" fill="none" fill-rule="evenodd">
        <g id="Wayfinding-f2" transform="translate(-34.000000, -821.000000)" fill-rule="nonzero" fill="">
            <g id="flaticon1487711316-svg" transform="translate(34.000000, 821.000000)">
                <g id="Layer_1">
                    <path d="M7.73323242,4.79569328 L2.38823438,4.79569328 C1.09803516,4.79569328 0.0432421875,5.84107143 0.0367558594,7.12589286 L1.5815633e-13,14.3964811 C-0.0027421875,14.9430672 0.439910156,15.3883403 0.988611328,15.3911239 L0.993779297,15.3911239 C1.54026563,15.3911239 1.9845,14.9512605 1.98734766,14.4065126 L2.02405078,7.13592437 L2.02405078,7.13345588 C2.02531641,7.02552521 2.11391016,6.93881303 2.2222793,6.93944328 C2.33064844,6.94007353 2.4181875,7.02783613 2.4181875,7.13576681 L2.41860938,23.7721639 C2.41860938,24.4280462 2.95249219,24.9597689 3.61103906,24.9597689 C4.26958594,24.9597689 4.80346875,24.4280462 4.80346875,23.7721639 L4.80346875,14.2798319 L5.31831445,14.2798319 L5.31831445,23.7721639 C5.31831445,24.4280462 5.85214453,24.9597164 6.51069141,24.9597164 C7.16923828,24.9597164 7.70306836,24.4280462 7.70306836,23.7721639 C7.70306836,8.07394958 7.68197461,17.0512605 7.68144727,7.15026261 C7.68144727,7.03886555 7.76972461,6.94737395 7.88152148,6.94301471 C7.99331836,6.93865546 8.08866211,7.02289916 8.09731055,7.13392857 L8.09731055,7.13403361 L8.09056055,14.4005252 C8.0900332,14.9470588 8.53453125,15.3905987 9.08328516,15.3911239 L9.08423438,15.3911239 C9.63251367,15.3911239 10.0773809,14.9485819 10.0778555,14.402416 L10.0846055,7.13188025 C10.0847109,7.12983193 10.0847109,7.12794118 10.0846582,7.12589286 C10.0781719,5.84107143 9.02332617,4.79569328 7.73323242,4.79569328 Z" id="Shape"></path>
                    <ellipse id="Oval" cx="5.06070703" cy="2.09101891" rx="2.05911914" ry="2.05078782"></ellipse>
                    <path d="M26.9441543,12.8597164 C26.9259082,12.8079307 25.1189648,7.675 24.8346738,6.8509979 C24.3769922,5.52468487 23.6096543,4.85220588 22.5539648,4.85220588 L19.1181621,4.85220588 C18.0624199,4.85220588 17.295082,5.52473739 16.8374531,6.8509979 C16.5531621,7.67494748 14.7462188,12.8079832 14.7279727,12.8597164 C14.5477266,13.3716912 14.8183594,13.9323529 15.3325195,14.1118697 C15.8471016,14.2914916 16.4096191,14.021271 16.589707,13.5098739 C16.6480313,13.3442227 17.7351504,10.3358718 18.3416484,8.6049895 C18.2781563,9.12169118 18.4610391,8.04942227 16.9316895,15.9134979 C16.8659824,16.2512605 17.1273867,16.5636555 17.4696328,16.5636555 L18.2223105,16.5636555 L18.2223105,23.6896008 C18.2223105,24.3406513 18.7522383,24.8684874 19.4059863,24.8684874 C20.0597344,24.8684874 20.5896621,24.3407038 20.5896621,23.6896008 L20.5896621,16.5635504 L21.1007637,16.5635504 L21.1007637,23.6896008 C21.1007637,24.3406513 21.6306914,24.8684874 22.2844395,24.8684874 C22.9381875,24.8684874 23.4681152,24.3407038 23.4681152,23.6896008 L23.4681152,16.5635504 L24.220793,16.5635504 C24.5647266,16.5635504 24.8243906,16.2509454 24.7587363,15.9133929 C23.2433086,8.12090336 23.4103184,9.02589286 23.3586387,8.60488445 C23.9699883,10.3491597 25.0251504,13.3466912 25.0825781,13.5097689 C25.2629824,14.0221639 25.8261855,14.2911765 26.3397656,14.1117647 C26.8537676,13.9322479 27.1244004,13.3716912 26.9441543,12.8597164 Z" id="Shape"></path>
                    <ellipse id="Oval" cx="20.845002" cy="2.16727941" rx="2.04435352" ry="2.03608193"></ellipse>
                    <path d="M12.6436465,1.36160714 C12.2234062,1.36160714 11.8826895,1.70089286 11.8826895,2.11948529 L11.8826895,22.8800945 C11.8826895,23.2986345 12.2233535,23.6379202 12.6436465,23.6379202 C13.0639395,23.6379202 13.4046035,23.298687 13.4046035,22.8800945 L13.4046035,2.11948529 C13.4046035,1.70089286 13.0638867,1.36160714 12.6436465,1.36160714 Z" id="Shape"></path>
                </g>
            </g>
        </g>
    </g>
</svg>
