<?xml version="1.0" encoding="UTF-8"?>
<svg width="14px" height="14px" viewBox="0 0 14 14" version="1.1" xmlns="http://www.w3.org/2000/svg" xmlns:xlink="http://www.w3.org/1999/xlink">
    <!-- Generator: Sketch 42 (36781) - http://www.bohemiancoding.com/sketch -->
    <title>search</title>
    <desc>Created with Sketch.</desc>
    <defs></defs>
    <g id="Symbols" stroke="none" stroke-width="1" fill="none" fill-rule="evenodd">
        <g id="Header" transform="translate(-1382.000000, -45.000000)" fill="">
            <g id="Group-11">
                <g>
                    <g>
                        <g id="Group-7" transform="translate(1368.000000, 31.000000)">
                            <path d="M22.75,14 C25.6484375,14 28,16.3515625 28,19.25 C28,22.1484375 25.6484375,24.5 22.75,24.5 C21.7109375,24.5 20.7539062,24.2060547 19.9472656,23.6865234 L15.9960938,27.6582031 C15.7636719,27.8837891 15.4560547,28 15.1689453,28 C14.8613281,28 14.5673828,27.8837891 14.3417969,27.6582031 C13.8837891,27.2070312 13.8837891,26.4619141 14.3417969,26.0039062 L18.3134766,22.0527344 C17.7939453,21.2460938 17.5,20.2890625 17.5,19.25 C17.5,16.3515625 19.8515625,14 22.75,14 Z M22.75,22.75 C24.6777344,22.75 26.25,21.1777344 26.25,19.25 C26.25,17.3222656 24.6777344,15.75 22.75,15.75 C20.8222656,15.75 19.25,17.3222656 19.25,19.25 C19.25,21.1777344 20.8222656,22.75 22.75,22.75 Z" id="search"></path>
                        </g>
                    </g>
                </g>
            </g>
        </g>
    </g>
</svg>
