<?xml version="1.0" encoding="UTF-8"?>
<svg width="29px" height="22px" viewBox="0 0 29 22" version="1.1" xmlns="http://www.w3.org/2000/svg" xmlns:xlink="http://www.w3.org/1999/xlink">
    <!-- Generator: Sketch 42 (36781) - http://www.bohemiancoding.com/sketch -->
    <title>Shape</title>
    <desc>Created with Sketch.</desc>
    <defs></defs>
    <g id="7.Wayfinding:-YM" stroke="none" stroke-width="1" fill="none" fill-rule="evenodd">
        <g id="Wayfinding-f2" transform="translate(-32.000000, -717.000000)" fill-rule="nonzero" fill="">
            <g id="flaticon1487710791-svg" transform="translate(32.000000, 717.000000)">
                <g id="Layer_1">
                    <path d="M28.1364248,7.08405882 C27.5580163,6.50682353 26.8915467,6.35623529 26.5708963,6.28717647 C26.1811057,6.19935294 25.7723943,6.18052941 25.3762967,6.23070588 C23.7730447,2.51617647 19.4851118,0.000117647059 14.4867378,0.000117647059 C9.77129065,0.000117647059 5.60283537,2.535 3.90527439,6.28717647 C3.40856098,6.18052941 2.89929268,6.18052941 2.40263821,6.29347059 C2.0819878,6.36247059 1.41551829,6.51305882 0.837109756,7.09035294 C0.730245935,7.197 -0.181426829,8.15076471 0.0323597561,9.51229412 C0.239839431,10.8612941 1.40927033,11.7021176 2.40894512,11.9154118 C2.75476423,11.9907059 3.1068313,11.9844118 3.45265041,11.9091176 C3.48406707,11.9028235 3.51554268,11.8965882 3.54065244,11.8902941 C3.64126829,12.0597059 3.9619187,12.9569412 3.18227846,16.8220588 C3.16341667,16.9224706 3.16972358,17.0291176 3.20114024,17.1295294 C3.66013008,18.5977647 4.4019878,19.3130588 5.61544919,19.4511176 C5.64061789,19.4511176 5.65947967,19.4574118 5.68458943,19.4574118 L5.68458943,21.3397647 C5.68458943,21.6848824 5.96751626,21.9672353 6.31333537,21.9672353 C6.65915447,21.9672353 6.9420813,21.6848824 6.9420813,21.3397647 L6.9420813,19.4574118 L22.0315122,19.4574118 L22.0315122,21.3397647 C22.0315122,21.6848824 22.314439,21.9672353 22.6602581,21.9672353 C23.0060772,21.9672353 23.2890041,21.6848824 23.2890041,21.3397647 L23.2890041,19.4574118 C23.3141728,19.4574118 23.3330346,19.4574118 23.3581443,19.4511176 C24.5716057,19.3130588 25.3197703,18.5977647 25.7724533,17.1295294 C25.8038699,17.0291176 25.8101768,16.9224706 25.791315,16.8220588 C25.0116748,12.9507059 25.3323252,12.0534118 25.4329411,11.8902941 C25.4581098,11.8965882 25.4895264,11.9028235 25.5209431,11.9091176 C25.8604553,11.9844118 26.2188293,11.9907059 26.5583415,11.9154118 C27.5580163,11.7020588 28.7274472,10.8612941 28.9349268,9.51229412 C29.1486545,8.14447059 28.2370407,7.19070588 28.1364248,7.08405882 Z M14.4867378,1.25505882 C18.925565,1.25505882 22.7293394,3.41347059 24.1753902,6.61976471 C23.9616037,6.739 23.754124,6.87076471 23.5592581,7.01505882 C23.0122663,7.39782353 22.5281667,7.87464706 22.144624,8.42682353 C21.8491423,8.85976471 21.6164939,9.33035294 21.4404309,9.82605882 C20.9625793,11.1437059 20.8242988,12.7123529 20.7865752,13.8041176 L8.18690041,13.8041176 C8.14917683,12.7123529 8.00458943,11.1437059 7.53304472,9.82605882 C7.35698171,9.33035294 7.12439228,8.85976471 6.82885163,8.42682353 C6.44530894,7.88094118 5.96751626,7.39782353 5.41421748,7.01505882 C5.30104675,6.93347059 5.18156911,6.85194118 5.06215041,6.77664706 C6.56484553,3.48247059 10.2806179,1.25505882 14.4867378,1.25505882 Z M27.7026037,9.31776471 C27.576878,10.1271765 26.7972378,10.5789412 26.3068313,10.6793529 C26.1245203,10.717 25.9421504,10.7107059 25.7661463,10.6668235 C25.5523598,10.6228824 25.256878,10.5664118 24.9236728,10.7232941 C23.8737195,11.1938824 23.7605488,12.9884118 24.5338821,16.9037059 C24.1377846,18.0644706 23.6410711,18.1523529 23.2638354,18.1962353 L5.71606504,18.1962353 C5.33882927,18.1522941 4.83586789,18.0644706 4.44601829,16.9037059 C5.21935163,12.9884118 5.10618089,11.1938824 4.05622764,10.7232941 C3.72302236,10.5727059 3.42748171,10.6291765 3.21375407,10.6668235 C3.03769106,10.7107647 2.84907317,10.717 2.67306911,10.6793529 C2.1826626,10.5727059 1.40302236,10.1271765 1.27729675,9.31776471 C1.15781911,8.55852941 1.72367276,7.975 1.72367276,7.96876471 C2.04432317,7.64876471 2.43411382,7.56094118 2.67306911,7.51070588 C2.99371951,7.43541176 3.33323171,7.43541176 3.65388211,7.51070588 C4.06884146,7.60482353 4.32659959,7.78676471 4.69128049,8.03776471 C5.11879472,8.33894118 5.49603049,8.70911765 5.79157114,9.13582353 C6.02421951,9.48094118 6.20653049,9.85741176 6.34486992,10.2464118 C6.85413821,11.6707059 6.93589228,13.4777647 6.93589228,14.4252353 C6.93589228,14.7703529 7.21881911,15.0527059 7.56463821,15.0527059 L21.3966362,15.0527059 C21.7424553,15.0527059 22.0253821,14.7703529 22.0253821,14.4252353 C22.0253821,13.4715294 22.1071362,11.6644706 22.6164045,10.2401176 C22.7547439,9.85111765 22.9370549,9.47464706 23.1697033,9.12952941 C23.4714919,8.70288235 23.8424207,8.32641176 24.2699939,8.03147059 C24.6283679,7.78047059 24.8924329,7.59852941 25.3010854,7.50441176 C25.6280427,7.43541176 25.961248,7.43541176 26.2882053,7.50441176 C26.5271016,7.55458824 26.9169512,7.64247059 27.2376016,7.96247059 C27.2499207,7.97505882 27.8157744,8.55858824 27.7026037,9.31776471 Z" id="Shape"></path>
                </g>
            </g>
        </g>
    </g>
</svg>
