<?xml version="1.0" encoding="UTF-8"?>
<svg width="17px" height="12px" viewBox="0 0 17 12" version="1.1" xmlns="http://www.w3.org/2000/svg" xmlns:xlink="http://www.w3.org/1999/xlink">
    <!-- Generator: Sketch 46.2 (44496) - http://www.bohemiancoding.com/sketch -->
    <title>flaticon1485980566-svg</title>
    <desc>Created with Sketch.</desc>
    <defs></defs>
    <g id="Mobile" stroke="none" stroke-width="1" fill="" fill-rule="evenodd">
        <g id="BWI-Mobile-Menu-Extended" transform="translate(-30.000000, -163.000000)" fill-rule="nonzero" fill="">
            <g id="Group-16" transform="translate(20.000000, 149.000000)">
                <g id="Group-14">
                    <g id="Group-11" transform="translate(10.000000, 9.000000)">
                        <g id="flaticon1485980566-svg" transform="translate(0.000000, 5.000000)">
                            <g id="Capa_1">
                                <path d="M16.503175,3.83172414 C16.422,3.73531034 16.300875,3.67903448 16.1738,3.67903448 L14.558375,3.67903448 C14.159725,2.65531034 13.640375,1.65227586 13.05005,1.27365517 C11.007925,-0.0343448276 5.5913,-0.0343448276 3.549175,1.27365517 C2.958425,1.65268966 2.4412,2.65696552 2.040425,3.67903448 L0.425,3.67903448 C0.29665,3.67903448 0.17595,3.73531034 0.095625,3.83172414 C0.014875,3.92772414 -0.017425,4.05475862 0.008925,4.17682759 L0.2482,5.30565517 C0.289,5.49806897 0.46325,5.63544828 0.664275,5.63544828 L1.142825,5.63544828 C0.68085,6.15434483 0.456875,6.80772414 0.4539,7.46151724 C0.450925,8.26924138 0.76585,8.99917241 1.341725,9.51558621 C1.3481,9.52096552 1.354475,9.52468966 1.360425,9.53006897 L1.360425,11.1095172 C1.360425,11.4517241 1.646025,11.7302069 1.997925,11.7302069 L3.487975,11.7302069 C3.839875,11.7302069 4.125475,11.4517241 4.125475,11.1095172 L4.125475,10.4747586 L12.4729,10.4747586 L12.4729,11.1095172 C12.4729,11.4517241 12.7585,11.7302069 13.1104,11.7302069 L14.60045,11.7302069 C14.9515,11.7302069 15.23795,11.4517241 15.23795,11.1095172 L15.23795,9.56110345 C15.8491,9.01613793 16.141075,8.26634483 16.1449,7.5177931 C16.14745,6.84165517 15.913275,6.16427586 15.4241,5.63462069 L15.934525,5.63462069 C16.1364,5.63462069 16.31065,5.49724138 16.3506,5.30441379 L16.5903,4.176 C16.61495,4.05475862 16.583925,3.92855172 16.503175,3.83172414 Z M4.24915,2.3102069 C5.8769,1.26703448 10.721475,1.26703448 12.348375,2.3102069 C12.664575,2.51213793 13.0713,3.32855172 13.444025,4.32827586 L3.15435,4.32827586 C3.526225,3.32896552 3.93295,2.51296552 4.24915,2.3102069 Z M2.3426,7.61710345 C2.3426,6.94262069 2.90445,6.39641379 3.596775,6.39641379 C4.28995,6.39641379 4.85095,6.94262069 4.85095,7.61710345 C4.85095,8.29158621 4.28995,8.8382069 3.596775,8.8382069 C2.90445,8.8382069 2.3426,8.29158621 2.3426,7.61710345 Z M13.018175,8.8382069 C12.32585,8.8382069 11.764,8.29158621 11.764,7.61710345 C11.764,6.94262069 12.32585,6.39641379 13.018175,6.39641379 C13.71135,6.39641379 14.27235,6.94262069 14.27235,7.61710345 C14.27235,8.29158621 13.7105,8.8382069 13.018175,8.8382069 Z" id="Shape"></path>
                            </g>
                        </g>
                    </g>
                </g>
            </g>
        </g>
    </g>
</svg>
