<?xml version="1.0" encoding="UTF-8"?>
<svg width="36px" height="32px" viewBox="0 0 36 32" version="1.1" xmlns="http://www.w3.org/2000/svg" xmlns:xlink="http://www.w3.org/1999/xlink">
    <!-- Generator: Sketch 42 (36781) - http://www.bohemiancoding.com/sketch -->
    <title>XMLID_236_</title>
    <desc>Created with Sketch.</desc>
    <defs></defs>
    <g id="4.At-BWI" stroke="none" stroke-width="1" fill="" fill-rule="evenodd">
        <g id="At-BWI-f1" transform="translate(-184.000000, -2118.000000)" fill="">
            <g id="Group-17" transform="translate(183.000000, 2073.000000)">
                <g id="Group-16" transform="translate(1.000000, 45.000000)">
                    <g id="tourist">
                        <g id="XMLID_236_">
                            <ellipse id="XMLID_518_" transform="translate(8.385794, 2.764286) scale(-1, 1) translate(-8.385794, -2.764286) " cx="8.38579372" cy="2.7642859" rx="3.0646674" ry="2.76264487"></ellipse>
                            <path d="M34.7163047,14.9762152 L30.329624,13.213244 L30.329624,13.213244 L29.4511029,8.51922384 L31.3296361,12.2877153 L31.6783361,8.63130825 C31.776283,7.60437646 30.9321549,6.70034912 29.7930321,6.6120549 L26.1146772,6.32698874 C24.9823252,6.23924939 23.985083,6.99061722 23.8769799,8.00818552 L20.5197029,10.6165756 C20.4106765,10.7012632 20.3168844,10.8007936 20.2418662,10.9114908 L17.0473981,15.623683 C16.6482242,16.212473 16.8541973,16.9815274 17.5073559,17.3413627 C17.5823741,17.3827008 17.6602392,17.4162013 17.7394892,17.4433207 L15.9463614,19.059736 L14.3316616,17.6040953 C13.815844,17.1391114 12.979487,17.1391114 12.4636694,17.6040953 L11.8474428,18.1595928 C11.3316252,18.6245766 11.3316252,19.3785108 11.8474428,19.8434946 L13.4621427,21.2991354 L12.6497915,22.0314294 L9.59174113,19.2747495 C9.07592355,18.8097656 8.23956657,18.8097656 7.72374899,19.2747495 L0.966954098,25.3656632 C0.451136513,25.830647 0.451136513,26.5845811 0.966954098,27.049565 L2.99760113,28.8801614 C2.89019043,29.1210458 2.83048362,29.3836396 2.83048362,29.658718 C2.83048362,30.8135481 3.87273676,31.753018 5.15374019,31.753018 C6.43474361,31.753018 7.47699675,30.8134788 7.47699675,29.658718 C7.47699675,29.3885641 7.41936737,29.1304786 7.31557293,28.8932009 L19.0163378,18.3119749 C19.325259,18.0334978 19.3255668,17.5821778 19.017415,17.3032846 C19.1723757,17.2069447 19.3083318,17.0809884 19.4128187,16.9268724 L22.4939517,12.381697 L23.5365895,11.5716513 C23.5365895,11.5716513 23.0612433,17.6328793 23.0664753,17.6627731 L24.0612554,23.3743616 L21.4059951,29.7207251 C21.0813009,30.4968542 21.5159449,31.3633582 22.3770002,31.6561232 C23.2383632,31.9488883 24.1993659,31.5566622 24.5239832,30.7808106 L27.3345888,24.0633062 C27.4363828,23.8200636 27.4663901,23.557123 27.42161,23.300286 L26.470302,17.8382518 L27.3385129,17.9055302 L30.0130086,23.240429 L31.8650738,30.5838999 C32.0690464,31.3926278 32.9617248,31.8994352 33.8592504,31.7154947 C34.7565453,31.5315542 35.3185279,30.7267798 35.1145553,29.9179132 L33.2252503,22.426846 C33.2004751,22.3287028 33.164851,22.2330565 33.1188398,22.1412944 L30.8262061,17.5680285 L30.8352852,17.4730064 L27.9760523,16.3237944 C26.8034599,15.8524989 26.3441945,14.7890842 26.3848197,14.2151371 L26.7449841,9.10794443 L27.7150659,14.2913629 L27.7150659,14.2913629 C27.7924693,14.7047435 28.0941579,15.0556315 28.5188765,15.2263244 L33.5855686,17.2625707 C34.2981263,17.5490241 35.1133242,17.2475198 35.4190908,16.6290441 C35.7313974,15.9975289 35.4166287,15.2576747 34.7163047,14.9762152 Z M5.15374019,30.3250515 C4.74610272,30.3250515 4.41456066,30.0261135 4.41456066,29.6586487 C4.41456066,29.2912532 4.74610272,28.9923152 5.15374019,28.9923152 C5.56137765,28.9923152 5.89291971,29.2912532 5.89291971,29.6586487 C5.89299665,30.0261135 5.56137765,30.3250515 5.15374019,30.3250515 Z" id="XMLID_1413_" transform="translate(18.059932, 19.036614) scale(-1, 1) translate(-18.059932, -19.036614) "></path>
                        </g>
                    </g>
                </g>
            </g>
        </g>
    </g>
</svg>
