<?xml version="1.0" encoding="UTF-8"?>
<svg width="21px" height="18px" viewBox="0 0 21 18" version="1.1" xmlns="http://www.w3.org/2000/svg" xmlns:xlink="http://www.w3.org/1999/xlink">
    <!-- Generator: Sketch 42 (36781) - http://www.bohemiancoding.com/sketch -->
    <title>twitter</title>
    <desc>Created with Sketch.</desc>
    <defs></defs>
    <g id="Symbols" stroke="none" stroke-width="1" fill="none" fill-rule="evenodd">
        <g id="Footer" transform="translate(-1102.000000, -236.000000)" fill="">
            <g id="twitter">
                <path d="M1123,238.763184 C1122.2207,239.111816 1121.40039,239.347656 1120.51855,239.450195 C1121.4209,238.916992 1122.09766,238.065918 1122.41553,237.061035 C1121.59521,237.553223 1120.66211,237.912109 1119.69824,238.106934 C1118.88818,237.286621 1117.77051,236.753418 1116.52979,236.753418 C1114.15088,236.753418 1112.2334,238.670898 1112.2334,241.049805 C1112.2334,241.388184 1112.25391,241.736816 1112.32568,242.044434 C1108.75732,241.849609 1105.59912,240.229492 1103.45605,237.625 C1103.09717,238.260742 1102.87158,238.916992 1102.87158,239.716797 C1102.87158,241.193359 1103.63037,242.505859 1104.79932,243.285156 C1104.0918,243.264648 1103.43555,243.069824 1102.85107,242.751953 L1102.85107,242.803223 C1102.85107,244.89502 1104.33789,246.638184 1106.30664,247.027832 C1105.9375,247.130371 1105.54785,247.181641 1105.1582,247.181641 C1104.8916,247.181641 1104.625,247.150879 1104.3584,247.099609 C1104.8916,248.801758 1106.50146,250.073242 1108.36768,250.09375 C1106.91162,251.262695 1105.03516,252.134277 1103.02539,252.134277 C1102.67676,252.134277 1102.33838,252.11377 1102,252.0625 C1103.89697,253.282715 1106.18359,253.815918 1108.61377,253.815918 C1116.52979,253.815918 1120.85693,247.253418 1120.85693,241.5625 L1120.85693,240.998535 C1121.6875,240.393555 1122.41553,239.64502 1123,238.763184 Z"></path>
            </g>
        </g>
    </g>
</svg>
