<?xml version="1.0" encoding="UTF-8"?>
<svg width="22px" height="26px" viewBox="0 0 22 26" version="1.1" xmlns="http://www.w3.org/2000/svg" xmlns:xlink="http://www.w3.org/1999/xlink">
    <!-- Generator: Sketch 42 (36781) - http://www.bohemiancoding.com/sketch -->
    <title>flaticon1487710356-svg</title>
    <desc>Created with Sketch.</desc>
    <defs></defs>
    <g id="7.Wayfinding:-YM" stroke="none" stroke-width="1" fill="none" fill-rule="evenodd">
        <g id="Wayfinding-f2" transform="translate(-37.000000, -265.000000)" fill-rule="nonzero">
            <g id="Group-6" transform="translate(0.000000, 255.000000)">
                <g id="flaticon1487710356-svg" transform="translate(37.000000, 10.000000)">
                    <g id="Layer_1">
                        <path d="M4.62015278,0 C1.1620787,0 0.043337963,4.93827344 0.043337963,7.32976563 C0.043337963,9.26823828 1.28297685,10.9940898 3.09456481,11.6326133 L3.09456481,24.4786953 C3.09456481,25.3175508 3.77890741,25.9999492 4.62015278,25.9999492 C5.46139815,25.9999492 6.14574074,25.3175508 6.14574074,24.4786953 L6.14574074,11.6326133 C7.9573287,10.9941406 9.19696759,9.26828906 9.19696759,7.32976563 C9.19701852,4.93827344 8.07827778,0 4.62015278,0 Z M5.61896296,10.9284805 C5.43853241,10.9781445 5.31361111,11.1418125 5.31361111,11.3283828 L5.31361111,24.4787461 C5.31361111,24.8600625 5.00255556,25.1702344 4.62015278,25.1702344 C4.23775,25.1702344 3.92669444,24.8600625 3.92669444,24.4787461 L3.92669444,11.3283828 C3.92669444,11.1417617 3.80177315,10.9780937 3.62134259,10.9284805 C2.00464815,10.483332 0.875467593,9.00346484 0.875467593,7.32981641 C0.875467593,5.29353906 1.81841204,0.829816406 4.62015278,0.829816406 C7.42189352,0.829816406 8.36483796,5.29353906 8.36483796,7.32981641 C8.36483796,9.00346484 7.23565741,10.483332 5.61896296,10.9284805 Z" id="Shape" fill=""></path>
                        <path d="M15.9929306,0 C15.7631528,0 15.5768657,0.185757812 15.5768657,0.414882812 L15.5768657,6.08511719 L14.5598241,6.08511719 L14.5598241,0.414882812 C14.5598241,0.185757813 14.373537,0 14.1437593,0 C13.9139815,0 13.7276944,0.185757812 13.7276944,0.414882812 L13.7276944,6.08511719 L12.7106528,6.08511719 L12.7106528,0.414882812 C12.7106528,0.185757813 12.5243657,0 12.294588,0 C12.0648102,0 11.8785231,0.185757812 11.8785231,0.414882812 L11.8785231,6.08511719 L10.8614306,6.08511719 L10.8614306,0.414882812 C10.8614306,0.185757813 10.6751435,0 10.4453657,0 C10.215588,0 10.0293009,0.185757812 10.0293009,0.414882812 L10.0293009,8.71274219 C10.0293009,9.88416406 10.6742269,10.9526016 11.6936111,11.5062695 L11.6936111,24.4786953 C11.6936111,25.3175508 12.3779537,25.9999492 13.2191991,25.9999492 C14.0604444,25.9999492 14.744787,25.3175508 14.744787,24.4786953 L14.744787,11.5062695 C15.7641713,10.9526523 16.4090972,9.88421484 16.4090972,8.71274219 L16.4090972,0.414882812 C16.4089954,0.185757812 16.2227083,0 15.9929306,0 Z M15.5768148,8.71274219 C15.5768148,9.64726953 15.0214167,10.4931328 14.1619907,10.8676953 C14.0104861,10.9337617 13.9125046,11.0830078 13.9125046,11.2478945 L13.9125046,24.4786953 C13.9125046,24.8600117 13.6014491,25.1701836 13.2190463,25.1701836 C12.8366435,25.1701836 12.525588,24.8600117 12.525588,24.4786953 L12.525588,11.2479453 C12.525588,11.0830586 12.4276574,10.9338125 12.2761019,10.8677461 C11.4165741,10.4931836 10.8612778,9.64726953 10.8612778,8.71279297 L10.8612778,6.91488281 L15.5768148,6.91488281 L15.5768148,8.71274219 L15.5768148,8.71274219 Z" id="Shape" fill=""></path>
                        <path d="M19.5988935,0 C18.2988056,0 17.241125,1.05467578 17.241125,2.35107031 L17.241125,12.0319063 C17.241125,13.033668 17.9570417,13.8719141 18.9054352,14.0647305 L18.9054352,24.4787461 C18.9054352,25.3176016 19.5897778,26 20.4310231,26 C21.2722685,26 21.9566111,25.3176016 21.9566111,24.4787461 L21.9566111,2.35107031 C21.956662,1.05467578 20.8989815,0 19.5988935,0 Z M21.1245324,24.4787461 C21.1245324,24.8600625 20.8134769,25.1702344 20.4310741,25.1702344 C20.0486713,25.1702344 19.7376157,24.8600625 19.7376157,24.4787461 L19.7376157,14.1063711 L19.876287,14.1063711 C20.1060648,14.1063711 20.2923519,13.9206133 20.2923519,13.6914883 C20.2923519,13.4623633 20.1060648,13.2766055 19.876287,13.2766055 L19.3215,13.2766055 C18.6331852,13.2766055 18.0732546,12.7182656 18.0732546,12.0319062 L18.0732546,2.35107031 C18.0732546,1.51221484 18.7575972,0.829816406 19.5988426,0.829816406 C20.440088,0.829816406 21.1244306,1.51221484 21.1244306,2.35107031 L21.1244306,24.4787461 L21.1245324,24.4787461 Z" id="Shape" fill=""></path>
                    </g>
                </g>
            </g>
        </g>
    </g>
</svg>
