<svg width="175" height="52" xmlns="http://www.w3.org/2000/svg"><g fill="none" fill-rule="evenodd"><path fill="#f71a1e" d="M.431.631h49.911V50.54H.431z"/><path fill="#fff" d="M49.143 48.34l-.123-.63H1.857l-.3.63zm-.428-2.21l-.163-.81H3.037l-.397.81zm-.435-2.243l-.198-.99H4.217l-.495.99zm-.438-2.194l-.227-1.173H5.373l-.571 1.173zm-.417-2.213l-.27-1.354H6.54l-.66 1.354zm-.444-2.224l-.302-1.536H7.709l-.745 1.536zm-.422-2.2l-.33-1.716H8.881l-.851 1.716zm-.431-2.229l-.363-1.895H10.056l-.93 1.895zm-.435-2.219s-.276-1.436-.475-2.453c-.197-1.018-.483-1.976-1.495-2.702-1.01-.726-8.019-5.443-8.019-5.443s-1.288-.57-1.268-2.613c.022-2.047 0-14.265 0-14.265s-6.644 14.004-7.002 14.68c-.355.678-.634 1.496-2.468 2.334-1.44.659-10.74 4.882-11.434 5.226-.704.349-1.441 1.372-2.11 2.744-.182.377-1.219 2.493-1.219 2.493l35.49-.001z"/><path fill="#f71a1e" d="M24.128 50.51H26l3.26-22.72z"/><path fill="#000" d="M91.844.46v49.943h11.403l16.117-23.129v23.15l12.32-.021L163.739.324h-14.074L132.186 27.71V.46h-9.697l-17.48 26.537V.459z"/><path fill="#000" d="M162.109.323h12.571v49.942h-12.571zM53.434.378h15.45c8.471 0 12.404.813 16.061 4.88 2.238 2.305 2.982 5.353 2.982 8.267 0 3.864-1.76 7.794-5.829 10.098 8.064 2.847 8.27 9.556 8.27 11.656 0 4-1.559 8.405-4.607 10.912-4.61 3.862-7.93 4.337-16.403 4.337H53.434V.378zm12.264 19.043h4.54c1.764 0 5.424 0 5.424-4 0-3.794-3.459-3.794-5.424-3.794h-4.54v7.794zm0 19.857h6.033c1.626 0 6.371 0 6.371-4.813 0-4.336-4.339-4.336-6.371-4.336h-6.033v9.15zm87.451 8.296c0-1.756 1.324-3.079 3.017-3.079 1.678 0 3 1.323 3 3.08 0 1.781-1.322 3.093-3 3.093-1.693 0-3.017-1.312-3.017-3.094zm3.017 3.713c2.022 0 3.745-1.568 3.745-3.713 0-2.128-1.722-3.696-3.745-3.696-2.036 0-3.762 1.568-3.762 3.696 0 2.145 1.726 3.713 3.762 3.713zm-.78-3.42h.74l1.13 1.853h.725l-1.213-1.882c.626-.077 1.105-.411 1.105-1.176 0-.843-.498-1.215-1.507-1.215h-1.628v4.273h.647v-1.852zm0-.55v-1.322h.88c.45 0 .933.097.933.628 0 .655-.491.693-1.041.693h-.773z"/></g></svg>