<svg width="323" height="52" viewBox="0 0 323 52" xmlns="http://www.w3.org/2000/svg"><title>Group 3</title><g fill="none" fill-rule="evenodd"><path d="M185.883 41.29h.957l3.685 8.566h-.941l-1.238-2.882h-3.982l-1.25 2.882h-.893l3.662-8.566zm-1.195 4.908h3.325l-1.646-3.934-1.679 3.934zm22.122-4.908h.856v8.567h-.856zm17.826 0h2.175c1.147 0 1.715.139 2.109.324.961.452 1.528 1.39 1.528 2.443 0 1.24-.893 2.502-2.548 2.605l2.421 3.195h-1.077l-2.907-3.88c1.092 0 1.46-.01 1.845-.127.936-.265 1.41-1.054 1.41-1.818 0-.67-.384-1.364-.939-1.642-.51-.265-.95-.324-1.666-.324h-1.495v7.791h-.856V41.29zm22.364 0h2.385c1.18 0 1.735.184 2.212.497.637.43 1.065 1.158 1.065 2.064 0 .9-.43 1.63-1.065 2.06-.477.31-1.031.497-2.212.497h-1.527v3.448h-.859V41.29zm.858 4.34h1.24c.914 0 1.226 0 1.71-.218.673-.314.997-.915.997-1.561 0-.651-.324-1.253-.996-1.566-.485-.219-.796-.219-1.71-.219h-1.241v3.564zm25.428-4.49c2.411 0 4.538 1.911 4.538 4.432 0 2.526-2.137 4.435-4.538 4.435-2.43 0-4.524-1.98-4.524-4.387.001-2.698 2.246-4.48 4.524-4.48m0 8.091c1.981 0 3.685-1.609 3.685-3.646 0-2.003-1.658-3.67-3.685-3.67a3.693 3.693 0 0 0-3.667 3.705c0 1.956 1.676 3.611 3.667 3.611m21.129-7.941h2.175c1.15 0 1.713.139 2.109.324.959.452 1.525 1.39 1.525 2.443 0 1.24-.89 2.502-2.544 2.605l2.418 3.195h-1.075l-2.904-3.88c1.086 0 1.46-.01 1.84-.127.938-.265 1.41-1.054 1.41-1.818 0-.67-.383-1.364-.937-1.642-.508-.265-.951-.324-1.666-.324h-1.497v7.791h-.854V41.29zm23.6.776h-1.969v-.776h4.78v.776h-1.951v7.791h-.86z" fill="#000"/><path fill="#f71a1e" d="M.431.631h49.911V50.54H.431z"/><path fill="#fff" d="M49.143 48.34l-.123-.63H1.857l-.3.63zm-.428-2.21l-.163-.81H3.037l-.397.81zm-.435-2.243l-.198-.99H4.217l-.495.99zm-.438-2.194l-.227-1.173H5.373l-.571 1.173zm-.417-2.213l-.27-1.354H6.54l-.66 1.354zm-.444-2.224l-.302-1.536H7.709l-.745 1.536zm-.422-2.2l-.33-1.716H8.881l-.851 1.716zm-.431-2.229l-.363-1.895H10.056l-.93 1.895zm-.435-2.219s-.276-1.436-.475-2.453c-.197-1.018-.483-1.976-1.495-2.702-1.01-.726-8.019-5.443-8.019-5.443s-1.288-.57-1.268-2.613c.022-2.047 0-14.265 0-14.265s-6.644 14.004-7.002 14.68c-.355.678-.634 1.496-2.468 2.334-1.44.659-10.74 4.882-11.434 5.226-.704.349-1.441 1.372-2.11 2.744-.182.377-1.219 2.493-1.219 2.493l35.49-.001z"/><path fill="#f71a1e" d="M24.128 50.51H26l3.26-22.72z"/><path fill="#000" d="M91.844.46v49.943h11.403l16.117-23.129v23.15l12.32-.021L163.739.324h-14.074L132.186 27.71V.46h-9.697l-17.48 26.537V.459z"/><path fill="#000" d="M162.109.323h12.571v49.942h-12.571zm20.756.432h2.154c2.696 0 2.799 1.933 2.799 2.282 0 1.006-.636 1.48-.939 1.724.858.347 1.425 1.123 1.425 2.108 0 .822-.382 1.573-.984 1.978-.732.43-1.298.487-2.302.476h-2.155V.755h.002zm.857 3.693h1.077c.672 0 1.052-.034 1.47-.242.405-.208.693-.696.693-1.206 0-.391-.139-.67-.36-.937-.333-.382-.854-.533-1.734-.533h-1.147v2.918zm0 4.099h1.202c.717 0 1.16-.036 1.623-.221.533-.22.899-.811.899-1.457 0-.662-.436-1.228-1.005-1.448-.405-.163-.753-.197-1.667-.197h-1.052v3.323zm8.501-7.792h.96l3.681 8.567h-.94l-1.239-2.882h-3.981l-1.25 2.882h-.893l3.662-8.567zm-1.195 4.908h3.322l-1.643-3.935-1.679 3.935zm6.798-4.908h.853v7.792h3.544v.776h-4.397zm5.788.775h-1.97V.755h4.781v.775h-1.957v7.793h-.854zm3.659-.775h.854v8.567h-.854zm2.499 0h1.319l3.116 7.292L217.33.755h1.319v8.568h-.856v-7.63h-.022l-3.207 7.63h-.73l-3.183-7.63h-.023v7.63h-.856zm14.668-.15c2.403 0 4.535 1.91 4.535 4.433 0 2.524-2.142 4.436-4.535 4.436-2.432 0-4.53-1.982-4.53-4.39 0-2.697 2.249-4.479 4.53-4.479m0 8.091c1.976 0 3.68-1.61 3.68-3.646 0-2.003-1.658-3.67-3.68-3.67a3.693 3.693 0 0 0-3.673 3.704c0 1.957 1.68 3.612 3.673 3.612m5.728-7.941h2.177c1.145 0 1.71.14 2.101.325.965.45 1.533 1.39 1.533 2.442 0 1.24-.893 2.5-2.547 2.604l2.418 3.197h-1.077l-2.904-3.88c1.086 0 1.46-.01 1.84-.126.94-.267 1.412-1.055 1.412-1.82 0-.67-.382-1.364-.939-1.641-.508-.267-.949-.326-1.666-.326h-1.495v7.793h-.853V.755zm6.91 0h4.69v.775h-3.834v3.08h3.707v.775h-3.707v3.162h3.833v.776h-4.689zm9.03 0h.913l-3.276 8.962h-.88zm1.319 0h.88l2.097 7.466h.02l2.037-7.466h.802l2.048 7.455h.022l2.093-7.455h.87l-2.455 8.568h-1.086l-1.888-7.029h-.024l-1.876 7.029h-1.096zm13.995 0h.962l3.68 8.567h-.939L263.89 6.44h-3.984l-1.25 2.882h-.893l3.66-8.567zm-1.19 4.908h3.321l-1.643-3.935-1.679 3.935zm6.955 1.262c.048 1.078.73 1.771 1.785 1.771.901 0 1.722-.693 1.722-1.7 0-1.32-1.332-1.656-1.91-1.83-.775-.231-2.222-.556-2.222-2.258 0-1.33 1.053-2.303 2.409-2.303 1.398 0 2.37 1.076 2.37 2.327h-.854c0-.869-.707-1.552-1.515-1.552-.986 0-1.553.755-1.553 1.495 0 1.042.914 1.283 2.037 1.609 2.108.567 2.096 2.222 2.096 2.476 0 1.32-1.065 2.514-2.581 2.514-1.113 0-2.608-.662-2.64-2.549h.856zm5.419-6.17h.856v3.773h4.435V.755h.857v8.568h-.857V5.304h-4.435v4.019h-.856zm7.791 0h.854v8.567h-.854zm2.487 0h1.158l4.779 7.108h.023V.755h.858v8.568h-.858l-5.08-7.539h-.024v7.539h-.856zm17.165 4.63c-.197 2.549-2.421 4.089-4.525 4.089-2.557 0-4.593-2.073-4.593-4.435 0-2.223 1.837-4.434 4.58-4.434 2.27 0 3.716 1.563 4.05 2.432h-.994c-.486-.846-1.618-1.657-3.044-1.657-2.167 0-3.737 1.76-3.737 3.671 0 1.909 1.57 3.645 3.77 3.645 1.818 0 3.161-1.34 3.463-2.534h-4.783v-.777h5.813zm2.433-3.855h-1.968V.755h4.779v.775h-1.955v7.793h-.856zm7.457-.925c2.406 0 4.535 1.91 4.535 4.433 0 2.524-2.14 4.436-4.535 4.436-2.43 0-4.528-1.982-4.528-4.39 0-2.697 2.25-4.479 4.528-4.479m0 8.091c1.98 0 3.682-1.61 3.682-3.646 0-2.003-1.66-3.67-3.682-3.67a3.693 3.693 0 0 0-3.67 3.704c0 1.957 1.676 3.612 3.67 3.612m5.786-7.941h1.156l4.783 7.108h.024V.755h.859v8.568h-.859l-5.083-7.539h-.022v7.539h-.858zM182.889 12.071h.854v8.567h-.854zm7.084 0h1.158l4.779 7.11h.026v-7.11h.853v8.568h-.853l-5.084-7.536h-.025v7.536h-.854zm14.215.778h-1.968v-.778h4.781v.778h-1.957v7.79h-.856zm8.184-.778h4.686v.778h-3.83v3.079h3.704v.776h-3.704v3.16h3.83v.775h-4.686zm10.683 0h2.175c1.15 0 1.715.14 2.11.326.958.452 1.527 1.389 1.527 2.443 0 1.238-.89 2.499-2.545 2.603l2.416 3.196h-1.075l-2.904-3.877c1.087 0 1.459-.011 1.84-.13.94-.266 1.412-1.053 1.412-1.816 0-.672-.382-1.367-.938-1.644-.511-.266-.95-.323-1.667-.323h-1.492v7.79h-.859V12.07zm11.565 0h1.158l4.778 7.11h.027v-7.11h.854v8.568h-.854l-5.083-7.536h-.024v7.536h-.856zm15.975 0h.96l3.681 8.568h-.938l-1.24-2.881h-3.98l-1.25 2.88h-.893l3.66-8.567zm-1.192 4.91h3.322l-1.646-3.936-1.676 3.935zm11.958-4.132h-1.971v-.778h4.782v.778h-1.955v7.79h-.856zm8.256-.778h.854v8.567h-.854zm11.236-.148c2.41 0 4.538 1.91 4.538 4.432 0 2.525-2.14 4.435-4.538 4.435-2.43 0-4.525-1.98-4.525-4.387 0-2.698 2.245-4.48 4.525-4.48m0 8.09c1.98 0 3.682-1.608 3.682-3.647 0-2.002-1.653-3.668-3.682-3.668a3.692 3.692 0 0 0-3.667 3.705c-.002 1.955 1.677 3.61 3.667 3.61m10.384-7.942h1.155l4.784 7.11h.02v-7.11h.86v8.568h-.86l-5.079-7.536h-.027v7.536h-.853zm15.975 0h.96l3.681 8.568h-.935l-1.238-2.881h-3.984l-1.25 2.88h-.891l3.657-8.567zm-1.19 4.91h3.32l-1.643-3.936-1.677 3.935zm11.386-4.91h.859v7.793h3.543v.775h-4.402z"/><path d="M199.462 26.035c-5.203-.608-14.716-6.686-16.753-.265-.476 1.48 1.403 4.069 2.484 4.334.845.159.9.845-.184.423-1.427-.37-3.382-2.537-3.596-4.546-.792-7.9 12.87-2.06 16.913-.872 2.775.792 3.488-.184 3.432-.818-.05-.555.32-.529.639-.105.316.396-.532 2.113-2.935 1.85m-12.866 11.808c-.32 1.216.237 1.48 2.403-.211.237-.185.343.105.132.342-.37.4-1.533 1.085-2.167 1.586-.818.636-1.533.398-1.427-.422.237-2.22 1.216-4.28 4.281-9.724.554-1.003 1.53-2.906 2.43-3.515.74-.5 1.48-.421 1.161 0-1.344 1.852-6.18 9.25-6.813 11.944" fill="#f71a1e"/><path d="M198.697 38.797c-2.272-.66-1.876-4.254-3.461-3.066-.871.66-1.243 1.586-1.667 2.088-.446.53-.74.978-1.052 1.426-.161.211-.586.424-.952.424-.37.026-.61-.107-.557-.555a9.5 9.5 0 0 1 .557-2.008c.551-1.402 1.346-2.748 2.005-4.096 1.14-2.273 2.435-5.893 4.097-6.949.079-.053.926.052 1.032.29.131.397.237 1.321-.899 3.064-.95 1.428-2.298 2.829-3.224 3.755-.66 1.134-2.22 3.194-2.031 4.517.05.475.74-.212 1.16-.74.529-.66 1.135-1.798 1.586-2.246 2.245-2.326 2.881 3.224 4.042 3.224.45 0 .686-.502 1.162-.634.447.607-1.534 1.584-1.798 1.506m-3.092-9.117c-.37.794-.712 1.875-.896 2.404.211.16 1.953-1.98 2.588-3.039.659-1.161 1.002-1.9.686-2.112-.635-.422-1.956 1.85-2.378 2.747" fill="#f71a1e"/><path d="M205.804 37.265c-.237 1.055.5 1.084 1.266.58.793-.528.793.131-.657.82-2.514 1.162-1.057-2.882-.742-3.83-.767.975-1.875 2.298-3.33 3.274-1.77 1.189-1.877-.37-1.532-1.321.29-.82 1.374-2.984 2.723-4.175.367-.317.58.054.367.29-.578.689-1.9 3.092-1.847 3.673.053.398.345.61.818.318 1.055-.66 2.274-1.61 3.33-3.804.633-.45 1.585.027 1.084 1.082-.371.793-1.269 2.142-1.48 3.093" fill="#f71a1e"/><path d="M213.598 33.725c-1.823-.45-4.332 3.144-5.019 4.755-.846.66-.951-.582-.53-1.401.82-1.587 1.51-3.224 2.327-4.783.343-.344.607-.08.528.16-.264.872-.689 1.69-.873 2.588 1.032-.898 3.065-2.536 4.15-2.536.975 0-.027 1.638-.583 1.217m7.188-1.19c-.581 3.673-2.883 9.01-6.316 11.044-1.428.845-2.378-1.03-1.903-2.272.264-.686.952-.397.475.264-.316.424.212 1.797 1.03 1.48 2.725-1.003 4.414-6.157 4.94-8.747-.024 0-.076-.025-.103-.025-.158-.08-.477.396-.767.766-.212.291-1.984 2.06-2.852 2.8-.345.291-.952.448-1.296.291-.317-.16-.5-.634.237-1.876.29-.502 1.48-2.351 2.934-3.514.554-.45 1.055-.634 1.425-.714.422-.08.742-.053.979-.105.237-.026.765-.053.896-.29.026-.026.161-.054.29.08.108.104.108.42.028.79v.028h.003zm-4.493 1.717a13.968 13.968 0 0 0-1.243 1.61c-.422.636-.686 1.244-.475 1.375.292.186.87-.263 1.401-.712.554-.504 1.138-1.083 1.478-1.4.636-.582 2.116-2.352 1.72-2.749-.475-.45-2.219 1.136-2.88 1.876zm12.339.633c-.316.027-.633.08-.896.106-.583 1.507-2.512 3.145-3.805 3.462-1.64.397-2.036-.291-1.8-1.322.373-1.56 1.665-2.96 2.935-3.883.607-.45 2.3-.502 2.696.264.158.291.184.634.105 1.002.212-.025.924-.077 1.188-.13.53-.08.108.45-.423.501m-4.73.501c-.287.451-.633 1.059-.711 1.587-.08.66.686.74 1.057.61.634-.213 1.663-.954 2.378-1.773.21-.238.398-.502.556-.74-1.272.16-2.063.292-3.28.316m3.122-1.715c-.77-.45-1.614.265-2.193.766.473.131 1.505.237 2.562.131.076-.368-.001-.686-.37-.897m8.107 1.214c-.316.027-.63.08-.895.106-.583 1.507-2.511 3.145-3.81 3.462-1.635.397-2.03-.291-1.794-1.322.37-1.56 1.664-2.96 2.932-3.883.609-.45 2.3-.502 2.696.264.158.291.184.634.105 1.002.211-.025.926-.077 1.19-.13.53-.08.107.45-.424.501m-4.727.501c-.29.451-.633 1.059-.714 1.587-.077.66.689.74 1.057.61.636-.213 1.664-.954 2.38-1.773.211-.238.396-.502.554-.74-1.27.16-2.063.292-3.277.316m3.119-1.715c-.768-.45-1.612.265-2.193.766.476.131 1.505.237 2.562.131.079-.368 0-.686-.37-.897m11.468-3.778c-1.058 1.61-2.195 2.747-3.49 4.965a12.64 12.64 0 0 0-1.294 3.304c-.08.343-.053.635-.026.872.026.237.053.475-.025.713-.187.529-.897.397-1.085-.052-.053-.159 0-.424.106-.767.105-.341.266-.74.398-1.19.076-.264.131-.58.105-.765-.055-.264-.237-.344-.533-.131-.498.37-1.026.685-1.53.95-.501.29-.976.528-1.399.765-.237.134-.478.318-.765.371-.266.053-.559 0-.928-.341-.473-.452-.34-.954-.025-1.481.34-.555.924-.98 1.319-1.507 1.11-1.454 2.801-2.3 3.438-2.616.868-.424 1.61-.528 2.11.134.426-.9 2.222-3.728 2.802-4.548.926-1.32 1.691-2.324 2.325-1.821.796.635-1.134 2.561-1.503 3.145m-6.687 4.12c-1.135.898-2.273 2.194-2.562 2.775-.267.528-.343 1.321.818.926 1.268-.423 2.406-1.032 3.807-2.3.211-.58.448-1.135.712-1.718-.686-1.347-1.953-.342-2.775.317m24.471-1.24h.023c-1.507 2.298-3.143 4.121-4.729 5.467-7.477 6.343-13.502 1.905-8.217-7.688 5.101-9.22 13.373-3.54 7.187 2.061-.37.344-.554-.026-.182-.395 4.54-4.597-1.746-9.3-6.108-1.348-4.833 8.799-.024 12.762 7.005 6.58 1.61-1.429 3.141-3.223 4.358-4.994 1.955-2.854 2.3-3.277 4.017-5.787.053-.08.104-.08.159.027.053.106.078.264.026.343-1.744 2.616-3.251 5.283-3.539 5.734M275.4 28.73l-.025-.026c-1.163 2.642-2.25 5.68-2.514 8.323-.129 1.453.715 2.986 2.353.978.214-.266.396-.291.476-.266.053.026.131.133-.026.371-2.087 3.013-4.147 1.292-3.936-.924.264-2.697 1.875-7.082 3.382-10.359-.846 1.136-1.372 1.903-1.93 2.696-.869 1.24-1.795 2.59-2.483 3.461-.342.424-1.137 1.453-1.98 2.378-.847.952-1.692 1.77-2.14 1.77-1.374.027-1.744-1.69-1.507-3.91.184-1.718.662-3.596 1.11-5.206.211-.793.423-1.531.61-2.167a9.594 9.594 0 0 0 .261-1.505c.028-1.03 1.797-.634 1.746-.133a12.84 12.84 0 0 1-.53 2.14c-.267.716-.61 1.428-.87 2.062-.637 1.48-1.217 3.04-1.402 4.757-.161 1.61.211 2.113 1.137 2.138.792 0 2.773-2.111 3.221-2.695 2.882-3.593 5.683-7.635 6.499-10.278.241-.74 1.799-.317 1.506.45-.552 1.084-1.793 3.302-2.958 5.945" fill="#f71a1e"/><path d="M281.475 38.189c-.659.45-1.4.74-1.714.58-.528-.263-.583-.793-.528-1.4.076-.449.34-1.135.29-1.586-.584.53-1.56 1.508-2.09 2.01-.553.527-1.24 1.057-1.61.607-.896-1.109 1.137-3.726 1.451-4.121 1.298-1.559 2.881-2.986 4.81-1.4.083.078-.21.262-.262.316-.687.687-2.325 4.04-1.427 4.703.342.238.82-.053 1.245-.343.129-.08.684-.555.845-.396.128.184-.402.634-1.01 1.03m-3.883-3.54c-.765.897-2.01 4.596 1.454.843.978-1.055 1.849-2.297 1.612-2.72-.369-.66-2.166.82-3.066 1.876m11.44-.923c-1.822-.45-4.329 3.144-5.016 4.755-.848.66-.954-.582-.53-1.401.818-1.587 1.507-3.224 2.325-4.783.342-.344.606-.08.53.16-.266.872-.689 1.69-.875 2.588 1.031-.898 3.065-2.536 4.15-2.536.977 0-.025 1.638-.584 1.217m5.656.051c-.713.74.026-1.77-.451-1.927-.792-.266-1.927.684-2.507 1.61-.689 1.084 1.161 3.198.924 4.386.424-.08 2.06-.58 1.427 0-.266.238-2.484 1.005-3.41 1.189-.766.238-2.346.264-2.483-.053-.131-.317.766-.317.95-.37.372-.08.689-.052 1.031-.158 1.588-.477 1.533-1.269.715-2.485-1.19-1.768.977-4.119 2.694-4.544.237-.052 1.16-.184 1.454.186.262.29.234 1.56-.344 2.166m7.054 5.021c-2.272-.66-1.875-4.254-3.46-3.066-.871.66-1.241 1.586-1.664 2.088-.45.53-.741.978-1.06 1.426-.155.211-.58.424-.949.424-.372.026-.607-.107-.554-.555a9.49 9.49 0 0 1 .554-2.008c.554-1.402 1.349-2.748 2.01-4.096 1.135-2.273 2.429-5.893 4.098-6.949.076-.053.92.052 1.026.29.132.397.24 1.321-.896 3.064-.954 1.428-2.303 2.829-3.226 3.755-.658 1.134-2.217 3.194-2.034 4.517.055.475.742-.212 1.165-.74.528-.66 1.138-1.798 1.583-2.246 2.245-2.326 2.88 3.224 4.045 3.224.445 0 .686-.502 1.16-.634.448.607-1.534 1.584-1.798 1.506m-3.091-9.117c-.37.794-.712 1.875-.897 2.404.212.16 1.956-1.98 2.59-3.039.66-1.161 1-1.9.686-2.112-.633-.422-1.957 1.85-2.379 2.747" fill="#f71a1e"/><path d="M309.457 38.189c-.657.45-1.399.74-1.717.58-.528-.263-.578-.793-.528-1.4.079-.449.343-1.135.293-1.586-.581.53-1.561 1.508-2.09 2.01-.55.527-1.242 1.057-1.61.607-.9-1.109 1.136-3.726 1.45-4.121 1.299-1.559 2.882-2.986 4.813-1.4.078.078-.212.262-.264.316-.687.687-2.328 4.04-1.427 4.703.345.238.818-.053 1.242-.343.132-.08.687-.555.845-.396.13.184-.398.634-1.007 1.03m-3.882-3.54c-.767.897-2.013 4.596 1.452.843.979-1.055 1.852-2.297 1.611-2.72-.368-.66-2.165.82-3.063 1.876m7.585.026c-.793 1.479-3.015 5.971 1.105 2.828.61.183-1.137 1.373-1.955 2.007-.792.635-1.56.317-1.53-.29.076-1.823.95-3.437 1.715-5.074a47.57 47.57 0 0 1 2.405-4.597c.579-.98 1.53-2.906 2.428-3.514.742-.502.904-.476 1.164 0 .346.608-3.933 6.025-5.332 8.64m4.12 0c-.793 1.479-3.013 5.971 1.107 2.828.61.183-1.137 1.373-1.955 2.007-.792.635-1.557.317-1.53-.29.078-1.823.949-3.437 1.714-5.074a48.406 48.406 0 0 1 2.406-4.597c.581-.98 1.53-2.906 2.43-3.514.74-.502.9-.476 1.164 0 .341.608-3.939 6.025-5.337 8.64" fill="#f71a1e"/><path d="M53.434.378h15.45c8.471 0 12.404.813 16.061 4.88 2.238 2.305 2.982 5.353 2.982 8.267 0 3.864-1.76 7.794-5.829 10.098 8.064 2.847 8.27 9.556 8.27 11.656 0 4-1.559 8.405-4.607 10.912-4.61 3.862-7.93 4.337-16.403 4.337H53.434V.378zm12.264 19.043h4.54c1.764 0 5.424 0 5.424-4 0-3.794-3.459-3.794-5.424-3.794h-4.54v7.794zm0 19.857h6.033c1.626 0 6.371 0 6.371-4.813 0-4.336-4.339-4.336-6.371-4.336h-6.033v9.15zm87.451 8.296c0-1.756 1.324-3.079 3.017-3.079 1.678 0 3 1.323 3 3.08 0 1.781-1.322 3.093-3 3.093-1.693 0-3.017-1.312-3.017-3.094zm3.017 3.713c2.022 0 3.745-1.568 3.745-3.713 0-2.128-1.722-3.696-3.745-3.696-2.036 0-3.762 1.568-3.762 3.696 0 2.145 1.726 3.713 3.762 3.713zm-.78-3.42h.74l1.13 1.853h.725l-1.213-1.882c.626-.077 1.105-.411 1.105-1.176 0-.843-.498-1.215-1.507-1.215h-1.628v4.273h.647v-1.852zm0-.55v-1.322h.88c.45 0 .933.097.933.628 0 .655-.491.693-1.041.693h-.773z" fill="#000"/></g></svg>