<?xml version="1.0" encoding="UTF-8"?>
<svg width="175px" height="52px" viewBox="0 0 175 52" version="1.1" xmlns="http://www.w3.org/2000/svg" xmlns:xlink="http://www.w3.org/1999/xlink">
    <!-- Generator: Sketch 42 (36781) - http://www.bohemiancoding.com/sketch -->
    <title>Group 3</title>
    <desc>Created with Sketch.</desc>
    <defs></defs>
    <g id="Symbols" stroke="none" stroke-width="1" fill="none" fill-rule="evenodd">
        <g id="Footer" transform="translate(-91.000000, -76.000000)">
            <g id="Group-3">
                <g transform="translate(91.000000, 76.000000)">

                    <rect id="Rectangle-path" fill="#f71a1e" x="0.431076046" y="0.631262357" width="49.9114829" height="49.9090266"></rect>
                    <polygon id="Shape" fill="#fff" points="49.1426692 48.3394677 49.0198555 47.7106616 1.85694297 47.7106616 1.55727757 48.3394677"></polygon>
                    <polygon id="Shape" fill="#fff" points="48.7152776 46.1300494 48.5519354 45.3194791 3.03718251 45.3194791 2.6404943 46.1300494"></polygon>
                    <polygon id="Shape" fill="#fff" points="48.279289 43.8874715 48.0815589 42.8975932 4.21742205 42.8975932 3.72248289 43.8874715"></polygon>
                    <polygon id="Shape" fill="#fff" points="47.8420722 41.6927909 47.6148669 40.5199202 5.37309886 40.5199202 4.80201521 41.6927909"></polygon>
                    <polygon id="Shape" fill="#fff" points="47.4245057 39.4796882 47.1555437 38.1262814 6.53860076 38.1262814 5.87909125 39.4796882"></polygon>
                    <polygon id="Shape" fill="#fff" points="46.9811483 37.2555323 46.6790266 35.7203612 7.70901521 35.7203612 6.96353612 37.2555323"></polygon>
                    <polygon id="Shape" fill="#fff" points="46.5586692 35.0559392 46.2283004 33.3402319 8.88188593 33.3402319 8.03078707 35.0559392"></polygon>
                    <polygon id="Shape" fill="#fff" points="46.1275932 32.8268707 45.7652928 30.9318555 10.0559848 30.9318555 9.12505703 32.8268707"></polygon>
                    <path d="M45.6928327,30.6076274 C45.6928327,30.6076274 45.4165019,29.1719354 45.2175437,28.155038 C45.0210418,27.1369125 44.7348859,26.1789658 43.7229011,25.4531369 C42.7133726,24.727308 35.7043954,20.0100342 35.7043954,20.0100342 C35.7043954,20.0100342 34.4160798,19.4401787 34.43573,17.3965589 C34.4578365,15.3504829 34.43573,3.13174905 34.43573,3.13174905 C34.43573,3.13174905 27.7915095,17.1361939 27.4341217,17.8128973 C27.0791901,18.4896008 26.800403,19.3075399 24.9655665,20.1463574 C23.5261901,20.8046388 14.2267376,25.0282015 13.5316122,25.3720798 C12.8278897,25.7208707 12.0910076,26.7439087 11.421673,28.1157376 C11.2399087,28.4927757 10.2033612,30.6088555 10.2033612,30.6088555 L45.6928327,30.6076274 Z" id="Shape" fill="#fff"></path>
                    <polygon id="Shape" fill="#f71a1e" points="24.1279772 50.5108137 25.9996578 50.5108137 29.2591331 27.7890532"></polygon>
                    <polygon id="Shape" fill="#000" points="91.8437605 0.459323194 91.8437605 50.4027376 103.247011 50.4027376 119.363852 27.2744639 119.363852 50.423616 131.684521 50.4027376 163.737665 0.324228137 149.664445 0.324228137 132.185601 27.7104525 132.185601 0.459323194 122.48946 0.459323194 105.00816 26.9969049 105.00816 0.459323194"></polygon>
                    <rect id="Rectangle-path" fill="#000" x="162.109156" y="0.323" width="12.5712091" height="49.9421863"></rect>
                    <path d="M53.4337795,0.37826616 L68.8837414,0.37826616 C77.3554297,0.37826616 81.287924,1.19129278 84.9453156,5.25765399 C87.182981,7.56286692 87.9272319,10.6111027 87.9272319,13.5254715 C87.9272319,17.3891901 86.1660837,21.3192281 82.0984943,23.6232129 C90.1624411,26.4700342 90.3687681,33.179346 90.3687681,35.2794601 C90.3687681,39.2795019 88.8090342,43.6836008 85.7607985,46.1914563 C81.1503726,50.0527186 77.8307186,50.5280076 69.3578023,50.5280076 L53.4337795,50.5280076 L53.4337795,0.37826616 L53.4337795,0.37826616 Z M65.6979544,19.4205285 L70.2383764,19.4205285 C72.001981,19.4205285 75.6618289,19.4205285 75.6618289,15.4217148 C75.6618289,11.6267719 72.2033954,11.6267719 70.2383764,11.6267719 L65.6979544,11.6267719 L65.6979544,19.4205285 Z M65.6979544,39.2782738 L71.7305627,39.2782738 C73.356616,39.2782738 78.1021369,39.2782738 78.1021369,34.4652053 C78.1021369,30.128654 73.7631293,30.128654 71.7305627,30.128654 L65.6979544,30.128654 L65.6979544,39.2782738 Z" id="Shape" fill="#000"></path>
                    <path d="M153.148669,47.5743384 C153.148669,45.8181027 154.472601,44.4953992 156.166202,44.4953992 C157.843837,44.4953992 159.16654,45.8181027 159.16654,47.5743384 C159.16654,49.356365 157.843837,50.6680152 156.166202,50.6680152 C154.472601,50.6680152 153.148669,49.356365 153.148669,47.5743384 L153.148669,47.5743384 Z M156.166202,51.2869962 C158.187715,51.2869962 159.910791,49.7186654 159.910791,47.5743384 C159.910791,45.4459772 158.188943,43.8776464 156.166202,43.8776464 C154.129951,43.8776464 152.404418,45.4459772 152.404418,47.5743384 C152.404418,49.7186654 154.129951,51.2869962 156.166202,51.2869962 L156.166202,51.2869962 Z M155.385106,47.8678631 L156.126901,47.8678631 L157.256787,49.7198935 L157.981388,49.7198935 L156.767989,47.8383878 C157.394338,47.7610152 157.873312,47.426962 157.873312,46.6618327 C157.873312,45.8193308 157.374688,45.4472053 156.366388,45.4472053 L154.737878,45.4472053 L154.737878,49.7198935 L155.385106,49.7198935 L155.385106,47.8678631 L155.385106,47.8678631 Z M155.385106,47.3164297 L155.385106,45.9949544 L156.265681,45.9949544 C156.716407,45.9949544 157.199065,46.0919772 157.199065,46.6225323 C157.199065,47.2783574 156.70781,47.3164297 156.157605,47.3164297 L155.385106,47.3164297 Z" id="Shape" fill="#000"></path>
                </g>
            </g>
        </g>
    </g>
</svg>
