<?xml version="1.0" encoding="UTF-8"?>
<svg width="323px" height="52px" viewBox="0 0 323 52" version="1.1" xmlns="http://www.w3.org/2000/svg" xmlns:xlink="http://www.w3.org/1999/xlink">
    <!-- Generator: Sketch 42 (36781) - http://www.bohemiancoding.com/sketch -->
    <title>Group 3</title>
    <desc>Created with Sketch.</desc>
    <defs></defs>
    <g id="Symbols" stroke="none" stroke-width="1" fill="none" fill-rule="evenodd">
        <g id="Footer" transform="translate(-91.000000, -76.000000)">
            <g id="Group-3">
                <g transform="translate(91.000000, 76.000000)">
                    <path d="M185.88343,41.289962 L186.840148,41.289962 L190.524559,49.8562167 L189.583806,49.8562167 L188.345844,46.9737795 L184.364224,46.9737795 L183.113981,49.8562167 L182.221125,49.8562167 L185.88343,41.289962 Z M184.688452,46.197597 L188.013019,46.197597 L186.367316,42.2638745 L184.688452,46.197597 Z" id="Shape" fill="#FFFFFF"></path>
                    <rect id="Rectangle-path" fill="#FFFFFF" x="206.809654" y="41.289962" width="0.856011407" height="8.56748289"></rect>
                    <path d="M224.636061,41.289962 L226.811091,41.289962 C227.958171,41.289962 228.52557,41.4287414 228.919802,41.6141901 C229.881433,42.0661445 230.447605,43.0044411 230.447605,44.0569544 C230.447605,45.2961445 229.554749,46.5586692 227.900449,46.6618327 L230.321106,49.8574449 L229.24403,49.8574449 L226.33703,45.9777605 C227.428844,45.9777605 227.797285,45.9679354 228.181692,45.8500342 C229.117532,45.5847567 229.591593,44.7962928 229.591593,44.0323916 C229.591593,43.3618289 229.208414,42.6679316 228.653297,42.3903726 C228.142392,42.1250951 227.703947,42.0661445 226.986715,42.0661445 L225.492072,42.0661445 L225.492072,49.8574449 L224.636061,49.8574449 L224.636061,41.289962 Z" id="Shape" fill="#FFFFFF"></path>
                    <path d="M246.999205,41.289962 L249.385475,41.289962 C250.565715,41.289962 251.119605,41.4741825 251.59735,41.7873574 C252.233525,42.2172053 252.662144,42.9454905 252.662144,43.8506274 C252.662144,44.7508517 252.232297,45.480365 251.59735,45.9102129 C251.119605,46.2209316 250.565715,46.4076084 249.385475,46.4076084 L247.857673,46.4076084 L247.857673,49.8562167 L246.999205,49.8562167 L246.999205,41.289962 Z M247.857673,45.6301977 L249.098091,45.6301977 C250.011825,45.6301977 250.323772,45.6301977 250.808886,45.4115894 C251.480677,45.0984144 251.804905,44.4966274 251.804905,43.8506274 C251.804905,43.1997148 251.480677,42.5979278 250.808886,42.2847529 C250.323772,42.0661445 250.013053,42.0661445 249.098091,42.0661445 L247.857673,42.0661445 L247.857673,45.6301977 Z" id="Shape" fill="#FFFFFF"></path>
                    <path d="M273.286247,41.1401293 C275.69708,41.1401293 277.824213,43.0511103 277.824213,45.5724753 C277.824213,48.0975247 275.687255,50.0072776 273.286247,50.0072776 C270.855764,50.0072776 268.761791,48.0275209 268.761791,45.6203726 C268.763019,42.9221559 271.008053,41.1401293 273.286247,41.1401293 M273.286247,49.2310951 C275.267232,49.2310951 276.970658,47.6222357 276.970658,45.5847567 C276.970658,43.5816654 275.312673,41.9150837 273.286247,41.9150837 C271.355616,41.9150837 269.61903,43.4907833 269.61903,45.6203726 C269.61903,47.5755665 271.295437,49.2310951 273.286247,49.2310951" id="Shape" fill="#FFFFFF"></path>
                    <path d="M294.415114,41.289962 L296.590144,41.289962 C297.739681,41.289962 298.303395,41.4287414 298.698856,41.6141901 C299.65803,42.0661445 300.224202,43.0044411 300.224202,44.0569544 C300.224202,45.2961445 299.333802,46.5586692 297.679502,46.6618327 L300.097703,49.8574449 L299.023084,49.8574449 L296.11854,45.9777605 C297.205441,45.9777605 297.578795,45.9679354 297.958289,45.8500342 C298.896586,45.5847567 299.36819,44.7962928 299.36819,44.0323916 C299.36819,43.3618289 298.98624,42.6679316 298.43235,42.3903726 C297.923901,42.1250951 297.480544,42.0661445 296.765768,42.0661445 L295.268669,42.0661445 L295.268669,49.8574449 L294.415114,49.8574449 L294.415114,41.289962 Z" id="Shape" fill="#FFFFFF"></path>
                    <polygon id="Shape" fill="#FFFFFF" points="318.014992 42.0661445 316.046289 42.0661445 316.046289 41.289962 320.826198 41.289962 320.826198 42.0661445 318.874688 42.0661445 318.874688 49.8574449 318.014992 49.8574449"></polygon>
                    <rect id="Rectangle-path" fill="#FFFFFF" x="0.431076046" y="0.631262357" width="49.9114829" height="49.9090266"></rect>
                    <polygon id="Shape" fill="#333342" points="49.1426692 48.3394677 49.0198555 47.7106616 1.85694297 47.7106616 1.55727757 48.3394677"></polygon>
                    <polygon id="Shape" fill="#333342" points="48.7152776 46.1300494 48.5519354 45.3194791 3.03718251 45.3194791 2.6404943 46.1300494"></polygon>
                    <polygon id="Shape" fill="#333342" points="48.279289 43.8874715 48.0815589 42.8975932 4.21742205 42.8975932 3.72248289 43.8874715"></polygon>
                    <polygon id="Shape" fill="#333342" points="47.8420722 41.6927909 47.6148669 40.5199202 5.37309886 40.5199202 4.80201521 41.6927909"></polygon>
                    <polygon id="Shape" fill="#333342" points="47.4245057 39.4796882 47.1555437 38.1262814 6.53860076 38.1262814 5.87909125 39.4796882"></polygon>
                    <polygon id="Shape" fill="#333342" points="46.9811483 37.2555323 46.6790266 35.7203612 7.70901521 35.7203612 6.96353612 37.2555323"></polygon>
                    <polygon id="Shape" fill="#333342" points="46.5586692 35.0559392 46.2283004 33.3402319 8.88188593 33.3402319 8.03078707 35.0559392"></polygon>
                    <polygon id="Shape" fill="#333342" points="46.1275932 32.8268707 45.7652928 30.9318555 10.0559848 30.9318555 9.12505703 32.8268707"></polygon>
                    <path d="M45.6928327,30.6076274 C45.6928327,30.6076274 45.4165019,29.1719354 45.2175437,28.155038 C45.0210418,27.1369125 44.7348859,26.1789658 43.7229011,25.4531369 C42.7133726,24.727308 35.7043954,20.0100342 35.7043954,20.0100342 C35.7043954,20.0100342 34.4160798,19.4401787 34.43573,17.3965589 C34.4578365,15.3504829 34.43573,3.13174905 34.43573,3.13174905 C34.43573,3.13174905 27.7915095,17.1361939 27.4341217,17.8128973 C27.0791901,18.4896008 26.800403,19.3075399 24.9655665,20.1463574 C23.5261901,20.8046388 14.2267376,25.0282015 13.5316122,25.3720798 C12.8278897,25.7208707 12.0910076,26.7439087 11.421673,28.1157376 C11.2399087,28.4927757 10.2033612,30.6088555 10.2033612,30.6088555 L45.6928327,30.6076274 Z" id="Shape" fill="#333342"></path>
                    <polygon id="Shape" fill="#FFFFFF" points="24.1279772 50.5108137 25.9996578 50.5108137 29.2591331 27.7890532"></polygon>
                    <polygon id="Shape" fill="#FFFFFF" points="91.8437605 0.459323194 91.8437605 50.4027376 103.247011 50.4027376 119.363852 27.2744639 119.363852 50.423616 131.684521 50.4027376 163.737665 0.324228137 149.664445 0.324228137 132.185601 27.7104525 132.185601 0.459323194 122.48946 0.459323194 105.00816 26.9969049 105.00816 0.459323194"></polygon>
                    <rect id="Rectangle-path" fill="#FFFFFF" x="162.109156" y="0.323" width="12.5712091" height="49.9421863"></rect>
                    <path d="M182.864669,0.755304183 L185.018821,0.755304183 C187.714582,0.755304183 187.817745,2.68839163 187.817745,3.03718251 C187.817745,4.04302662 187.18157,4.51708745 186.879449,4.76148669 C187.736688,5.10782129 188.304087,5.8840038 188.304087,6.86896958 C188.304087,7.69059316 187.922137,8.44221293 187.32035,8.8474981 C186.58838,9.27611787 186.022209,9.3338403 185.017593,9.32278707 L182.863441,9.32278707 L182.863441,0.755304183 L182.864669,0.755304183 Z M183.721909,4.44831179 L184.798985,4.44831179 C185.470776,4.44831179 185.851498,4.41392395 186.269065,4.20636882 C186.67435,3.99758555 186.961734,3.51001521 186.961734,3.0003384 C186.961734,2.60856274 186.822954,2.32977567 186.60189,2.06326996 C186.269065,1.68131939 185.748335,1.53025856 184.86776,1.53025856 L183.720681,1.53025856 L183.720681,4.44831179 L183.721909,4.44831179 Z M183.721909,8.54660456 L184.924255,8.54660456 C185.641487,8.54660456 186.083616,8.51098859 186.546624,8.32553992 C187.079635,8.10693156 187.44562,7.51496958 187.44562,6.86896958 C187.44562,6.2070038 187.009631,5.6408327 186.441004,5.4209962 C186.035719,5.25765399 185.688156,5.2244943 184.774422,5.2244943 L183.721909,5.2244943 L183.721909,8.54660456 Z" id="Shape" fill="#FFFFFF"></path>
                    <path d="M192.223072,0.755304183 L193.182247,0.755304183 L196.864202,9.32155894 L195.923449,9.32155894 L194.685487,6.44034981 L190.703867,6.44034981 L189.453624,9.32155894 L188.560768,9.32155894 L192.223072,0.755304183 Z M191.028095,5.66293916 L194.350205,5.66293916 L192.706958,1.72798859 L191.028095,5.66293916 Z" id="Shape" fill="#FFFFFF"></path>
                    <polygon id="Shape" fill="#FFFFFF" points="197.825833 0.755304183 198.679388 0.755304183 198.679388 8.54660456 202.222563 8.54660456 202.222563 9.32278707 197.825833 9.32278707"></polygon>
                    <polygon id="Shape" fill="#FFFFFF" points="203.614042 1.53025856 201.64411 1.53025856 201.64411 0.755304183 206.425247 0.755304183 206.425247 1.53025856 204.467597 1.53025856 204.467597 9.32278707 203.614042 9.32278707"></polygon>
                    <rect id="Rectangle-path" fill="#FFFFFF" x="207.272662" y="0.755304183" width="0.853555133" height="8.56748289"></rect>
                    <polygon id="Shape" fill="#FFFFFF" points="209.77192 0.755304183 211.090939 0.755304183 214.206722 8.04675285 217.329875 0.755304183 218.648894 0.755304183 218.648894 9.32278707 217.792882 9.32278707 217.792882 1.69360076 217.770776 1.69360076 214.56411 9.32278707 213.834597 9.32278707 210.651266 1.69360076 210.627932 1.69360076 210.627932 9.32278707 209.77192 9.32278707"></polygon>
                    <path d="M224.439559,0.605471483 C226.843023,0.605471483 228.975068,2.51522433 228.975068,5.03781749 C228.975068,7.56163878 226.833198,9.47384791 224.439559,9.47384791 C222.007848,9.47384791 219.91019,7.49163498 219.91019,5.08448669 C219.91019,2.3874981 222.158909,0.605471483 224.439559,0.605471483 M224.439559,8.69643726 C226.415631,8.69643726 228.119057,7.08634981 228.119057,5.05009886 C228.119057,3.0470076 226.4623,1.38042586 224.439559,1.38042586 C222.504015,1.38042586 220.76743,2.95489734 220.76743,5.08448669 C220.76743,7.04090875 222.446293,8.69643726 224.439559,8.69643726" id="Shape" fill="#FFFFFF"></path>
                    <path d="M230.167589,0.755304183 L232.345076,0.755304183 C233.4897,0.755304183 234.055871,0.89408365 234.446418,1.07953232 C235.410506,1.53025856 235.979133,2.46978327 235.979133,3.52229658 C235.979133,4.76148669 235.086278,6.02278327 233.431977,6.12594677 L235.850179,9.32278707 L234.773103,9.32278707 L231.868559,5.44310266 C232.95546,5.44310266 233.328814,5.43327757 233.708308,5.31660456 C234.649061,5.05009886 235.120665,4.26163498 235.120665,3.49773384 C235.120665,2.8271711 234.738715,2.13327376 234.182369,1.85571483 C233.67392,1.58920913 233.233019,1.53025856 232.515787,1.53025856 L231.021144,1.53025856 L231.021144,9.32278707 L230.167589,9.32278707 L230.167589,0.755304183 L230.167589,0.755304183 Z" id="Shape" fill="#FFFFFF"></path>
                    <polygon id="Shape" fill="#FFFFFF" points="237.078316 0.755304183 241.767342 0.755304183 241.767342 1.53025856 237.934327 1.53025856 237.934327 4.61042586 241.640844 4.61042586 241.640844 5.38538023 237.934327 5.38538023 237.934327 8.54660456 241.767342 8.54660456 241.767342 9.32278707 237.078316 9.32278707"></polygon>
                    <polygon id="Shape" fill="#FFFFFF" points="246.107578 0.755304183 247.021312 0.755304183 243.744643 9.71701901 242.864068 9.71701901"></polygon>
                    <polygon id="Shape" fill="#FFFFFF" points="247.426597 0.755304183 248.307171 0.755304183 250.403601 8.22114829 250.424479 8.22114829 252.46073 0.755304183 253.262703 0.755304183 255.311236 8.21009506 255.333342 8.21009506 257.426087 0.755304183 258.296837 0.755304183 255.840563 9.32278707 254.75489 9.32278707 252.867243 2.2941597 252.842681 2.2941597 250.967316 9.32278707 249.870589 9.32278707"></polygon>
                    <path d="M261.422445,0.755304183 L262.384076,0.755304183 L266.063574,9.32155894 L265.125278,9.32155894 L263.889772,6.44034981 L259.905696,6.44034981 L258.655452,9.32155894 L257.762597,9.32155894 L261.422445,0.755304183 Z M260.231152,5.66293916 L263.553262,5.66293916 L261.910015,1.72798859 L260.231152,5.66293916 Z" id="Shape" fill="#FFFFFF"></path>
                    <path d="M267.187319,6.92546388 C267.235217,8.00253992 267.916833,8.69643726 268.971802,8.69643726 C269.873255,8.69643726 270.69365,8.00253992 270.69365,6.99669582 C270.69365,5.67522053 269.36235,5.33993916 268.783897,5.16554373 C268.008943,4.93465399 266.562198,4.61042586 266.562198,2.90822814 C266.562198,1.57815589 267.614711,0.605471483 268.970574,0.605471483 C270.369422,0.605471483 271.340878,1.68131939 271.340878,2.93156274 L270.487323,2.93156274 C270.487323,2.06326996 269.779916,1.38042586 268.971802,1.38042586 C267.985608,1.38042586 267.419437,2.1345019 267.419437,2.87506844 C267.419437,3.91652852 268.333171,4.15847148 269.455688,4.48392776 C271.564399,5.051327 271.552118,6.70562738 271.552118,6.95985171 C271.552118,8.28009886 270.487323,9.47384791 268.970574,9.47384791 C267.857882,9.47384791 266.36324,8.81188213 266.33008,6.92546388 L267.187319,6.92546388 L267.187319,6.92546388 Z" id="Shape" fill="#FFFFFF"></path>
                    <polygon id="Shape" fill="#FFFFFF" points="272.605859 0.755304183 273.461871 0.755304183 273.461871 4.52814068 277.896673 4.52814068 277.896673 0.755304183 278.753913 0.755304183 278.753913 9.32278707 277.896673 9.32278707 277.896673 5.30432319 273.461871 5.30432319 273.461871 9.32278707 272.605859 9.32278707"></polygon>
                    <rect id="Rectangle-path" fill="#FFFFFF" x="280.39716" y="0.755304183" width="0.853555133" height="8.56748289"></rect>
                    <polygon id="Shape" fill="#FFFFFF" points="282.884137 0.755304183 284.04227 0.755304183 288.820951 7.86253232 288.844285 7.86253232 288.844285 0.755304183 289.701525 0.755304183 289.701525 9.32278707 288.844285 9.32278707 283.764711 1.78448289 283.740148 1.78448289 283.740148 9.32278707 282.884137 9.32278707"></polygon>
                    <path d="M300.048578,5.38538023 C299.852076,7.93376426 297.62792,9.47384791 295.524122,9.47384791 C292.967141,9.47384791 290.93089,7.40075285 290.93089,5.03904563 C290.93089,2.81611787 292.768183,0.605471483 295.51184,0.605471483 C297.781437,0.605471483 299.226954,2.1676616 299.561008,3.03718251 L298.567445,3.03718251 C298.081103,2.1909962 296.94876,1.38042586 295.522894,1.38042586 C293.35646,1.38042586 291.785673,3.14034601 291.785673,5.051327 C291.785673,6.95985171 293.35646,8.69643726 295.556053,8.69643726 C297.373696,8.69643726 298.717278,7.35531179 299.019399,6.16156274 L294.235806,6.16156274 L294.235806,5.38538023 L300.048578,5.38538023 Z" id="Shape" fill="#FFFFFF"></path>
                    <polygon id="Shape" fill="#FFFFFF" points="302.481517 1.53025856 300.514042 1.53025856 300.514042 0.755304183 305.292722 0.755304183 305.292722 1.53025856 303.337529 1.53025856 303.337529 9.32278707 302.481517 9.32278707"></polygon>
                    <path d="M309.938764,0.605471483 C312.344684,0.605471483 314.474274,2.51522433 314.474274,5.03781749 C314.474274,7.56163878 312.334859,9.47384791 309.938764,9.47384791 C307.508281,9.47384791 305.410624,7.49163498 305.410624,5.08448669 C305.411852,2.3874981 307.66057,0.605471483 309.938764,0.605471483 M309.938764,8.69643726 C311.919749,8.69643726 313.620719,7.08634981 313.620719,5.05009886 C313.620719,3.0470076 311.961506,1.38042586 309.938764,1.38042586 C308.005677,1.38042586 306.269091,2.95489734 306.269091,5.08448669 C306.269091,7.04090875 307.945498,8.69643726 309.938764,8.69643726" id="Shape" fill="#FFFFFF"></path>
                    <polygon id="Shape" fill="#FFFFFF" points="315.724517 0.755304183 316.881422 0.755304183 321.663787 7.86253232 321.68835 7.86253232 321.68835 0.755304183 322.546817 0.755304183 322.546817 9.32278707 321.68835 9.32278707 316.605091 1.78448289 316.582985 1.78448289 316.582985 9.32278707 315.724517 9.32278707"></polygon>
                    <rect id="Rectangle-path" fill="#FFFFFF" x="182.889232" y="12.0713574" width="0.853555133" height="8.56748289"></rect>
                    <polygon id="Shape" fill="#FFFFFF" points="189.973125 12.0713574 191.131259 12.0713574 195.909939 19.1810418 195.93573 19.1810418 195.93573 12.0713574 196.789285 12.0713574 196.789285 20.6388403 195.93573 20.6388403 190.852471 13.1029924 190.826681 13.1029924 190.826681 20.6388403 189.973125 20.6388403"></polygon>
                    <polygon id="Shape" fill="#FFFFFF" points="204.187582 12.8487681 202.220106 12.8487681 202.220106 12.0713574 207.001243 12.0713574 207.001243 12.8487681 205.043593 12.8487681 205.043593 20.6388403 204.187582 20.6388403"></polygon>
                    <polygon id="Shape" fill="#FFFFFF" points="212.371886 12.0713574 217.058456 12.0713574 217.058456 12.8487681 213.227897 12.8487681 213.227897 15.9277072 216.931958 15.9277072 216.931958 16.7038897 213.227897 16.7038897 213.227897 19.8638859 217.058456 19.8638859 217.058456 20.6388403 212.371886 20.6388403"></polygon>
                    <path d="M223.055449,12.0713574 L225.230479,12.0713574 C226.380015,12.0713574 226.944958,12.2101369 227.33919,12.3968137 C228.298365,12.8487681 228.866992,13.7858365 228.866992,14.8395779 C228.866992,16.0775399 227.976593,17.3388365 226.322293,17.4432281 L228.738038,20.6388403 L227.663418,20.6388403 L224.758875,16.7616122 C225.845776,16.7616122 226.217901,16.7505589 226.598624,16.6326578 C227.539376,16.3661521 228.010981,15.5789163 228.010981,14.8162433 C228.010981,14.1444525 227.62903,13.449327 227.072684,13.1717681 C226.561779,12.9064905 226.123335,12.8487681 225.406103,12.8487681 L223.913916,12.8487681 L223.913916,20.6388403 L223.055449,20.6388403 L223.055449,12.0713574 L223.055449,12.0713574 Z" id="Shape" fill="#FFFFFF"></path>
                    <polygon id="Shape" fill="#FFFFFF" points="234.619586 12.0713574 235.777719 12.0713574 240.556399 19.1810418 240.583418 19.1810418 240.583418 12.0713574 241.436973 12.0713574 241.436973 20.6388403 240.583418 20.6388403 235.50016 13.1029924 235.475597 13.1029924 235.475597 20.6388403 234.619586 20.6388403"></polygon>
                    <path d="M250.59519,12.0713574 L251.554365,12.0713574 L255.236319,20.6388403 L254.298023,20.6388403 L253.057605,17.7576312 L249.078441,17.7576312 L247.828198,20.6388403 L246.935342,20.6388403 L250.59519,12.0713574 Z M249.402669,16.9802205 L252.724779,16.9802205 L251.079076,13.04527 L249.402669,16.9802205 Z" id="Shape" fill="#FFFFFF"></path>
                    <polygon id="Shape" fill="#FFFFFF" points="261.361038 12.8487681 259.389878 12.8487681 259.389878 12.0713574 264.172243 12.0713574 264.172243 12.8487681 262.217049 12.8487681 262.217049 20.6388403 261.361038 20.6388403"></polygon>
                    <rect id="Rectangle-path" fill="#FFFFFF" x="269.616574" y="12.0713574" width="0.853555133" height="8.56748289"></rect>
                    <path d="M280.852798,11.9227529 C283.263631,11.9227529 285.390764,13.8325057 285.390764,16.3550989 C285.390764,18.8801483 283.25135,20.7899011 280.852798,20.7899011 C278.422316,20.7899011 276.328342,18.8101445 276.328342,16.4029962 C276.328342,13.7047795 278.573376,11.9227529 280.852798,11.9227529 M280.852798,20.0137186 C282.833783,20.0137186 284.534753,18.4048593 284.534753,16.3661521 C284.534753,14.364289 282.881681,12.6977072 280.852798,12.6977072 C278.922167,12.6977072 277.185582,14.2709506 277.185582,16.4029962 C277.184354,18.3581901 278.863217,20.0137186 280.852798,20.0137186" id="Shape" fill="#FFFFFF"></path>
                    <polygon id="Shape" fill="#FFFFFF" points="291.236696 12.0713574 292.392373 12.0713574 297.175966 19.1810418 297.196844 19.1810418 297.196844 12.0713574 298.055312 12.0713574 298.055312 20.6388403 297.196844 20.6388403 292.11727 13.1029924 292.090251 13.1029924 292.090251 20.6388403 291.236696 20.6388403"></polygon>
                    <path d="M307.2123,12.0713574 L308.171475,12.0713574 L311.85343,20.6388403 L310.917589,20.6388403 L309.679627,17.7576312 L305.695551,17.7576312 L304.445308,20.6388403 L303.554909,20.6388403 L307.2123,12.0713574 Z M306.022236,16.9802205 L309.34189,16.9802205 L307.698643,13.04527 L306.022236,16.9802205 Z" id="Shape" fill="#FFFFFF"></path>
                    <polygon id="Shape" fill="#FFFFFF" points="317.408293 12.0713574 318.26676 12.0713574 318.26676 19.8638859 321.809935 19.8638859 321.809935 20.6388403 317.408293 20.6388403"></polygon>
                    <path d="M199.461711,26.0352738 C194.259323,25.427346 184.746175,19.3492966 182.708696,25.7699962 C182.233407,27.2499011 184.112456,29.8388137 185.193217,30.1040913 C186.038175,30.2625209 186.092213,30.9490494 185.008996,30.5265703 C183.581901,30.1569011 181.626707,27.9904677 181.413011,25.9812357 C180.620863,18.0818593 194.282658,23.9204221 198.325684,25.1092586 C201.101274,25.9014068 201.813593,24.925038 201.758327,24.2913194 C201.707973,23.7362015 202.077643,23.7619924 202.396958,24.1856996 C202.712589,24.5823878 201.865175,26.2993232 199.461711,26.0352738 M186.595749,37.8438099 C186.276433,39.0596654 186.832779,39.3237148 188.999213,37.6325703 C189.236243,37.4483498 189.341863,37.7381901 189.130624,37.9752205 C188.760954,38.374365 187.597909,39.0596654 186.96419,39.5607452 C186.146251,40.1969202 185.431475,39.9586616 185.537095,39.1394943 C185.774125,36.9190228 186.752951,34.8582091 189.81838,29.4151065 C190.37227,28.4117186 191.348639,26.5093346 192.248863,25.9001787 C192.988202,25.3990989 193.728768,25.4789278 193.409452,25.9001787 C192.064643,27.7522091 187.22824,35.1505057 186.595749,37.8438099" id="Shape" fill="#FFFFFF"></path>
                    <path d="M198.696582,38.7968441 C196.424529,38.1361065 196.821217,34.5425779 195.235692,35.7314144 C194.364943,36.390924 193.992817,37.3169392 193.56911,37.8192471 C193.123297,38.3485741 192.829772,38.7968441 192.516597,39.2451141 C192.355711,39.4563536 191.930776,39.6688213 191.564791,39.6688213 C191.195122,39.6946122 190.955635,39.5619734 191.008445,39.1137034 C191.114065,38.4529658 191.300741,37.7652091 191.564791,37.1056996 C192.116224,35.7043954 192.910829,34.3583574 193.570338,33.0098631 C194.710049,30.7365817 196.004506,27.1172624 197.667403,26.0610646 C197.746004,26.0082548 198.593418,26.1126464 198.699038,26.3509049 C198.830449,26.7475932 198.936068,27.6723802 197.800042,29.4151065 C196.850692,30.8434297 195.502198,32.2435057 194.576183,33.1695209 C193.916673,34.3043194 192.356939,36.3639049 192.544844,37.6866084 C192.595198,38.1618973 193.284183,37.4753688 193.705433,36.94727 C194.233532,36.2865323 194.840232,35.1492776 195.290958,34.7010076 C197.535992,32.3749163 198.172167,37.9248669 199.332757,37.9248669 C199.783483,37.9248669 200.019285,37.4225589 200.494574,37.2911483 C200.941616,37.8978479 198.960631,38.8754449 198.696582,38.7968441 M195.605361,29.680384 C195.235692,30.4737605 194.893042,31.5545209 194.708821,32.0838479 C194.920061,32.2435057 196.661559,30.1040913 197.296506,29.0454373 C197.956015,27.8836198 198.298665,27.1442814 197.983034,26.9330418 C197.348087,26.5105627 196.026612,28.782616 195.605361,29.680384" id="Shape" fill="#FFFFFF"></path>
                    <path d="M205.80381,37.2653574 C205.566779,38.320327 206.30489,38.3485741 207.070019,37.845038 C207.863395,37.3169392 207.863395,37.9764487 206.412966,38.6654335 C203.89897,39.827251 205.35554,35.7829962 205.671171,34.8348745 C204.903586,35.8100152 203.795806,37.1327186 202.341692,38.1090875 C200.571947,39.297924 200.463871,37.7394183 200.808977,36.7876122 C201.098817,35.9684449 202.183262,33.8044677 203.531757,32.6131749 C203.89897,32.2963156 204.112665,32.6672129 203.89897,32.9030152 C203.320517,33.592 201.999042,35.9954639 202.051852,36.5763726 C202.104662,36.974289 202.396958,37.1855285 202.869791,36.8944601 C203.92476,36.2337224 205.1443,35.2831445 206.19927,33.089692 C206.832989,32.6401939 207.784795,33.116711 207.283715,34.1716806 C206.912817,34.965057 206.015049,36.3135513 205.80381,37.2653574" id="Shape" fill="#FFFFFF"></path>
                    <path d="M213.597567,33.7246388 C211.775011,33.2751407 209.265928,36.8686692 208.579399,38.4799848 C207.733213,39.1394943 207.627593,37.8978479 208.048844,37.0786806 C208.86924,35.4919278 209.558224,33.8548213 210.376163,32.2963156 C210.718814,31.9524373 210.982863,32.2164867 210.904262,32.4559734 C210.640213,33.3279506 210.215278,34.1458897 210.031057,35.0436578 C211.062692,34.1458897 213.096487,32.5075551 214.180932,32.5075551 C215.156072,32.5075551 214.153913,34.1458897 213.597567,33.7246388" id="Shape" fill="#FFFFFF"></path>
                    <path d="M220.785852,32.5345741 C220.204943,36.2079316 217.903414,41.5441863 214.469544,43.5792091 C213.042449,44.4241673 212.091871,42.5488023 212.56716,41.3071559 C212.831209,40.6206274 213.518966,40.9104677 213.042449,41.5712053 C212.725589,41.9949125 213.253688,43.3679696 214.071627,43.0511103 C216.796863,42.0477224 218.485551,36.8944601 219.012422,34.3043194 C218.987859,34.3043194 218.936278,34.2785285 218.909259,34.2785285 C218.750829,34.1999278 218.431513,34.6752167 218.141673,35.0448859 C217.930433,35.3359544 216.158232,37.1056996 215.289939,37.845038 C214.944833,38.1361065 214.338133,38.293308 213.994255,38.1361065 C213.677395,37.9764487 213.493175,37.5023878 214.231285,36.2595133 C214.521125,35.7584335 215.71119,33.9088593 217.165304,32.7458137 C217.719194,32.2963156 218.220274,32.1120951 218.589943,32.0322662 C219.012422,31.9524373 219.331738,31.9794563 219.568768,31.9266464 C219.805798,31.9008555 220.333897,31.8738365 220.465308,31.6368061 C220.491099,31.6110152 220.626194,31.5827681 220.755148,31.716635 C220.863224,31.8210266 220.863224,32.1378859 220.783395,32.5075551 L220.783395,32.5345741 L220.785852,32.5345741 Z M216.293327,34.2515095 C215.976468,34.5953878 215.447141,35.2548973 215.050452,35.8628251 C214.627973,36.4977719 214.363924,37.1056996 214.575163,37.2371103 C214.86746,37.4225589 215.445913,36.974289 215.976468,36.5247909 C216.530357,36.0212548 217.113722,35.4415741 217.453916,35.1247148 C218.090091,34.5425779 219.569996,32.7728327 219.173308,32.3761445 C218.699247,31.9266464 216.955293,33.5121711 216.293327,34.2515095 L216.293327,34.2515095 Z" id="Shape" fill="#FFFFFF"></path>
                    <path d="M228.632418,34.8852281 C228.315559,34.9122471 227.9987,34.965057 227.735878,34.9908479 C227.152513,36.4977719 225.224338,38.1361065 223.93111,38.4529658 C222.290319,38.849654 221.894859,38.1618973 222.13189,37.1314905 C222.504015,35.5717567 223.796015,34.1716806 225.065909,33.2481217 C225.672608,32.7986236 227.366209,32.7458137 227.761669,33.5121711 C227.920099,33.8032395 227.94589,34.1458897 227.867289,34.5143308 C228.078529,34.4885399 228.790848,34.4369582 229.054897,34.3841483 C229.585452,34.3043194 229.162973,34.8336464 228.632418,34.8852281 M223.902863,35.386308 C223.615479,35.8370342 223.269144,36.444962 223.190544,36.9730608 C223.111943,37.6337985 223.877072,37.7136274 224.24797,37.5822167 C224.881688,37.369749 225.910867,36.6291825 226.625643,35.8100152 C226.836882,35.5717567 227.023559,35.3077072 227.181989,35.0706768 C225.909639,35.2303346 225.118719,35.3617452 223.902863,35.386308 M227.023559,33.6706008 C226.253517,33.2211027 225.409787,33.9358783 224.831335,34.4369582 C225.304167,34.5683688 226.335802,34.6739886 227.393228,34.5683688 C227.469373,34.1999278 227.392,33.8818403 227.023559,33.6706008" id="Shape" fill="#FFFFFF"></path>
                    <path d="M235.13049,34.8852281 C234.813631,34.9122471 234.499228,34.965057 234.235179,34.9908479 C233.651814,36.4977719 231.723639,38.1361065 230.425498,38.4529658 C228.78962,38.849654 228.39416,38.1618973 228.63119,37.1314905 C229.000859,35.5717567 230.295316,34.1716806 231.562753,33.2481217 C232.171909,32.7986236 233.863053,32.7458137 234.258513,33.5121711 C234.416943,33.8032395 234.442734,34.1458897 234.364133,34.5143308 C234.575373,34.4885399 235.290148,34.4369582 235.554198,34.3841483 C236.083525,34.3043194 235.661046,34.8336464 235.13049,34.8852281 M230.403392,35.386308 C230.113551,35.8370342 229.769673,36.444962 229.688616,36.9730608 C229.612471,37.6337985 230.377601,37.7136274 230.746042,37.5822167 C231.382217,37.369749 232.410167,36.6291825 233.126171,35.8100152 C233.337411,35.5717567 233.521631,35.3077072 233.680061,35.0706768 C232.410167,35.2303346 231.616791,35.3617452 230.403392,35.386308 M233.521631,33.6706008 C232.754046,33.2211027 231.910316,33.9358783 231.329407,34.4369582 C231.804696,34.5683688 232.833875,34.6739886 233.8913,34.5683688 C233.969901,34.1999278 233.890072,33.8818403 233.521631,33.6706008" id="Shape" fill="#FFFFFF"></path>
                    <path d="M244.988745,29.8928517 C243.931319,31.5029392 242.794065,32.6401939 241.49838,34.8582091 C240.917471,35.888616 240.469202,37.0258707 240.205152,38.1618973 C240.124095,38.5045475 240.152342,38.7968441 240.179361,39.0338745 C240.205152,39.2709049 240.232171,39.5091635 240.15357,39.7474221 C239.966894,40.2755209 239.25703,40.1441103 239.069125,39.6946122 C239.016316,39.5361825 239.069125,39.2709049 239.174745,38.9282548 C239.280365,38.5868327 239.441251,38.1876882 239.572662,37.7381901 C239.648806,37.4741407 239.704072,37.1585095 239.678281,36.9730608 C239.623015,36.7090114 239.441251,36.6291825 239.14527,36.8416502 C238.646646,37.2113194 238.118548,37.5269506 237.615011,37.7922281 C237.113932,38.0820684 236.638643,38.320327 236.216163,38.5573574 C235.979133,38.6912243 235.738418,38.8754449 235.451034,38.9282548 C235.184529,38.9810646 234.892232,38.9282548 234.522563,38.5868327 C234.04973,38.1348783 234.182369,37.6325703 234.498,37.1056996 C234.838194,36.5505817 235.421559,36.1268745 235.817019,35.5987757 C236.927255,34.1446616 238.618399,33.2997034 239.254574,32.9828441 C240.122867,32.5591369 240.864662,32.4547452 241.365741,33.116711 C241.790677,32.2164867 243.587441,29.3893156 244.167122,28.5689202 C245.093137,27.248673 245.858266,26.2452852 246.491985,26.7475932 C247.287817,27.3825399 245.358414,29.3094867 244.988745,29.8928517 M238.30154,34.013251 C237.166741,34.911019 236.029487,36.2067034 235.739646,36.7876122 C235.473141,37.315711 235.396996,38.1090875 236.557586,37.7136274 C237.826251,37.2911483 238.963506,36.6819924 240.36481,35.4145551 C240.576049,34.8336464 240.81308,34.2785285 241.077129,33.6963916 C240.390601,32.3491255 239.124392,33.3537414 238.30154,34.013251" id="Shape" fill="#FFFFFF"></path>
                    <path d="M262.773395,32.7728327 L262.795502,32.7728327 C261.288578,35.0706768 259.6527,36.8944601 258.067175,38.2404981 C250.590278,44.582597 244.565038,40.1453384 249.849711,30.5523612 C254.951392,21.3315095 263.222894,27.0128707 257.036768,32.6131749 C256.667099,32.9570532 256.482878,32.587384 256.855004,32.2177148 C261.395426,27.6207985 255.108593,22.9182624 250.747479,30.8704487 C245.913532,39.6688213 250.722916,43.632019 257.751544,37.4495779 C259.362859,36.0212548 260.893118,34.2269468 262.110202,32.4559734 C264.065395,29.6017833 264.410502,29.1793042 266.127437,26.6689924 C266.180247,26.5891635 266.230601,26.5891635 266.285867,26.6960114 C266.338677,26.8016312 266.364468,26.9600608 266.311658,27.0386616 C264.567703,29.6545932 263.060779,32.3221065 262.773395,32.7728327 M275.399871,28.7298061 L275.375308,28.7040152 C274.212262,31.3457376 273.125361,34.3841483 272.861312,37.0270989 C272.732357,38.4799848 273.576087,40.0126996 275.214422,38.0046958 C275.428118,37.7394183 275.609882,37.7136274 275.689711,37.7394183 C275.742521,37.7652091 275.821122,37.872057 275.66392,38.1103156 C273.577316,41.1229354 271.516502,39.4023156 271.727741,37.1855285 C271.991791,34.4885399 273.603106,30.1040913 275.11003,26.8274221 C274.263844,27.9634487 273.738202,28.7298061 273.179399,29.5231825 C272.311106,30.7636008 271.385091,32.1120951 270.697335,32.9840722 C270.354684,33.4077795 269.56008,34.4369582 268.71635,35.3617452 C267.870163,36.3135513 267.025205,37.1327186 266.576935,37.1327186 C265.20265,37.1585095 264.832981,35.4415741 265.070011,33.2211027 C265.254232,31.5041673 265.731977,29.626346 266.180247,28.0162586 C266.391487,27.2228821 266.602726,26.4847719 266.789403,25.848597 C266.94292,25.2161065 267.023977,24.7137985 267.050996,24.3441293 C267.079243,23.3137224 268.84776,23.7104106 268.797407,24.2114905 C268.691787,24.925038 268.502654,25.6373574 268.266852,26.3509049 C268.000346,27.0669087 267.657696,27.7792281 267.396103,28.4129468 C266.759928,29.8928517 266.180247,31.4525856 265.994798,33.1695209 C265.833913,34.7796084 266.206038,35.2831445 267.132053,35.3077072 C267.924202,35.3077072 269.905186,33.1965399 270.353456,32.6131749 C273.234665,29.0196464 276.036046,24.9778479 276.851529,22.3348973 C277.093471,21.5943308 278.650749,22.018038 278.358452,22.7843954 C277.805791,23.8688403 276.565373,26.0868555 275.399871,28.7298061" id="Shape" fill="#FFFFFF"></path>
                    <path d="M281.475464,38.1889163 C280.815954,38.6384144 280.075388,38.9282548 279.760985,38.7698251 C279.232886,38.5057757 279.17762,37.9764487 279.232886,37.369749 C279.30903,36.920251 279.57308,36.2337224 279.522726,35.7829962 C278.939361,36.3123232 277.962992,37.2911483 277.433665,37.7934563 C276.879776,38.320327 276.193247,38.849654 275.82235,38.4001559 C274.927038,37.2911483 276.959605,34.6739886 277.274008,34.2785285 C278.572148,32.7200228 280.155217,31.2929278 282.083392,32.8784525 C282.166905,32.9570532 281.874608,33.1412738 281.821798,33.1953118 C281.13527,33.8818403 279.496935,37.2358821 280.394703,37.8978479 C280.737354,38.1361065 281.215099,37.845038 281.640034,37.5551977 C281.768989,37.4753688 282.324106,37.0000798 282.484992,37.1585095 C282.612719,37.34273 282.083392,37.7934563 281.475464,38.1889163 M277.592095,34.6481977 C276.826966,35.5459658 275.581635,39.2451141 279.046209,35.4919278 C280.023806,34.4369582 280.894555,33.1953118 280.657525,32.7728327 C280.289084,32.1120951 278.492319,33.592 277.592095,34.6481977" id="Shape" fill="#FFFFFF"></path>
                    <path d="M289.03219,33.7246388 C287.209635,33.2751407 284.703008,36.8686692 284.016479,38.4799848 C283.167837,39.1394943 283.062217,37.8978479 283.485924,37.0786806 C284.303863,35.4919278 284.992848,33.8548213 285.810787,32.2963156 C286.153437,31.9524373 286.417487,32.2164867 286.341342,32.4559734 C286.074837,33.3279506 285.652357,34.1458897 285.465681,35.0436578 C286.497316,34.1458897 288.53111,32.5075551 289.615555,32.5075551 C290.593152,32.5075551 289.590992,34.1458897 289.03219,33.7246388" id="Shape" fill="#FFFFFF"></path>
                    <path d="M294.68776,33.7762205 C293.975441,34.5155589 294.713551,32.0064753 294.237034,31.8492738 C293.444886,31.5827681 292.310087,32.533346 291.730407,33.4581331 C291.041422,34.5425779 292.890996,36.6574297 292.653966,37.845038 C293.077673,37.7652091 294.714779,37.2653574 294.081061,37.845038 C293.814555,38.0832966 291.59654,38.849654 290.670525,39.0338745 C289.905395,39.2721331 288.324783,39.297924 288.18846,38.9810646 C288.057049,38.6642053 288.953589,38.6642053 289.13781,38.6113954 C289.509935,38.5315665 289.826795,38.5585856 290.169445,38.4529658 C291.757426,37.9764487 291.70216,37.1843004 290.884221,35.9684449 C289.694156,34.1999278 291.860589,31.8492738 293.577525,31.4243384 C293.814555,31.3715285 294.738114,31.2401179 295.031639,31.6097871 C295.29446,31.9008555 295.266213,33.1695209 294.68776,33.7762205" id="Shape" fill="#FFFFFF"></path>
                    <path d="M301.742179,38.7968441 C299.470125,38.1361065 299.866814,34.5425779 298.281289,35.7314144 C297.41054,36.390924 297.040871,37.3169392 296.618392,37.8192471 C296.167665,38.3485741 295.876597,38.7968441 295.55851,39.2451141 C295.402536,39.4563536 294.977601,39.6688213 294.60916,39.6688213 C294.237034,39.6946122 294.00246,39.5619734 294.05527,39.1137034 C294.16089,38.4529658 294.34511,37.7652091 294.60916,37.1056996 C295.163049,35.7043954 295.957654,34.3583574 296.61962,33.0098631 C297.754418,30.7365817 299.047646,27.1172624 300.716684,26.0610646 C300.792829,26.0082548 301.637787,26.1126464 301.743407,26.3509049 C301.874817,26.7475932 301.982894,27.6723802 300.846867,29.4151065 C299.892605,30.8434297 298.54411,32.2435057 297.620551,33.1695209 C296.963498,34.3043194 295.403764,36.3639049 295.586757,37.6866084 C295.642023,38.1618973 296.328551,37.4753688 296.752259,36.94727 C297.280357,36.2865323 297.889513,35.1492776 298.335327,34.7010076 C300.580361,32.3749163 301.21408,37.9248669 302.379582,37.9248669 C302.825395,37.9248669 303.06611,37.4225589 303.540171,37.2911483 C303.988441,37.8978479 302.006228,38.8754449 301.742179,38.7968441 M298.650958,29.680384 C298.281289,30.4737605 297.938639,31.5545209 297.754418,32.0838479 C297.965658,32.2435057 299.709612,30.1040913 300.344559,29.0454373 C301.004068,27.8836198 301.344262,27.1442814 301.029859,26.9330418 C300.397369,26.5105627 299.073437,28.782616 298.650958,29.680384" id="Shape" fill="#FFFFFF"></path>
                    <path d="M309.457335,38.1889163 C308.800281,38.6384144 308.058487,38.9282548 307.740399,38.7698251 C307.2123,38.5057757 307.161947,37.9764487 307.2123,37.369749 C307.290901,36.920251 307.554951,36.2337224 307.504597,35.7829962 C306.923688,36.3123232 305.943635,37.2911483 305.415536,37.7934563 C304.864103,38.320327 304.172662,38.849654 303.804221,38.4001559 C302.905224,37.2911483 304.941475,34.6739886 305.255878,34.2785285 C306.554019,32.7200228 308.137087,31.2929278 310.067719,32.8784525 C310.146319,32.9570532 309.856479,33.1412738 309.803669,33.1953118 C309.117141,33.8818403 307.47635,37.2358821 308.376574,37.8978479 C308.721681,38.1361065 309.194513,37.845038 309.619449,37.5551977 C309.750859,37.4753688 310.305977,37.0000798 310.464407,37.1585095 C310.593361,37.34273 310.06649,37.7934563 309.457335,38.1889163 M305.575194,34.6481977 C304.807608,35.5459658 303.562278,39.2451141 307.026852,35.4919278 C308.005677,34.4369582 308.878882,33.1953118 308.638167,32.7728327 C308.269726,32.1120951 306.472962,33.592 305.575194,34.6481977" id="Shape" fill="#FFFFFF"></path>
                    <path d="M313.160167,34.6739886 C312.366791,36.1526654 310.145091,40.6451901 314.26549,37.5023878 C314.874646,37.6853802 313.128236,38.8754449 312.310297,39.5091635 C311.518148,40.1441103 310.750563,39.8260228 310.780038,39.2193232 C310.856183,37.3955399 311.729388,35.7817681 312.494517,34.1446616 C313.235084,32.533346 314.001441,31.0546692 314.900437,29.5477452 C315.47889,28.5689202 316.430696,26.6419734 317.328464,26.0340456 C318.070259,25.5317376 318.232373,25.5575285 318.49151,26.0340456 C318.837844,26.6419734 314.559015,32.0592852 313.160167,34.6739886" id="Shape" fill="#FFFFFF"></path>
                    <path d="M317.279338,34.6739886 C316.48719,36.1526654 314.266719,40.6451901 318.387118,37.5023878 C318.996274,37.6853802 317.249863,38.8754449 316.431924,39.5091635 C315.639776,40.1441103 314.874646,39.8260228 314.901665,39.2193232 C314.980266,37.3955399 315.851015,35.7817681 316.616144,34.1446616 C317.357939,32.533346 318.125525,31.0546692 319.022065,29.5477452 C319.602973,28.5689202 320.552323,26.6419734 321.452548,26.0340456 C322.191886,25.5317376 322.351544,25.5575285 322.615593,26.0340456 C322.957015,26.6419734 318.676958,32.0592852 317.279338,34.6739886" id="Shape" fill="#FFFFFF"></path>
                    <path d="M53.4337795,0.37826616 L68.8837414,0.37826616 C77.3554297,0.37826616 81.287924,1.19129278 84.9453156,5.25765399 C87.182981,7.56286692 87.9272319,10.6111027 87.9272319,13.5254715 C87.9272319,17.3891901 86.1660837,21.3192281 82.0984943,23.6232129 C90.1624411,26.4700342 90.3687681,33.179346 90.3687681,35.2794601 C90.3687681,39.2795019 88.8090342,43.6836008 85.7607985,46.1914563 C81.1503726,50.0527186 77.8307186,50.5280076 69.3578023,50.5280076 L53.4337795,50.5280076 L53.4337795,0.37826616 L53.4337795,0.37826616 Z M65.6979544,19.4205285 L70.2383764,19.4205285 C72.001981,19.4205285 75.6618289,19.4205285 75.6618289,15.4217148 C75.6618289,11.6267719 72.2033954,11.6267719 70.2383764,11.6267719 L65.6979544,11.6267719 L65.6979544,19.4205285 Z M65.6979544,39.2782738 L71.7305627,39.2782738 C73.356616,39.2782738 78.1021369,39.2782738 78.1021369,34.4652053 C78.1021369,30.128654 73.7631293,30.128654 71.7305627,30.128654 L65.6979544,30.128654 L65.6979544,39.2782738 Z" id="Shape" fill="#FFFFFF"></path>
                    <path d="M153.148669,47.5743384 C153.148669,45.8181027 154.472601,44.4953992 156.166202,44.4953992 C157.843837,44.4953992 159.16654,45.8181027 159.16654,47.5743384 C159.16654,49.356365 157.843837,50.6680152 156.166202,50.6680152 C154.472601,50.6680152 153.148669,49.356365 153.148669,47.5743384 L153.148669,47.5743384 Z M156.166202,51.2869962 C158.187715,51.2869962 159.910791,49.7186654 159.910791,47.5743384 C159.910791,45.4459772 158.188943,43.8776464 156.166202,43.8776464 C154.129951,43.8776464 152.404418,45.4459772 152.404418,47.5743384 C152.404418,49.7186654 154.129951,51.2869962 156.166202,51.2869962 L156.166202,51.2869962 Z M155.385106,47.8678631 L156.126901,47.8678631 L157.256787,49.7198935 L157.981388,49.7198935 L156.767989,47.8383878 C157.394338,47.7610152 157.873312,47.426962 157.873312,46.6618327 C157.873312,45.8193308 157.374688,45.4472053 156.366388,45.4472053 L154.737878,45.4472053 L154.737878,49.7198935 L155.385106,49.7198935 L155.385106,47.8678631 L155.385106,47.8678631 Z M155.385106,47.3164297 L155.385106,45.9949544 L156.265681,45.9949544 C156.716407,45.9949544 157.199065,46.0919772 157.199065,46.6225323 C157.199065,47.2783574 156.70781,47.3164297 156.157605,47.3164297 L155.385106,47.3164297 Z" id="Shape" fill="#FFFFFF"></path>
                </g>
            </g>
        </g>
    </g>
</svg>