<svg xmlns="http://www.w3.org/2000/svg" xmlns:xlink="http://www.w3.org/1999/xlink"><symbol viewBox="0 0 18 14" id="airplane" xmlns="http://www.w3.org/2000/svg"><path d="M13.501 1.48L10.54 4.095l-2.265.261-2.265.262-2.352.26-2.264.262-.262.087-.174.175-.261.174-.174.261-.262.174L0 6.272v.261h.087l.087.087 8.275.087-1.655 1.655-.087.087-.174.174-.087.175-.174.087-.871.87-1.394-.609-.174-.087-.087-.087H3.57l-.174-.087-.174-.087h-.174l-.175-.087-.174.087-.174.087-.174.087-.174.087-.087.174-.088.087v.174l.088.088v.087l.26.087.175.174.174.174.174.174v.175h-.087v.087l-.61.174-.696.261-.61.262-.61.26H.174v.088H.087L0 11.672v.261h.087v.175h.087l.087.087.175.087H.61l.087-.087.784-.087.87-.175.785-.087.784-.087.435.349.349.26.348.35.436.26.087.088.087.087h.087l.087.087h.261l.087-.087.088-.174v-.784l-.088-.174-.087-.262.436-.348.261-.174.174-.175.175-.174.174-.174 4.355-3.92.523.697.697.784.61.697.696.697.174.174.087.174.175.174.174.087H15.243l.088-.087.174-.087.087-.174.087-.174-.087-.174-1.742-4.704.61-.697.435-.435.523-.523.522-.436.436-.435.261-.349.261-.348.175-.436.087-.435V.436L17.073.26l-.175-.087-.087-.087h-.348L16.114 0l-.435.087h-.436l-.435.174-.349.262-.348.26-.348.35z" fill-rule="evenodd"/></symbol><symbol viewBox="0 0 21 21" id="alert" xmlns="http://www.w3.org/2000/svg"><path d="M20.754 17.842a2.18 2.18 0 0 1-.072 2.112A2.206 2.206 0 0 1 18.816 21H2.184c-.748 0-1.456-.39-1.866-1.046-.39-.636-.41-1.435-.103-2.112L8.531 1.22A2.203 2.203 0 0 1 10.5 0c.83 0 1.58.461 1.948 1.22l8.306 16.622zM9.187 5.69v7.434h2.626V5.691H9.187zM10.5 18.816c.974 0 1.753-.78 1.753-1.753 0-.975-.779-1.754-1.753-1.754-.974 0-1.753.78-1.753 1.754s.779 1.753 1.753 1.753z" fill-rule="evenodd"/></symbol><symbol viewBox="0 0 29 25" id="amenities" xmlns="http://www.w3.org/2000/svg"><g fill-rule="nonzero"><path d="M21.008 14h-4.016A1.985 1.985 0 0 0 15 15.974v3.052c0 1.089.894 1.974 1.992 1.974h4.016A1.985 1.985 0 0 0 23 19.026v-3.052A1.985 1.985 0 0 0 21.008 14zm.543 5.026c0 .299-.248.538-.543.538h-4.016a.543.543 0 0 1-.543-.538v-3.052c0-.299.248-.538.543-.538h4.016c.301 0 .543.245.543.538v3.052z"/><path d="M29 8.191c0-.123-.03-.24-.095-.345L24.591.356A.716.716 0 0 0 23.975 0H5.02a.704.704 0 0 0-.616.357L.095 7.846A.703.703 0 0 0 0 8.19c0 1.68 1.025 3.118 2.489 3.756v12.35c0 .387.32.703.71.703h22.596a.709.709 0 0 0 .71-.702V12.035c0-.03 0-.053-.006-.076C27.97 11.32 29 9.876 29 8.19zM5.434 1.41H23.56l3.372 5.857H2.068L5.434 1.41zm15.205 7.255c-.225 1.264-1.345 2.223-2.69 2.223s-2.465-.96-2.69-2.223h5.38zm-6.892 0c-.225 1.264-1.345 2.223-2.69 2.223a2.733 2.733 0 0 1-2.696-2.223h5.386zm-12.277 0h5.386c-.225 1.264-1.351 2.223-2.696 2.223a2.716 2.716 0 0 1-2.69-2.223zm10.476 14.93H7.857V16.02c0-.55.45-1 1.014-1h2.068c.557 0 1.013.444 1.013 1v7.577h-.006zm13.137 0H13.368V16.02c0-1.322-1.09-2.404-2.435-2.404H8.865c-1.34 0-2.436 1.076-2.436 2.404v7.583H3.911v-11.31a4.169 4.169 0 0 0 3.698-1.808 4.169 4.169 0 0 0 3.448 1.814c1.434 0 2.696-.72 3.449-1.814a4.166 4.166 0 0 0 3.443 1.814c1.434 0 2.696-.72 3.442-1.814a4.169 4.169 0 0 0 3.45 1.814c.082 0 .16-.006.242-.006v11.304zm-.243-12.701c-1.345 0-2.465-.96-2.69-2.223h5.386a2.739 2.739 0 0 1-2.696 2.223z"/></g></symbol><symbol viewBox="0 0 11 8" id="arrow_left" xmlns="http://www.w3.org/2000/svg"><path d="M0 4l4-4v3h7v2H4v3z" fill-rule="evenodd"/></symbol><symbol viewBox="0 0 11 8" id="arrow_right" xmlns="http://www.w3.org/2000/svg"><path d="M11 4L7 0v3H0v2h7v3z" fill-rule="evenodd"/></symbol><symbol viewBox="0 0 26 27" id="bag" xmlns="http://www.w3.org/2000/svg"><path d="M23.927 5.173l-5.384.446c-.66-2.267-2.394-3.996-4.512-4.432A5.718 5.718 0 0 0 11.3.049V0h-.693v.04C7.198.4 4.516 3.275 4.424 6.788l-4.416.366L2.74 24.403l15.786 2.582 3.76-1.892 3.691-17.387-2.05-2.533zm-6.145.509l-1.093.09a7.37 7.37 0 0 0-1.368-3.293c1.134.671 2.021 1.815 2.461 3.203zm-4.05-3.787c1.134.918 1.948 2.319 2.211 3.939l-7.928.657c.516-2.54 2.671-4.482 5.296-4.647.142.01.283.027.421.05zM10.94.767c.57.04 1.115.182 1.624.408-2.712.472-4.857 2.64-5.32 5.38l-2.076.171C5.293 3.541 7.802.963 10.94.766zm7.82 25.223l-.301-.078L23.551 5.73l.302.077L18.76 25.99z" fill-rule="nonzero"/></symbol><symbol viewBox="0 0 29 25" id="car" xmlns="http://www.w3.org/2000/svg"><path d="M.136 19.481v-8.719l.189-.189v-.38l.189-.189.19-.19.188-.189.19-.19.188-.189h.19v-.19h.188l.19-.189h.378v-.19h.378l2.458-6.444.189-.19v-.189h.189l.189-.19v-.19l.189-.189.189-.19h.189l.19-.189h.188l.19-.19h.188l.19-.189H21.69l.189.19h.378l.189.19h.189v.189h.189l.189.19.189.189.189.19.19.189v.19h.188v.379l2.458 6.255h.378l.19.19h.378v.189h.378v.19h.189l.189.189.189.19.189.189v.19l.189.189v.19h.189v.379l.189.19v8.528h-2.269v3.602h-.189v.379l-.189.19-.189.189v.19h-.19v.189h-.188l-.19.19h-.378v.19H23.77l-.189-.19h-.189l-.189-.19h-.19v-.19h-.188v-.189h-.19v-.19l-.188-.19v-.379h-.19v-3.601H6.565v3.792h-.189v.189l-.189.19v.189l-.19.19-.188.189h-.19l-.188.19h-.19v.19H3.918l-.189-.19H3.54l-.189-.19h-.189v-.19h-.19l-.188-.189-.19-.19v-.379h-.188v-3.791H.135zM4.673 8.678h19.663l-2.08-5.118-.188-.19v-.19h-.19v-.189l-.189-.19H21.5l-.189-.189H7.51v.19h-.378v.19h-.189v.189l-.189.19v.189l-2.08 5.118zm1.702 4.17l-.189-.57-.378-.757-.567-.38-.757-.189-.756.19-.567.379-.378.758-.19.758.19.569.378.758.567.379.756.19.757-.19.567-.38.378-.757.19-.759zm20.041.189l-.189-.758-.378-.569-.756-.568H23.769l-.756.379-.378.758-.19.758.19.569.378.758.567.379.756.19.757-.19.756-.38.378-.568.19-.758z" fill-rule="evenodd"/></symbol><symbol viewBox="0 0 10 6" id="caret_down" xmlns="http://www.w3.org/2000/svg"><path d="M5 6l5-6H0z" fill-rule="evenodd"/></symbol><symbol viewBox="0 0 7 16" id="carets" xmlns="http://www.w3.org/2000/svg"><g fill="#FFF" fill-rule="evenodd" opacity=".6"><path opacity=".75" d="M3.125 15.5l3.125-5H0zM3.125.5l3.125 5H0z"/></g></symbol><symbol viewBox="0 0 15 9" id="chevron_up" xmlns="http://www.w3.org/2000/svg"><path d="M14.846 8.056l-.75.77a.47.47 0 0 1-.347.153.47.47 0 0 1-.345-.154L7.498 2.78 1.593 8.825a.47.47 0 0 1-.346.154.47.47 0 0 1-.346-.154l-.75-.769a.491.491 0 0 1 0-.708L7.152.178a.47.47 0 0 1 .345-.154.47.47 0 0 1 .346.154l7.002 7.17a.492.492 0 0 1 0 .708z" fill-rule="nonzero"/></symbol><symbol viewBox="0 0 35 35" id="clock" xmlns="http://www.w3.org/2000/svg"><g fill-rule="evenodd"><path d="M17.456.001C7.83.001 0 7.832 0 17.457s7.83 17.456 17.456 17.456c9.628 0 17.458-7.83 17.458-17.456 0-9.625-7.83-17.456-17.458-17.456zm0 33.335c-8.757 0-15.877-7.124-15.877-15.879 0-8.756 7.12-15.88 15.877-15.88 8.756 0 15.878 7.124 15.878 15.88 0 8.757-7.122 15.879-15.878 15.879z"/><path d="M12.074 5.97l-.646-1.281-.706.357.65 1.285c.229-.13.466-.247.702-.362zM4.703 17.72c0-.267.025-.527.039-.79H2.93v1.582h1.812c-.016-.263-.039-.523-.039-.792zM18.567 4.687V2.875h-1.583v1.812c.263-.015.524-.038.792-.038.267-.002.529.023.79.038zM31.191 11.742l-.357-.705-1.43.727c.122.233.24.47.345.713l1.442-.735zM24.698 6.645c.226.14.446.285.659.438l.793-1.232-.665-.429-.787 1.223zM5.332 10.01l1.301.897c.139-.226.278-.45.43-.666l-1.28-.884-.451.653zM23.156 29.628l.967 1.916.706-.358-.96-1.9c-.232.123-.472.233-.713.342zM28.104 25.724l1.668 1.15.449-.65-1.645-1.134c-.148.216-.313.425-.472.634zM30.813 16.93c.017.264.04.525.04.79 0 .269-.026.53-.04.792h1.81V16.93h-1.81zM16.985 30.756v1.813h1.583v-1.813c-.262.018-.524.041-.79.041-.269 0-.53-.027-.793-.041zM9.402 30.383l.666.43 1.154-1.79c-.23-.134-.458-.266-.675-.412l-1.145 1.772zM4.362 24.495l.36.704 1.767-.899a12.03 12.03 0 0 1-.38-.694l-1.747.889zM18.334 6.063H17.22v12.093l-6.585 7.227.175.16 6.416-7.042h8.487v-1.56h-7.38z"/></g></symbol><symbol viewBox="0 0 11 11" id="close" xmlns="http://www.w3.org/2000/svg"><path d="M10.264 8.314L7.45 5.5l2.814-2.814a.263.263 0 0 0 .06-.167.248.248 0 0 0-.06-.161L8.642.736a.248.248 0 0 0-.161-.06.263.263 0 0 0-.167.06L5.5 3.55 2.686.736a.263.263 0 0 0-.167-.06.248.248 0 0 0-.161.06L.736 2.358a.248.248 0 0 0-.06.161c0 .064.022.118.06.167L3.55 5.5.736 8.314a.263.263 0 0 0-.06.167c0 .064.022.113.06.161l1.622 1.622c.048.038.097.06.161.06a.263.263 0 0 0 .167-.06L5.5 7.45l2.814 2.814c.049.038.103.06.167.06a.248.248 0 0 0 .161-.06l1.622-1.622a.248.248 0 0 0 .06-.161.263.263 0 0 0-.06-.167z" fill-rule="evenodd"/></symbol><symbol viewBox="0 0 4 14" id="exclamation" xmlns="http://www.w3.org/2000/svg"><path d="M3.312 9.076l.36-8.082H.918l.378 8.082h2.016zM2.304 13.18c.792 0 1.458-.666 1.458-1.44 0-.792-.666-1.458-1.458-1.458-.792 0-1.44.666-1.44 1.458 0 .774.648 1.44 1.44 1.44z" fill-rule="evenodd"/></symbol><symbol viewBox="0 0 20 20" id="facebook" xmlns="http://www.w3.org/2000/svg"><path d="M20 1.25C20 .566 19.434 0 18.75 0H1.25C.566 0 0 .566 0 1.25v17.5C0 19.434.566 20 1.25 20h9.443v-7.773h-2.5V9.346h2.5v-2.49c0-2.276 1.387-3.8 4.131-3.8 1.211 0 2.051.137 2.051.137v2.598H15c-.83 0-1.25.469-1.25 1.29v2.265h2.92l-.42 2.88h-2.5V20h5c.684 0 1.25-.566 1.25-1.25V1.25z" fill-rule="evenodd"/></symbol><symbol viewBox="0 0 34 25" id="facilities" xmlns="http://www.w3.org/2000/svg"><g fill-rule="nonzero"><g transform="translate(4 4)"><path d="M5.259 3.261H1.624A1.6 1.6 0 0 0 .025 4.846L0 9.79c-.002.371.3.674.672.676h.004c.371 0 .673-.3.675-.67l.025-4.944v-.001a.134.134 0 0 1 .268.001v11.313a.81.81 0 0 0 .812.808.81.81 0 0 0 .81-.808V9.71h.35v6.455a.81.81 0 0 0 .811.808.81.81 0 0 0 .811-.808c0-10.675-.014-4.57-.015-11.303 0-.076.06-.138.136-.14a.141.141 0 0 1 .147.13l-.004 4.94a.674.674 0 1 0 1.351.001l.005-4.943v-.004a1.6 1.6 0 0 0-1.6-1.585z"/><ellipse cx="3.441" cy="1.422" rx="1.4" ry="1.395"/><path d="M16.282 8.745c-.012-.036-1.241-3.526-1.434-4.086-.312-.902-.833-1.36-1.551-1.36H10.96c-.718 0-1.24.458-1.55 1.36-.194.56-1.423 4.05-1.435 4.086a.672.672 0 0 0 1.266.442c.04-.113.779-2.159 1.191-3.336-.043.352.082-.377-.958 4.97a.372.372 0 0 0 .365.442h.512v4.846c0 .443.36.802.805.802a.803.803 0 0 0 .805-.802v-4.846h.348v4.846c0 .443.36.802.804.802a.803.803 0 0 0 .805-.802v-4.846h.512c.234 0 .41-.212.366-.442-1.03-5.299-.917-4.683-.952-4.97l1.172 3.336a.671.671 0 0 0 1.266-.442z"/><ellipse cx="12.135" cy="1.474" rx="1.39" ry="1.385"/></g><path d="M24.05.32c.231.215.347.485.347.812v22.487c0 .327-.116.597-.347.811-.231.214-.514.32-.848.32H1.195c-.334 0-.617-.106-.848-.32A1.057 1.057 0 0 1 0 23.619V1.132C0 .805.116.535.347.32.578.107.86 0 1.195 0h22.007c.334 0 .617.107.848.32zM1.927 1.888v20.977H22.47V1.887H1.927zM32.99 20.344H31.26v-.714-4.926s.009-.232-.3-.232h-2.629c-.432 0-.356.278-.356.278v5.712h-1.87c-.545 0-.043.464-.043.464l3.318 3.926s.271.311.557.031c.392-.385 3.214-4.052 3.214-4.052s.501-.487-.163-.487zM26.197 5.01h1.727v5.64s-.008.233.3.233h2.63c.431 0 .355-.278.355-.278V5.688v-.796h1.87c.545 0 .043-.465.043-.465L29.805.502s-.272-.312-.557-.031c-.393.385-3.214 4.052-3.214 4.052s-.502.486.163.486z"/></g></symbol><symbol viewBox="0 0 31 28" id="gym" xmlns="http://www.w3.org/2000/svg"><path d="M30.353 19.095h-1.937v-.658c0-1.084-.87-1.968-1.937-1.968a1.9 1.9 0 0 0-.647.113v-.113c0-1.085-.869-1.969-1.937-1.969s-1.938.884-1.938 1.969v2.626H18.57a9.967 9.967 0 0 0 .805-3.938A9.862 9.862 0 0 0 15.5 7.28V2.03c0-1.085-.87-1.969-1.938-1.969h-7.75c-1.069 0-1.937.884-1.937 1.97v5.248A9.861 9.861 0 0 0 0 15.157c0 3.034 1.346 5.853 3.694 7.734a.638.638 0 0 0 .4.142h4.947v.655c0 1.086.87 1.97 1.938 1.97a1.9 1.9 0 0 0 .646-.114v.113c0 1.087.868 1.97 1.937 1.97 1.068 0 1.938-.883 1.938-1.97v-2.624h6.457v2.624c0 1.087.87 1.97 1.938 1.97s1.937-.883 1.937-1.97v-.113a1.9 1.9 0 0 0 .647.113c1.068 0 1.937-.883 1.937-1.969v-.655h1.937a.652.652 0 0 0 .647-.658v-2.624a.65.65 0 0 0-.647-.656zM5.166 2.03c0-.362.29-.656.646-.656h7.75c.356 0 .646.294.646.656v4.415a9.545 9.545 0 0 0-.646-.316V3.343c0-.724-.58-1.313-1.292-1.313H7.104c-.713 0-1.292.59-1.292 1.313V6.13c-.219.097-.435.202-.646.316V2.03zm7.104 1.313v2.321a9.588 9.588 0 0 0-2.583-.352c-.885 0-1.753.12-2.583.352v-2.32h5.166zM9.041 21.72H7.75c.165 0 .33-.064.456-.193a.664.664 0 0 0 0-.928.645.645 0 0 0-.455-.193h1.29v1.314zm2.584 1.968c0 .362-.29.656-.646.656a.651.651 0 0 1-.646-.656v-5.25c0-.362.289-.656.646-.656.355 0 .646.294.646.655v5.251zm2.583 1.97c0 .36-.29.655-.646.655a.651.651 0 0 1-.646-.656v-9.189c0-.361.29-.655.646-.655.356 0 .646.294.646.656v9.188zM13.562 14.5c-1.069 0-1.937.884-1.937 1.969v.113a1.9 1.9 0 0 0-.646-.113c-1.068 0-1.938.884-1.938 1.968v.658H7.104a.65.65 0 0 0-.646.656v1.969H4.322a8.54 8.54 0 0 1-3.03-6.563c0-4.705 3.765-8.533 8.395-8.533 4.63 0 8.395 3.828 8.395 8.533 0 1.396-.329 2.74-.943 3.938H15.5v-2.626c0-1.085-.869-1.969-1.937-1.969zm8.395 7.22H15.5v-1.314h6.457v1.314zm2.584-3.283v7.221c0 .36-.29.655-.646.655a.651.651 0 0 1-.645-.656V16.47c0-.362.29-.656.645-.656.357 0 .646.294.646.656v1.968zm2.584 5.251c0 .362-.29.656-.646.656a.651.651 0 0 1-.647-.656v-5.25c0-.362.29-.656.647-.656.355 0 .646.294.646.655v5.251zm1.291-1.968v-1.314h1.29a.647.647 0 0 0-.456.193.666.666 0 0 0 0 .928.637.637 0 0 0 .457.193h-1.291z" fill-rule="nonzero"/></symbol><symbol viewBox="0 0 22 21" id="home" xmlns="http://www.w3.org/2000/svg"><g fill-rule="nonzero" fill="#000"><path d="M18.373 10.29a.629.629 0 0 0-.634.644v8.79h-4.496v-3.59c0-.336-.277-.63-.611-.63h-3.25a.646.646 0 0 0-.647.63v3.59H4.251v-8.498a.625.625 0 0 0-.634-.621.62.62 0 0 0-.611.62v9.143c0 .339.276.62.61.62h5.765a.62.62 0 0 0 .611-.62v-3.59h2.006v3.59c0 .339.277.62.634.62h5.741a.62.62 0 0 0 .611-.62v-9.434c0-.364-.276-.644-.61-.644z"/><path d="M21.82 10.792l-5.003-5.096V2.22a.638.638 0 0 0-.646-.641.624.624 0 0 0-.61.641v2.2L11.432.211a.603.603 0 0 0-.426-.2.622.622 0 0 0-.45.2L.193 10.72c-.249.253-.265.657 0 .889.23.27.627.252.876 0l9.938-10.055 9.914 10.15c.103.105.254.164.45.164a.69.69 0 0 0 .45-.164.67.67 0 0 0 0-.913z"/></g></symbol><symbol viewBox="0 0 29 29" id="instagram" xmlns="http://www.w3.org/2000/svg"><defs><linearGradient x1="50%" y1="99.709%" x2="50%" y2=".777%" id="a"><stop stop-color="#E09B3D" offset="0%"/><stop stop-color="#C74C4D" offset="30%"/><stop stop-color="#C21975" offset="60%"/><stop stop-color="#7024C4" offset="100%"/></linearGradient><linearGradient x1="50%" y1="146.098%" x2="50%" y2="-45.16%" id="b"><stop stop-color="#E09B3D" offset="0%"/><stop stop-color="#C74C4D" offset="30%"/><stop stop-color="#C21975" offset="60%"/><stop stop-color="#7024C4" offset="100%"/></linearGradient><linearGradient x1="50%" y1="658.153%" x2="50%" y2="-140.038%" id="c"><stop stop-color="#E09B3D" offset="0%"/><stop stop-color="#C74C4D" offset="30%"/><stop stop-color="#C21975" offset="60%"/><stop stop-color="#7024C4" offset="100%"/></linearGradient></defs><g fill-rule="nonzero" fill="none"><path d="M20.325 0h-11.7C3.868 0 0 3.869 0 8.624v11.701c0 4.755 3.869 8.624 8.624 8.624h11.701c4.755 0 8.624-3.869 8.624-8.624v-11.7C28.95 3.868 25.08 0 20.325 0zm5.712 20.325a5.712 5.712 0 0 1-5.712 5.712h-11.7a5.712 5.712 0 0 1-5.713-5.712v-11.7a5.712 5.712 0 0 1 5.712-5.713h11.701a5.712 5.712 0 0 1 5.712 5.712v11.701z" fill="url(#a)"/><path d="M14.475 6.987c-4.129 0-7.488 3.36-7.488 7.488s3.36 7.487 7.488 7.487 7.487-3.359 7.487-7.487c0-4.129-3.359-7.488-7.487-7.488zm0 12.063a4.575 4.575 0 1 1 0-9.15 4.575 4.575 0 0 1 0 9.15z" fill="url(#b)"/><ellipse fill="url(#c)" cx="21.976" cy="7.044" rx="1.794" ry="1.794"/></g></symbol><symbol viewBox="0 0 10 14" id="marker" xmlns="http://www.w3.org/2000/svg"><path d="M8.382 1.406a4.77 4.77 0 0 0-6.764 0C-.066 3.096-.255 6.277 1.173 8.19L5 13.736l3.827-5.547c1.428-1.912 1.239-5.093-.445-6.783zM5.047 6.34c-.873 0-1.58-.71-1.58-1.585 0-.876.707-1.585 1.58-1.585.872 0 1.579.71 1.579 1.585S5.919 6.34 5.046 6.34z" fill-rule="nonzero"/></symbol><symbol viewBox="0 0 26 28" id="officer" xmlns="http://www.w3.org/2000/svg"><path d="M13.56 21.48L4.68 10.2H14.28l.12.12h.36l.12.12H15l.12.12.12.12h.12v.12h.12l.12.12v.12h.12l.12.12v.12l.12.12 2.88 3.6 4.32-3.24.12-.12h.12l.12-.12h.24l.12-.12H24l.12.12h.48v.12h.24l.12.12.12.12.12.12.12.12.12.12v.12h.12v.36l.12.12v.72l-.12.12v.12l-.12.12v.12l-.12.12-.12.12-.12.12-.12.12h-.12l-4.92 3.96-.12.12h-.12l-.12.12-.12.12h-.24l-.12.12h-.48l-.12.12-.12-.12h-.48l-.12-.12-.12-.12h-.12l-.12-.12-.12-.12-.12-.12h-.12v-.12l-.12-.12-.12-.12-3.36-4.44.12 7.92zm0 6.24H.12L0 12.48v-.6l.12-.12v-.24l.12-.12v-.12l.12-.12v-.12h.12v-.12l.12-.12h.12l.12-.12.12-.12h.12l.12-.12h.12l.12-.12h.36l.12-.12h.48l9.12 11.52H3.84v1.92h9.72v4.08zM11.88 2.64h-7.8V0h9.48l-1.68 2.64zm1.56 2.52h-1.92v.96l-.12.12v.12l-.12.24v.12l-.12.24-.12.12v.12l-.12.24-.12.12-.12.12-.12.12-.12.12-.24.12-.12.12-.12.12-.12.12-.24.12-.12.12-.24.12h-.12l-.24.12h-.24L8.4 9H7.08l-.24-.12h-.12l-.12-.12h-.24l-.12-.12h-.12l-.24-.12-.12-.12-.12-.12-.12-.12-.12-.12-.24-.12-.12-.12-.12-.12-.12-.12-.12-.12V7.2l-.12-.12-.12-.12v-.24l-.12-.12-.12-.12v-.36l-.12-.24V3.36h7.8l1.56 1.8z" fill-rule="evenodd"/></symbol><symbol viewBox="0 0 10 13" id="parking" xmlns="http://www.w3.org/2000/svg"><path d="M2.744 13H.188V.994h5.616c2.61 0 4.032 1.764 4.032 3.87 0 2.088-1.44 3.852-4.032 3.852h-3.06V13zm2.7-6.534c1.008 0 1.782-.612 1.782-1.602 0-1.008-.774-1.62-1.782-1.62h-2.7v3.222h2.7z" fill-rule="evenodd"/></symbol><symbol viewBox="0 0 35 35" id="pie" xmlns="http://www.w3.org/2000/svg"><g fill-rule="nonzero"><path d="M34.954 16.29C34.363 7.62 27.378.634 18.706.042L18.083 0v16.913h16.913l-.042-.623zm-15.704-.543V1.26a16.13 16.13 0 0 1 4.099.992c-.004.027-.016.05-.016.077 0 .322.262.583.584.583a.574.574 0 0 0 .445-.22 16.468 16.468 0 0 1 7.94 7.942.574.574 0 0 0-.219.445c0 .322.262.583.584.583.026 0 .05-.011.076-.015.5 1.296.84 2.67.993 4.098H19.25zM29.947 29.803l.412-.447a17.532 17.532 0 0 0 4.595-10.653l.042-.623H18.224l11.723 11.723zm-4.28-10.556H33.736a16.268 16.268 0 0 1-.801 3.573.573.573 0 0 0-.268-.073.584.584 0 0 0-.583.583c0 .27.188.488.438.554a16.4 16.4 0 0 1-2.616 4.227l-.705-.704a.58.58 0 1 0-.61-.611l-1.14-1.14a.579.579 0 0 0-.034-1.16.58.58 0 0 0-.577.55l-1.139-1.14a.58.58 0 1 0-.61-.61l-1.14-1.14a.58.58 0 1 0-.61-.61l-1.14-1.14a.58.58 0 1 0-.61-.61l-.55-.55H25.667z"/><path d="M16.917 0l-.623.042C7.157.666 0 8.332 0 17.496c0 9.65 7.85 17.5 17.5 17.5 4.04 0 7.984-1.414 11.105-3.981l.496-.409-12.184-12.184V0zm10.44 30.513A16.352 16.352 0 0 1 17.5 33.83c-9.006 0-16.333-7.327-16.333-16.333 0-8.345 6.356-15.358 14.583-16.236v17.644l11.608 11.608z"/><ellipse cx="20.417" cy="2.33" rx=".583" ry=".583"/><ellipse cx="20.417" cy="5.83" rx=".583" ry=".583"/><ellipse cx="22.167" cy="4.08" rx=".583" ry=".583"/><ellipse cx="25.667" cy="4.08" rx=".583" ry=".583"/><ellipse cx="23.917" cy="5.83" rx=".583" ry=".583"/><ellipse cx="27.417" cy="5.83" rx=".583" ry=".583"/><circle cx="29.167" cy="7.58" r=".583"/><ellipse cx="22.167" cy="7.58" rx=".583" ry=".583"/><ellipse cx="25.667" cy="7.58" rx=".583" ry=".583"/><circle cx="29.167" cy="11.08" r=".583"/><circle cx="30.917" cy="9.33" r=".583"/><circle cx="30.917" cy="12.83" r=".583"/><ellipse cx="20.417" cy="9.33" rx=".583" ry=".583"/><ellipse cx="20.417" cy="12.83" rx=".583" ry=".583"/><ellipse cx="22.167" cy="11.08" rx=".583" ry=".583"/><ellipse cx="25.667" cy="11.08" rx=".583" ry=".583"/><ellipse cx="23.917" cy="9.33" rx=".583" ry=".583"/><ellipse cx="27.417" cy="9.33" rx=".583" ry=".583"/><ellipse cx="23.917" cy="12.83" rx=".583" ry=".583"/><ellipse cx="27.417" cy="12.83" rx=".583" ry=".583"/><ellipse cx="32.667" cy="14.58" rx=".583" ry=".583"/><circle cx="29.167" cy="14.58" r=".583"/><ellipse cx="22.167" cy="14.58" rx=".583" ry=".583"/><ellipse cx="25.667" cy="14.58" rx=".583" ry=".583"/><circle cx="29.167" cy="23.33" r=".583"/><circle cx="30.917" cy="25.08" r=".583"/><circle cx="30.917" cy="21.58" r=".583"/><ellipse cx="27.417" cy="21.58" rx=".583" ry=".583"/><ellipse cx="25.667" cy="19.83" rx=".583" ry=".583"/><ellipse cx="32.667" cy="19.83" rx=".583" ry=".583"/><circle cx="29.167" cy="19.83" r=".583"/></g></symbol><symbol viewBox="0 0 13 14" id="plus" xmlns="http://www.w3.org/2000/svg"><path d="M13 8.054V5.741H7.783V0H5.247v5.74H0v2.314h5.247V14h2.536V8.054z" fill-rule="evenodd"/></symbol><symbol viewBox="0 0 27 25" id="restrooms" xmlns="http://www.w3.org/2000/svg"><g fill-rule="nonzero"><path d="M7.733 4.796H2.388a2.352 2.352 0 0 0-2.351 2.33L0 14.396a.992.992 0 0 0 .989.995h.005c.546 0 .99-.44.993-.984l.037-7.271v-.003a.197.197 0 0 1 .394.003v16.636a1.19 1.19 0 0 0 1.193 1.188 1.19 1.19 0 0 0 1.192-1.188V14.28h.515v9.492a1.19 1.19 0 0 0 1.193 1.188 1.19 1.19 0 0 0 1.192-1.188c0-15.698-.021-6.72-.022-16.622a.208.208 0 1 1 .416-.016l-.006 7.267c-.001.546.444.99.992.99h.001a.992.992 0 0 0 .994-.989l.007-7.27v-.006a2.352 2.352 0 0 0-2.352-2.33z"/><ellipse cx="5.061" cy="2.091" rx="2.059" ry="2.051"/><path d="M26.944 12.86c-.018-.052-1.825-5.185-2.11-6.009-.457-1.326-1.224-1.999-2.28-1.999h-3.436c-1.056 0-1.823.673-2.28 1.999-.285.824-2.092 5.957-2.11 6.009a.981.981 0 0 0 .605 1.252.988.988 0 0 0 1.257-.602c.058-.166 1.145-3.174 1.752-4.905-.064.517.119-.556-1.41 7.308a.547.547 0 0 0 .538.65h.752v7.127c0 .65.53 1.178 1.184 1.178.654 0 1.184-.527 1.184-1.178v-7.126h.51v7.126c0 .65.53 1.178 1.184 1.178.654 0 1.184-.527 1.184-1.178v-7.126h.753a.547.547 0 0 0 .538-.65c-1.516-7.793-1.349-6.888-1.4-7.31a4919.41 4919.41 0 0 0 1.724 4.906.987.987 0 0 0 1.257.602.981.981 0 0 0 .604-1.252z"/><ellipse cx="20.845" cy="2.167" rx="2.044" ry="2.036"/><path d="M12.644 1.362a.76.76 0 0 0-.761.757V22.88c0 .419.34.758.76.758a.76.76 0 0 0 .762-.758V2.12a.76.76 0 0 0-.761-.758z"/></g></symbol><symbol viewBox="0 0 14 14" id="search" xmlns="http://www.w3.org/2000/svg"><path d="M8.75 0A5.251 5.251 0 0 1 14 5.25a5.251 5.251 0 0 1-5.25 5.25 5.14 5.14 0 0 1-2.803-.813l-3.95 3.971c-.233.226-.54.342-.828.342a1.168 1.168 0 0 1-.827-1.996l3.971-3.951A5.14 5.14 0 0 1 3.5 5.25 5.251 5.251 0 0 1 8.75 0zm0 8.75c1.928 0 3.5-1.572 3.5-3.5s-1.572-3.5-3.5-3.5a3.507 3.507 0 0 0-3.5 3.5c0 1.928 1.572 3.5 3.5 3.5z" fill-rule="evenodd"/></symbol><symbol viewBox="0 0 29 22" id="sofa" xmlns="http://www.w3.org/2000/svg"><path d="M28.136 7.084c-.578-.577-1.244-.728-1.565-.797a3.477 3.477 0 0 0-1.195-.056C23.773 2.516 19.486 0 14.486 0 9.772 0 5.604 2.534 3.907 6.286a3.469 3.469 0 0 0-1.503.006c-.321.07-.987.22-1.566.797C.73 7.197-.18 8.15.032 9.512c.208 1.35 1.377 2.19 2.377 2.403a2.44 2.44 0 0 0 1.044-.006c.031-.006.063-.012.088-.019.1.17.42 1.067-.359 4.932a.64.64 0 0 0 .02.308c.458 1.468 1.2 2.183 2.413 2.321.026 0 .044.006.07.006v1.883a.63.63 0 0 0 1.257 0v-1.883h15.09v1.883a.63.63 0 0 0 1.257 0v-1.883c.025 0 .044 0 .07-.006 1.213-.138 1.96-.853 2.413-2.321a.64.64 0 0 0 .02-.308c-.78-3.871-.46-4.769-.36-4.932.026.007.058.013.089.02.34.074.698.08 1.037.005 1-.213 2.17-1.054 2.377-2.403.214-1.368-.698-2.321-.799-2.428zm-13.65-5.829c4.44 0 8.243 2.158 9.69 5.365-.214.119-.422.25-.617.395a5.7 5.7 0 0 0-1.414 1.412 6.089 6.089 0 0 0-.705 1.4c-.477 1.317-.616 2.885-.653 3.977h-12.6c-.038-1.092-.182-2.66-.654-3.978a6.087 6.087 0 0 0-.704-1.4 5.7 5.7 0 0 0-1.415-1.41 6.917 6.917 0 0 0-.352-.24c1.503-3.294 5.219-5.52 9.425-5.52zm13.217 8.063c-.126.81-.906 1.26-1.396 1.361a1.21 1.21 0 0 1-.54-.012c-.215-.044-.51-.1-.843.056-1.05.47-1.163 2.265-.39 6.18-.396 1.161-.893 1.25-1.27 1.293H5.716c-.377-.044-.88-.132-1.27-1.292.773-3.916.66-5.71-.39-6.18-.333-.151-.629-.095-.842-.057a1.21 1.21 0 0 1-.54.012c-.491-.106-1.271-.552-1.397-1.361-.12-.76.447-1.343.447-1.35.32-.32.71-.407.95-.457.32-.076.66-.076.98 0 .415.094.673.276 1.037.527.428.3.805.671 1.1 1.098.233.345.416.721.554 1.11.51 1.425.59 3.232.59 4.18a.63.63 0 0 0 .63.627h13.832a.63.63 0 0 0 .628-.628c0-.953.082-2.76.591-4.185.139-.389.321-.765.554-1.11a4.458 4.458 0 0 1 1.1-1.099c.358-.25.622-.432 1.031-.527a2.38 2.38 0 0 1 .987 0c.24.05.629.138.95.458.012.013.578.597.465 1.356z" fill-rule="nonzero"/></symbol><symbol viewBox="0 0 7 15" id="sorter" xmlns="http://www.w3.org/2000/svg"><g opacity=".75" fill="#FFF" fill-rule="evenodd"><path d="M3.125 15l3.125-5H0zM3.125 0L6.25 5H0z"/></g></symbol><symbol viewBox="0 0 17 12" id="space-car" xmlns="http://www.w3.org/2000/svg"><path d="M16.503 3.832a.431.431 0 0 0-.33-.153h-1.615c-.398-1.024-.918-2.027-1.508-2.405-2.042-1.308-7.459-1.308-9.5 0-.592.379-1.109 1.383-1.51 2.405H.425a.428.428 0 0 0-.33.153.404.404 0 0 0-.086.345l.24 1.129c.04.192.214.33.415.33h.479a2.75 2.75 0 0 0-.69 1.826c-.002.807.313 1.537.889 2.054l.018.014v1.58c0 .342.286.62.638.62h1.49a.63.63 0 0 0 .637-.62v-.635h8.348v.635c0 .342.285.62.637.62h1.49a.63.63 0 0 0 .638-.62V9.56a2.731 2.731 0 0 0 .907-2.043 2.745 2.745 0 0 0-.72-1.883h.51a.42.42 0 0 0 .416-.33l.24-1.129a.409.409 0 0 0-.088-.344zM4.25 2.31c1.628-1.043 6.472-1.043 8.1 0 .316.202.722 1.019 1.095 2.018H3.154c.372-.999.779-1.815 1.095-2.018zM2.343 7.617c0-.674.561-1.22 1.254-1.22s1.254.546 1.254 1.22c0 .675-.561 1.221-1.254 1.221s-1.254-.546-1.254-1.22zm10.675 1.221c-.692 0-1.254-.546-1.254-1.22 0-.675.562-1.222 1.254-1.222.693 0 1.254.547 1.254 1.221 0 .675-.562 1.221-1.254 1.221z" fill-rule="nonzero"/></symbol><symbol viewBox="0 0 24 24" id="tickets" xmlns="http://www.w3.org/2000/svg"><path d="M21.485 8.071l-5.364-5.364c-1.128-1.128-3.111-1.136-4.248-.018l-9.148 9.002a2.967 2.967 0 0 0-.891 2.115 2.959 2.959 0 0 0 .873 2.121l5.365 5.365c.567.567 1.325.88 2.133.88.799 0 1.551-.307 2.115-.862l9.147-9.003c.571-.562.888-1.313.891-2.115s-.307-1.555-.873-2.121zm-1.421 2.811l-9.146 9.003c-.381.373-1.056.37-1.432-.006l-1.275-1.275a1.999 1.999 0 0 0-.062-2.752 1.997 1.997 0 0 0-2.752-.063l-1.275-1.274c-.186-.187-.288-.435-.287-.699s.105-.513.293-.697l9.148-9.002c.189-.186.441-.288.713-.288.273 0 .529.104.719.294l1.275 1.275a1.995 1.995 0 0 0 .062 2.751 1.997 1.997 0 0 0 2.752.063l1.274 1.274c.187.187.288.435.287.699s-.105.512-.294.697z"/><path d="M11.601 17.042l-4.657-4.656 5.649-5.429 4.657 4.656-5.649 5.429zm-3.23-4.643l3.243 3.242L15.82 11.6l-3.241-3.242-4.208 4.041z"/></symbol><symbol viewBox="0 0 36 32" id="traveler" xmlns="http://www.w3.org/2000/svg"><g fill-rule="evenodd"><ellipse transform="matrix(-1 0 0 1 16.772 0)" cx="8.386" cy="2.764" rx="3.065" ry="2.763"/><path d="M1.404 14.976l4.386-1.763.879-4.694-1.879 3.769-.348-3.657c-.098-1.027.746-1.93 1.885-2.019l3.678-.285c1.133-.088 2.13.664 2.238 1.681l3.357 2.609c.11.084.203.184.278.294l3.194 4.713c.4.588.194 1.358-.46 1.717a1.458 1.458 0 0 1-.232.102l1.794 1.617 1.614-1.456a1.425 1.425 0 0 1 1.868 0l.616.556a1.11 1.11 0 0 1 0 1.683L22.658 21.3l.812.732 3.058-2.756a1.425 1.425 0 0 1 1.868 0l6.757 6.09a1.11 1.11 0 0 1 0 1.685l-2.03 1.83c.107.241.166.504.166.779 0 1.155-1.042 2.094-2.323 2.094-1.28 0-2.323-.94-2.323-2.094 0-.27.057-.529.161-.766l-11.7-10.581a.665.665 0 0 1-.002-1.009 1.31 1.31 0 0 1-.395-.376l-3.081-4.545-1.043-.81s.476 6.06.47 6.09l-.994 5.712 2.655 6.347c.325.776-.11 1.642-.971 1.935-.861.293-1.823-.1-2.147-.875l-2.81-6.718a1.363 1.363 0 0 1-.088-.763l.952-5.462-.869.068-2.674 5.334-1.852 7.344c-.204.809-1.097 1.315-1.994 1.131-.898-.183-1.46-.988-1.256-1.797l1.89-7.491c.024-.098.06-.194.106-.286l2.293-4.573-.01-.095 2.86-1.15c1.172-.47 1.632-1.534 1.591-2.108l-.36-5.107-.97 5.183c-.078.414-.38.765-.804.935l-5.067 2.037c-.712.286-1.527-.015-1.833-.634-.313-.631.002-1.371.703-1.653zm29.562 15.35c.408 0 .74-.3.74-.667 0-.368-.332-.667-.74-.667s-.74.3-.74.667c0 .367.332.666.74.666z"/></g></symbol><symbol viewBox="0 0 21 18" id="twitter" xmlns="http://www.w3.org/2000/svg"><path d="M21 2.763c-.78.349-1.6.585-2.481.687a4.271 4.271 0 0 0 1.897-2.389 8.648 8.648 0 0 1-2.718 1.046c-.81-.82-1.927-1.354-3.168-1.354a4.289 4.289 0 0 0-4.297 4.297c0 .338.02.687.093.994-3.569-.194-6.727-1.815-8.87-4.419-.359.636-.584 1.292-.584 2.092 0 1.476.758 2.789 1.927 3.568a4.318 4.318 0 0 1-1.948-.533v.051a4.304 4.304 0 0 0 3.456 4.225c-.37.102-.76.154-1.149.154-.266 0-.533-.031-.8-.082.534 1.702 2.143 2.973 4.01 2.994-1.456 1.169-3.333 2.04-5.343 2.04A6.8 6.8 0 0 1 0 16.062c1.897 1.22 4.184 1.754 6.614 1.754 7.916 0 12.243-6.563 12.243-12.253v-.564A8.726 8.726 0 0 0 21 2.763z" fill-rule="evenodd"/></symbol><symbol viewBox="0 0 22 26" id="utensils" xmlns="http://www.w3.org/2000/svg"><g fill-rule="nonzero"><path d="M4.62 0C1.162 0 .043 4.938.043 7.33a4.578 4.578 0 0 0 3.052 4.303v12.846a1.525 1.525 0 0 0 3.05 0V11.633A4.578 4.578 0 0 0 9.198 7.33C9.197 4.938 8.078 0 4.62 0zm.999 10.928a.415.415 0 0 0-.305.4v13.15a.693.693 0 0 1-1.387 0v-13.15a.415.415 0 0 0-.306-.4A3.744 3.744 0 0 1 .875 7.33c0-2.036.943-6.5 3.745-6.5s3.745 4.464 3.745 6.5a3.744 3.744 0 0 1-2.746 3.598zM15.993 0a.415.415 0 0 0-.416.415v5.67H14.56V.415a.415.415 0 0 0-.832 0v5.67H12.71V.415a.415.415 0 0 0-.832 0v5.67H10.86V.415a.415.415 0 0 0-.832 0v8.298a3.18 3.18 0 0 0 1.665 2.793V24.48a1.525 1.525 0 0 0 3.05 0V11.506a3.18 3.18 0 0 0 1.665-2.793V.415A.416.416 0 0 0 15.993 0zm-.416 8.713c0 .934-.556 1.78-1.415 2.155a.415.415 0 0 0-.25.38v13.23a.693.693 0 0 1-1.386 0v-13.23a.415.415 0 0 0-.25-.38 2.352 2.352 0 0 1-1.415-2.155V6.915h4.716v1.798zM19.599 0a2.357 2.357 0 0 0-2.358 2.351v9.68a2.08 2.08 0 0 0 1.664 2.034v10.414a1.525 1.525 0 0 0 3.052 0V2.35A2.357 2.357 0 0 0 19.599 0zm1.526 24.479a.693.693 0 0 1-1.387 0V14.106h.138a.415.415 0 1 0 0-.83h-.555a1.248 1.248 0 0 1-1.248-1.244v-9.68a1.525 1.525 0 0 1 3.051 0v22.127z"/></g></symbol><symbol viewBox="0 0 26 20" id="youtube" xmlns="http://www.w3.org/2000/svg"><path d="M13 .796c13 0 13 0 13 9.204s0 9.204-13 9.204-13 0-13-9.204S0 .796 13 .796zM9.75 14.875L17.875 10 9.75 5.125v9.75z" fill-rule="evenodd"/></symbol></svg>